G04 #@! TF.FileFunction,Soldermask,Top*
%FSLAX46Y46*%
G04 Gerber Fmt 4.6, Leading zero omitted, Abs format (unit mm)*
G04 Created by KiCad (PCBNEW 4.0.2-stable) date 21/01/2018 10:23:35*
%MOMM*%
G01*
G04 APERTURE LIST*
%ADD10C,0.100000*%
%ADD11C,0.150000*%
%ADD12R,1.650000X1.400000*%
%ADD13R,3.540000X16.540000*%
%ADD14R,2.400000X1.924000*%
%ADD15O,2.400000X1.924000*%
%ADD16R,2.432000X2.127200*%
%ADD17O,2.432000X2.127200*%
%ADD18R,1.543000X0.908000*%
%ADD19R,1.100000X1.700000*%
%ADD20R,1.400000X1.650000*%
%ADD21R,1.700000X1.100000*%
%ADD22R,1.460000X1.050000*%
%ADD23R,1.400000X2.000000*%
%ADD24R,2.127200X2.432000*%
%ADD25O,2.127200X2.432000*%
%ADD26C,2.540000*%
%ADD27C,4.464000*%
%ADD28R,1.900000X0.700000*%
%ADD29R,0.700000X1.900000*%
%ADD30R,4.057600X2.432000*%
%ADD31R,1.416000X2.432000*%
%ADD32R,2.432000X2.432000*%
%ADD33O,2.432000X2.432000*%
G04 APERTURE END LIST*
D10*
D11*
X105666666Y-144500000D02*
G75*
G03X105666666Y-144500000I-1666666J0D01*
G01*
X101500000Y-144500000D02*
X106500000Y-144500000D01*
X104000000Y-142000000D02*
X104000000Y-147000000D01*
X100015000Y-67920000D02*
X185880000Y-67920000D01*
X100015000Y-67920000D02*
X100015000Y-148420000D01*
X185875000Y-148420000D02*
X185875000Y-67920000D01*
X100010000Y-148420000D02*
X185875000Y-148420000D01*
D12*
X138200000Y-79650000D03*
X138200000Y-81650000D03*
D13*
X123580000Y-120820000D03*
X123280000Y-92520000D03*
D14*
X106680000Y-83320000D03*
D15*
X109220000Y-83320000D03*
X106680000Y-85860000D03*
X109220000Y-85860000D03*
X106680000Y-88400000D03*
X109220000Y-88400000D03*
X106680000Y-90940000D03*
X109220000Y-90940000D03*
X106680000Y-93480000D03*
X109220000Y-93480000D03*
X106680000Y-96020000D03*
X109220000Y-96020000D03*
X106680000Y-98560000D03*
X109220000Y-98560000D03*
X106680000Y-101100000D03*
X109220000Y-101100000D03*
X106680000Y-103640000D03*
X109220000Y-103640000D03*
X106680000Y-106180000D03*
X109220000Y-106180000D03*
X106680000Y-108720000D03*
X109220000Y-108720000D03*
X106680000Y-111260000D03*
X109220000Y-111260000D03*
X106680000Y-113800000D03*
X109220000Y-113800000D03*
X106680000Y-116340000D03*
X109220000Y-116340000D03*
X106680000Y-118880000D03*
X109220000Y-118880000D03*
X106680000Y-121420000D03*
X109220000Y-121420000D03*
X106680000Y-123960000D03*
X109220000Y-123960000D03*
X106680000Y-126500000D03*
X109220000Y-126500000D03*
X106680000Y-129040000D03*
X109220000Y-129040000D03*
X106680000Y-131580000D03*
X109220000Y-131580000D03*
D16*
X156770000Y-130400000D03*
D17*
X156770000Y-132940000D03*
X156770000Y-135480000D03*
D18*
X118500000Y-116375000D03*
X118500000Y-117645000D03*
X118500000Y-118915000D03*
X118500000Y-120185000D03*
X118500000Y-121455000D03*
X118500000Y-122725000D03*
X118500000Y-123995000D03*
X118500000Y-125265000D03*
X128660000Y-125265000D03*
X128660000Y-123995000D03*
X128660000Y-122725000D03*
X128660000Y-121455000D03*
X128660000Y-120185000D03*
X128660000Y-118915000D03*
X128660000Y-117645000D03*
X128660000Y-116375000D03*
D19*
X140750000Y-78350000D03*
X142650000Y-78350000D03*
D18*
X118200000Y-88075000D03*
X118200000Y-89345000D03*
X118200000Y-90615000D03*
X118200000Y-91885000D03*
X118200000Y-93155000D03*
X118200000Y-94425000D03*
X118200000Y-95695000D03*
X118200000Y-96965000D03*
X128360000Y-96965000D03*
X128360000Y-95695000D03*
X128360000Y-94425000D03*
X128360000Y-93155000D03*
X128360000Y-91885000D03*
X128360000Y-90615000D03*
X128360000Y-89345000D03*
X128360000Y-88075000D03*
D12*
X166080000Y-80820000D03*
X166080000Y-78820000D03*
X171880000Y-80820000D03*
X171880000Y-78820000D03*
X166080000Y-87120000D03*
X166080000Y-85120000D03*
X171880000Y-87320000D03*
X171880000Y-85320000D03*
X166080000Y-93520000D03*
X166080000Y-91520000D03*
X171880000Y-93420000D03*
X171880000Y-91420000D03*
X166080000Y-99720000D03*
X166080000Y-97720000D03*
X171880000Y-99620000D03*
X171880000Y-97620000D03*
X166080000Y-106220000D03*
X166080000Y-104220000D03*
X171880000Y-106420000D03*
X171880000Y-104420000D03*
X166080000Y-113220000D03*
X166080000Y-111220000D03*
X171980000Y-113420000D03*
X171980000Y-111420000D03*
X166080000Y-120220000D03*
X166080000Y-118220000D03*
X171980000Y-120420000D03*
X171980000Y-118420000D03*
X166080000Y-127420000D03*
X166080000Y-125420000D03*
X171980000Y-127620000D03*
X171980000Y-125620000D03*
X166080000Y-134320000D03*
X166080000Y-132320000D03*
X171980000Y-134320000D03*
X171980000Y-132320000D03*
D20*
X145780000Y-94120000D03*
X147780000Y-94120000D03*
X141580000Y-98920000D03*
X143580000Y-98920000D03*
X141200000Y-91800000D03*
X139200000Y-91800000D03*
X138780000Y-98920000D03*
X136780000Y-98920000D03*
D12*
X137140000Y-118820000D03*
X137140000Y-116820000D03*
D20*
X141250000Y-116820000D03*
X139250000Y-116820000D03*
D12*
X131380000Y-79620000D03*
X131380000Y-81620000D03*
X134650000Y-79650000D03*
X134650000Y-81650000D03*
X145380000Y-87720000D03*
X145380000Y-89720000D03*
X149880000Y-87720000D03*
X149880000Y-89720000D03*
X132280000Y-87720000D03*
X132280000Y-89720000D03*
X136680000Y-87720000D03*
X136680000Y-89720000D03*
X141080000Y-87720000D03*
X141080000Y-89720000D03*
D21*
X163080000Y-78870000D03*
X163080000Y-80770000D03*
X168980000Y-80770000D03*
X168980000Y-78870000D03*
X163080000Y-87070000D03*
X163080000Y-85170000D03*
X168880000Y-87170000D03*
X168880000Y-85270000D03*
X163080000Y-91570000D03*
X163080000Y-93470000D03*
X168880000Y-93470000D03*
X168880000Y-91570000D03*
X163080000Y-99570000D03*
X163080000Y-97670000D03*
X168880000Y-99570000D03*
X168880000Y-97670000D03*
X163080000Y-104170000D03*
X163080000Y-106070000D03*
X168980000Y-106170000D03*
X168980000Y-104270000D03*
X163080000Y-112970000D03*
X163080000Y-111070000D03*
X169080000Y-113270000D03*
X169080000Y-111370000D03*
X163180000Y-118270000D03*
X163180000Y-120170000D03*
X169080000Y-120270000D03*
X169080000Y-118370000D03*
X163080000Y-127270000D03*
X163080000Y-125370000D03*
X169080000Y-127470000D03*
X169080000Y-125570000D03*
X163080000Y-132270000D03*
X163080000Y-134170000D03*
X169080000Y-134370000D03*
X169080000Y-132470000D03*
D22*
X176930000Y-81020000D03*
X176930000Y-80070000D03*
X176930000Y-79120000D03*
X174730000Y-79120000D03*
X174730000Y-81020000D03*
X176930000Y-87220000D03*
X176930000Y-86270000D03*
X176930000Y-85320000D03*
X174730000Y-85320000D03*
X174730000Y-87220000D03*
X176930000Y-93420000D03*
X176930000Y-92470000D03*
X176930000Y-91520000D03*
X174730000Y-91520000D03*
X174730000Y-93420000D03*
X176930000Y-99520000D03*
X176930000Y-98570000D03*
X176930000Y-97620000D03*
X174730000Y-97620000D03*
X174730000Y-99520000D03*
X176980000Y-106170000D03*
X176980000Y-105220000D03*
X176980000Y-104270000D03*
X174780000Y-104270000D03*
X174780000Y-106170000D03*
X176880000Y-113370000D03*
X176880000Y-112420000D03*
X176880000Y-111470000D03*
X174680000Y-111470000D03*
X174680000Y-113370000D03*
X176880000Y-120570000D03*
X176880000Y-119620000D03*
X176880000Y-118670000D03*
X174680000Y-118670000D03*
X174680000Y-120570000D03*
X176880000Y-127470000D03*
X176880000Y-126520000D03*
X176880000Y-125570000D03*
X174680000Y-125570000D03*
X174680000Y-127470000D03*
X176880000Y-134270000D03*
X176880000Y-133320000D03*
X176880000Y-132370000D03*
X174680000Y-132370000D03*
X174680000Y-134270000D03*
D23*
X141880000Y-94120000D03*
X138880000Y-94120000D03*
D20*
X145280000Y-120220000D03*
X143280000Y-120220000D03*
D12*
X131180000Y-131620000D03*
X131180000Y-129620000D03*
D20*
X147880000Y-98920000D03*
X145880000Y-98920000D03*
D12*
X132480000Y-123420000D03*
X132480000Y-125420000D03*
X135000000Y-129600000D03*
X135000000Y-131600000D03*
D24*
X156780000Y-142720000D03*
D25*
X154240000Y-142720000D03*
X151700000Y-142720000D03*
D16*
X150780000Y-130420000D03*
D17*
X150780000Y-132960000D03*
X150780000Y-135500000D03*
D21*
X145880000Y-117670000D03*
X145880000Y-115770000D03*
D19*
X145330000Y-123320000D03*
X143430000Y-123320000D03*
D21*
X138780000Y-135470000D03*
X138780000Y-137370000D03*
X151480000Y-116870000D03*
X151480000Y-114970000D03*
D19*
X150530000Y-126320000D03*
X152430000Y-126320000D03*
X157470000Y-139180000D03*
X155570000Y-139180000D03*
D12*
X172080000Y-141320000D03*
X172080000Y-139320000D03*
X166080000Y-141420000D03*
X166080000Y-139420000D03*
D21*
X169080000Y-139370000D03*
X169080000Y-141270000D03*
X163080000Y-139470000D03*
X163080000Y-141370000D03*
D16*
X182680000Y-84620000D03*
D17*
X182680000Y-87160000D03*
X182680000Y-89700000D03*
X182680000Y-92240000D03*
X182680000Y-94780000D03*
X182680000Y-97320000D03*
X182680000Y-99860000D03*
X182680000Y-102400000D03*
X182680000Y-104940000D03*
X182680000Y-107480000D03*
X182680000Y-110020000D03*
X182680000Y-112560000D03*
X182680000Y-115100000D03*
X182680000Y-117640000D03*
X182680000Y-120180000D03*
X182680000Y-122720000D03*
X182680000Y-125260000D03*
X182680000Y-127800000D03*
X182680000Y-130340000D03*
X182680000Y-132880000D03*
D22*
X176880000Y-141270000D03*
X176880000Y-140320000D03*
X176880000Y-139370000D03*
X174680000Y-139370000D03*
X174680000Y-141270000D03*
D19*
X140750000Y-81650000D03*
X142650000Y-81650000D03*
D12*
X116000000Y-88000000D03*
X116000000Y-90000000D03*
X113500000Y-88000000D03*
X113500000Y-90000000D03*
X116200000Y-117900000D03*
X116200000Y-115900000D03*
D26*
X109000000Y-74000000D03*
X171000000Y-73000000D03*
X108000000Y-143000000D03*
X172000000Y-144000000D03*
D27*
X181800000Y-72000000D03*
X182000000Y-144500000D03*
X104000000Y-72000000D03*
X104000000Y-144500000D03*
D26*
X150500000Y-101500000D03*
D16*
X130820000Y-113270000D03*
D17*
X130820000Y-110730000D03*
X130820000Y-108190000D03*
X130820000Y-105650000D03*
X130820000Y-103110000D03*
D21*
X134100000Y-93650000D03*
X134100000Y-91750000D03*
X131600000Y-93650000D03*
X131600000Y-91750000D03*
X132150000Y-97600000D03*
X132150000Y-95700000D03*
X136600000Y-91750000D03*
X136600000Y-93650000D03*
D19*
X130100000Y-100250000D03*
X132000000Y-100250000D03*
X136950000Y-95800000D03*
X135050000Y-95800000D03*
D21*
X115800000Y-99650000D03*
X115800000Y-101550000D03*
X115800000Y-109750000D03*
X115800000Y-107850000D03*
D28*
X147280000Y-111270000D03*
X147280000Y-110770000D03*
X147280000Y-110270000D03*
X147280000Y-109770000D03*
X147280000Y-109270000D03*
X147280000Y-108770000D03*
X147280000Y-108270000D03*
X147280000Y-107770000D03*
X147280000Y-107270000D03*
X147280000Y-106770000D03*
X147280000Y-106270000D03*
X147280000Y-105770000D03*
X147280000Y-105270000D03*
X147280000Y-104770000D03*
X147280000Y-104270000D03*
X147280000Y-103770000D03*
D29*
X145330000Y-101820000D03*
X144830000Y-101820000D03*
X144330000Y-101820000D03*
X143830000Y-101820000D03*
X143330000Y-101820000D03*
X142830000Y-101820000D03*
X142330000Y-101820000D03*
X141830000Y-101820000D03*
X141330000Y-101820000D03*
X140830000Y-101820000D03*
X140330000Y-101820000D03*
X139830000Y-101820000D03*
X139330000Y-101820000D03*
X138830000Y-101820000D03*
X138330000Y-101820000D03*
X137830000Y-101820000D03*
D28*
X135880000Y-103770000D03*
X135880000Y-104270000D03*
X135880000Y-104770000D03*
X135880000Y-105270000D03*
X135880000Y-105770000D03*
X135880000Y-106270000D03*
X135880000Y-106770000D03*
X135880000Y-107270000D03*
X135880000Y-107770000D03*
X135880000Y-108270000D03*
X135880000Y-108770000D03*
X135880000Y-109270000D03*
X135880000Y-109770000D03*
X135880000Y-110270000D03*
X135880000Y-110770000D03*
X135880000Y-111270000D03*
D29*
X137830000Y-113220000D03*
X138330000Y-113220000D03*
X138830000Y-113220000D03*
X139330000Y-113220000D03*
X139830000Y-113220000D03*
X140330000Y-113220000D03*
X140830000Y-113220000D03*
X141330000Y-113220000D03*
X141830000Y-113220000D03*
X142330000Y-113220000D03*
X142830000Y-113220000D03*
X143330000Y-113220000D03*
X143830000Y-113220000D03*
X144330000Y-113220000D03*
X144830000Y-113220000D03*
X145330000Y-113220000D03*
D30*
X149280000Y-76418000D03*
D31*
X149280000Y-83022000D03*
X151566000Y-83022000D03*
X146994000Y-83022000D03*
D18*
X145155000Y-127815000D03*
X145155000Y-129085000D03*
X145155000Y-130355000D03*
X145155000Y-131625000D03*
X138805000Y-131625000D03*
X138805000Y-130355000D03*
X138805000Y-129085000D03*
X138805000Y-127815000D03*
D32*
X141510000Y-142750000D03*
D33*
X144050000Y-142750000D03*
D12*
X137080000Y-122720000D03*
X137080000Y-124720000D03*
M02*
