G04 #@! TF.GenerationSoftware,KiCad,Pcbnew,(5.1.5)-3*
G04 #@! TF.CreationDate,2021-04-17T16:45:16-03:00*
G04 #@! TF.ProjectId,PonchoBiopotenciales,506f6e63-686f-4426-996f-706f74656e63,1.0*
G04 #@! TF.SameCoordinates,Original*
G04 #@! TF.FileFunction,Legend,Bot*
G04 #@! TF.FilePolarity,Positive*
%FSLAX46Y46*%
G04 Gerber Fmt 4.6, Leading zero omitted, Abs format (unit mm)*
G04 Created by KiCad (PCBNEW (5.1.5)-3) date 2021-04-17 16:45:16*
%MOMM*%
%LPD*%
G04 APERTURE LIST*
%ADD10C,0.150000*%
%ADD11C,0.200000*%
G04 APERTURE END LIST*
D10*
X125095000Y-84455000D02*
X121920000Y-84455000D01*
X125095000Y-100965000D02*
X125095000Y-84455000D01*
X121920000Y-100965000D02*
X125095000Y-100965000D01*
X121920000Y-98425000D02*
X121920000Y-100965000D01*
X121920000Y-84455000D02*
X121920000Y-98425000D01*
X125095000Y-113030000D02*
X121920000Y-113030000D01*
X125095000Y-128905000D02*
X125095000Y-113030000D01*
X124460000Y-128905000D02*
X125095000Y-128905000D01*
X121920000Y-128905000D02*
X124460000Y-128905000D01*
X121920000Y-113030000D02*
X121920000Y-128905000D01*
X105666666Y-144500000D02*
G75*
G03X105666666Y-144500000I-1666666J0D01*
G01*
X101500000Y-144500000D02*
X106500000Y-144500000D01*
X104000000Y-142000000D02*
X104000000Y-147000000D01*
D11*
X158400000Y-128900000D02*
X158300000Y-128900000D01*
D10*
X100015000Y-67920000D02*
X185880000Y-67920000D01*
X100015000Y-67920000D02*
X100015000Y-148420000D01*
X185875000Y-148420000D02*
X185875000Y-67920000D01*
X100010000Y-148420000D02*
X185875000Y-148420000D01*
X113833333Y-73928571D02*
X114166666Y-73928571D01*
X114166666Y-74452380D02*
X114166666Y-73452380D01*
X113690476Y-73452380D01*
X113309523Y-74452380D02*
X113309523Y-73452380D01*
X113071428Y-73452380D01*
X112928571Y-73500000D01*
X112833333Y-73595238D01*
X112785714Y-73690476D01*
X112738095Y-73880952D01*
X112738095Y-74023809D01*
X112785714Y-74214285D01*
X112833333Y-74309523D01*
X112928571Y-74404761D01*
X113071428Y-74452380D01*
X113309523Y-74452380D01*
X111833333Y-73452380D02*
X112309523Y-73452380D01*
X112357142Y-73928571D01*
X112309523Y-73880952D01*
X112214285Y-73833333D01*
X111976190Y-73833333D01*
X111880952Y-73880952D01*
X111833333Y-73928571D01*
X111785714Y-74023809D01*
X111785714Y-74261904D01*
X111833333Y-74357142D01*
X111880952Y-74404761D01*
X111976190Y-74452380D01*
X112214285Y-74452380D01*
X112309523Y-74404761D01*
X112357142Y-74357142D01*
X174833333Y-74428571D02*
X175166666Y-74428571D01*
X175166666Y-74952380D02*
X175166666Y-73952380D01*
X174690476Y-73952380D01*
X174309523Y-74952380D02*
X174309523Y-73952380D01*
X174071428Y-73952380D01*
X173928571Y-74000000D01*
X173833333Y-74095238D01*
X173785714Y-74190476D01*
X173738095Y-74380952D01*
X173738095Y-74523809D01*
X173785714Y-74714285D01*
X173833333Y-74809523D01*
X173928571Y-74904761D01*
X174071428Y-74952380D01*
X174309523Y-74952380D01*
X172880952Y-73952380D02*
X173071428Y-73952380D01*
X173166666Y-74000000D01*
X173214285Y-74047619D01*
X173309523Y-74190476D01*
X173357142Y-74380952D01*
X173357142Y-74761904D01*
X173309523Y-74857142D01*
X173261904Y-74904761D01*
X173166666Y-74952380D01*
X172976190Y-74952380D01*
X172880952Y-74904761D01*
X172833333Y-74857142D01*
X172785714Y-74761904D01*
X172785714Y-74523809D01*
X172833333Y-74428571D01*
X172880952Y-74380952D01*
X172976190Y-74333333D01*
X173166666Y-74333333D01*
X173261904Y-74380952D01*
X173309523Y-74428571D01*
X173357142Y-74523809D01*
X110833333Y-144428571D02*
X111166666Y-144428571D01*
X111166666Y-144952380D02*
X111166666Y-143952380D01*
X110690476Y-143952380D01*
X110309523Y-144952380D02*
X110309523Y-143952380D01*
X110071428Y-143952380D01*
X109928571Y-144000000D01*
X109833333Y-144095238D01*
X109785714Y-144190476D01*
X109738095Y-144380952D01*
X109738095Y-144523809D01*
X109785714Y-144714285D01*
X109833333Y-144809523D01*
X109928571Y-144904761D01*
X110071428Y-144952380D01*
X110309523Y-144952380D01*
X109404761Y-143952380D02*
X108738095Y-143952380D01*
X109166666Y-144952380D01*
X172833333Y-146428571D02*
X173166666Y-146428571D01*
X173166666Y-146952380D02*
X173166666Y-145952380D01*
X172690476Y-145952380D01*
X172309523Y-146952380D02*
X172309523Y-145952380D01*
X172071428Y-145952380D01*
X171928571Y-146000000D01*
X171833333Y-146095238D01*
X171785714Y-146190476D01*
X171738095Y-146380952D01*
X171738095Y-146523809D01*
X171785714Y-146714285D01*
X171833333Y-146809523D01*
X171928571Y-146904761D01*
X172071428Y-146952380D01*
X172309523Y-146952380D01*
X171166666Y-146380952D02*
X171261904Y-146333333D01*
X171309523Y-146285714D01*
X171357142Y-146190476D01*
X171357142Y-146142857D01*
X171309523Y-146047619D01*
X171261904Y-146000000D01*
X171166666Y-145952380D01*
X170976190Y-145952380D01*
X170880952Y-146000000D01*
X170833333Y-146047619D01*
X170785714Y-146142857D01*
X170785714Y-146190476D01*
X170833333Y-146285714D01*
X170880952Y-146333333D01*
X170976190Y-146380952D01*
X171166666Y-146380952D01*
X171261904Y-146428571D01*
X171309523Y-146476190D01*
X171357142Y-146571428D01*
X171357142Y-146761904D01*
X171309523Y-146857142D01*
X171261904Y-146904761D01*
X171166666Y-146952380D01*
X170976190Y-146952380D01*
X170880952Y-146904761D01*
X170833333Y-146857142D01*
X170785714Y-146761904D01*
X170785714Y-146571428D01*
X170833333Y-146476190D01*
X170880952Y-146428571D01*
X170976190Y-146380952D01*
M02*
