G04 #@! TF.FileFunction,Legend,Bot*
%FSLAX46Y46*%
G04 Gerber Fmt 4.6, Leading zero omitted, Abs format (unit mm)*
G04 Created by KiCad (PCBNEW 4.0.2-stable) date 21/01/2018 10:23:35*
%MOMM*%
G01*
G04 APERTURE LIST*
%ADD10C,0.100000*%
%ADD11C,0.150000*%
%ADD12C,0.200000*%
G04 APERTURE END LIST*
D10*
D11*
X105666666Y-144500000D02*
G75*
G03X105666666Y-144500000I-1666666J0D01*
G01*
X101500000Y-144500000D02*
X106500000Y-144500000D01*
X104000000Y-142000000D02*
X104000000Y-147000000D01*
D12*
X158400000Y-128900000D02*
X158300000Y-128900000D01*
D11*
X100015000Y-67920000D02*
X185880000Y-67920000D01*
X100015000Y-67920000D02*
X100015000Y-148420000D01*
X185875000Y-148420000D02*
X185875000Y-67920000D01*
X100010000Y-148420000D02*
X185875000Y-148420000D01*
X113833333Y-73928571D02*
X114166667Y-73928571D01*
X114166667Y-74452381D02*
X114166667Y-73452381D01*
X113690476Y-73452381D01*
X113309524Y-74452381D02*
X113309524Y-73452381D01*
X113071429Y-73452381D01*
X112928571Y-73500000D01*
X112833333Y-73595238D01*
X112785714Y-73690476D01*
X112738095Y-73880952D01*
X112738095Y-74023810D01*
X112785714Y-74214286D01*
X112833333Y-74309524D01*
X112928571Y-74404762D01*
X113071429Y-74452381D01*
X113309524Y-74452381D01*
X111833333Y-73452381D02*
X112309524Y-73452381D01*
X112357143Y-73928571D01*
X112309524Y-73880952D01*
X112214286Y-73833333D01*
X111976190Y-73833333D01*
X111880952Y-73880952D01*
X111833333Y-73928571D01*
X111785714Y-74023810D01*
X111785714Y-74261905D01*
X111833333Y-74357143D01*
X111880952Y-74404762D01*
X111976190Y-74452381D01*
X112214286Y-74452381D01*
X112309524Y-74404762D01*
X112357143Y-74357143D01*
X174833333Y-74428571D02*
X175166667Y-74428571D01*
X175166667Y-74952381D02*
X175166667Y-73952381D01*
X174690476Y-73952381D01*
X174309524Y-74952381D02*
X174309524Y-73952381D01*
X174071429Y-73952381D01*
X173928571Y-74000000D01*
X173833333Y-74095238D01*
X173785714Y-74190476D01*
X173738095Y-74380952D01*
X173738095Y-74523810D01*
X173785714Y-74714286D01*
X173833333Y-74809524D01*
X173928571Y-74904762D01*
X174071429Y-74952381D01*
X174309524Y-74952381D01*
X172880952Y-73952381D02*
X173071429Y-73952381D01*
X173166667Y-74000000D01*
X173214286Y-74047619D01*
X173309524Y-74190476D01*
X173357143Y-74380952D01*
X173357143Y-74761905D01*
X173309524Y-74857143D01*
X173261905Y-74904762D01*
X173166667Y-74952381D01*
X172976190Y-74952381D01*
X172880952Y-74904762D01*
X172833333Y-74857143D01*
X172785714Y-74761905D01*
X172785714Y-74523810D01*
X172833333Y-74428571D01*
X172880952Y-74380952D01*
X172976190Y-74333333D01*
X173166667Y-74333333D01*
X173261905Y-74380952D01*
X173309524Y-74428571D01*
X173357143Y-74523810D01*
X110833333Y-144428571D02*
X111166667Y-144428571D01*
X111166667Y-144952381D02*
X111166667Y-143952381D01*
X110690476Y-143952381D01*
X110309524Y-144952381D02*
X110309524Y-143952381D01*
X110071429Y-143952381D01*
X109928571Y-144000000D01*
X109833333Y-144095238D01*
X109785714Y-144190476D01*
X109738095Y-144380952D01*
X109738095Y-144523810D01*
X109785714Y-144714286D01*
X109833333Y-144809524D01*
X109928571Y-144904762D01*
X110071429Y-144952381D01*
X110309524Y-144952381D01*
X109404762Y-143952381D02*
X108738095Y-143952381D01*
X109166667Y-144952381D01*
X172833333Y-146428571D02*
X173166667Y-146428571D01*
X173166667Y-146952381D02*
X173166667Y-145952381D01*
X172690476Y-145952381D01*
X172309524Y-146952381D02*
X172309524Y-145952381D01*
X172071429Y-145952381D01*
X171928571Y-146000000D01*
X171833333Y-146095238D01*
X171785714Y-146190476D01*
X171738095Y-146380952D01*
X171738095Y-146523810D01*
X171785714Y-146714286D01*
X171833333Y-146809524D01*
X171928571Y-146904762D01*
X172071429Y-146952381D01*
X172309524Y-146952381D01*
X171166667Y-146380952D02*
X171261905Y-146333333D01*
X171309524Y-146285714D01*
X171357143Y-146190476D01*
X171357143Y-146142857D01*
X171309524Y-146047619D01*
X171261905Y-146000000D01*
X171166667Y-145952381D01*
X170976190Y-145952381D01*
X170880952Y-146000000D01*
X170833333Y-146047619D01*
X170785714Y-146142857D01*
X170785714Y-146190476D01*
X170833333Y-146285714D01*
X170880952Y-146333333D01*
X170976190Y-146380952D01*
X171166667Y-146380952D01*
X171261905Y-146428571D01*
X171309524Y-146476190D01*
X171357143Y-146571429D01*
X171357143Y-146761905D01*
X171309524Y-146857143D01*
X171261905Y-146904762D01*
X171166667Y-146952381D01*
X170976190Y-146952381D01*
X170880952Y-146904762D01*
X170833333Y-146857143D01*
X170785714Y-146761905D01*
X170785714Y-146571429D01*
X170833333Y-146476190D01*
X170880952Y-146428571D01*
X170976190Y-146380952D01*
M02*
