G04 #@! TF.FileFunction,Drawing*
%FSLAX46Y46*%
G04 Gerber Fmt 4.6, Leading zero omitted, Abs format (unit mm)*
G04 Created by KiCad (PCBNEW 4.0.2-stable) date 21/01/2018 10:23:35*
%MOMM*%
G01*
G04 APERTURE LIST*
%ADD10C,0.100000*%
%ADD11C,0.150000*%
%ADD12C,0.300000*%
%ADD13C,0.200000*%
G04 APERTURE END LIST*
D10*
D11*
X105666666Y-144500000D02*
G75*
G03X105666666Y-144500000I-1666666J0D01*
G01*
X101500000Y-144500000D02*
X106500000Y-144500000D01*
X104000000Y-142000000D02*
X104000000Y-147000000D01*
D12*
X93621429Y-142285715D02*
X92621429Y-142285715D01*
X94192857Y-141928572D02*
X93121429Y-141571429D01*
X93121429Y-142500001D01*
X92692857Y-143142857D02*
X92621429Y-143142857D01*
X92478571Y-143071429D01*
X92407143Y-143000000D01*
X94121429Y-144071429D02*
X94121429Y-144214286D01*
X94050000Y-144357143D01*
X93978571Y-144428572D01*
X93835714Y-144500001D01*
X93550000Y-144571429D01*
X93192857Y-144571429D01*
X92907143Y-144500001D01*
X92764286Y-144428572D01*
X92692857Y-144357143D01*
X92621429Y-144214286D01*
X92621429Y-144071429D01*
X92692857Y-143928572D01*
X92764286Y-143857143D01*
X92907143Y-143785715D01*
X93192857Y-143714286D01*
X93550000Y-143714286D01*
X93835714Y-143785715D01*
X93978571Y-143857143D01*
X94050000Y-143928572D01*
X94121429Y-144071429D01*
X94121429Y-145500000D02*
X94121429Y-145642857D01*
X94050000Y-145785714D01*
X93978571Y-145857143D01*
X93835714Y-145928572D01*
X93550000Y-146000000D01*
X93192857Y-146000000D01*
X92907143Y-145928572D01*
X92764286Y-145857143D01*
X92692857Y-145785714D01*
X92621429Y-145642857D01*
X92621429Y-145500000D01*
X92692857Y-145357143D01*
X92764286Y-145285714D01*
X92907143Y-145214286D01*
X93192857Y-145142857D01*
X93550000Y-145142857D01*
X93835714Y-145214286D01*
X93978571Y-145285714D01*
X94050000Y-145357143D01*
X94121429Y-145500000D01*
X94121429Y-146928571D02*
X94121429Y-147071428D01*
X94050000Y-147214285D01*
X93978571Y-147285714D01*
X93835714Y-147357143D01*
X93550000Y-147428571D01*
X93192857Y-147428571D01*
X92907143Y-147357143D01*
X92764286Y-147285714D01*
X92692857Y-147214285D01*
X92621429Y-147071428D01*
X92621429Y-146928571D01*
X92692857Y-146785714D01*
X92764286Y-146714285D01*
X92907143Y-146642857D01*
X93192857Y-146571428D01*
X93550000Y-146571428D01*
X93835714Y-146642857D01*
X93978571Y-146714285D01*
X94050000Y-146785714D01*
X94121429Y-146928571D01*
X92621429Y-148071428D02*
X93621429Y-148071428D01*
X93478571Y-148071428D02*
X93550000Y-148142856D01*
X93621429Y-148285714D01*
X93621429Y-148499999D01*
X93550000Y-148642856D01*
X93407143Y-148714285D01*
X92621429Y-148714285D01*
X93407143Y-148714285D02*
X93550000Y-148785714D01*
X93621429Y-148928571D01*
X93621429Y-149142856D01*
X93550000Y-149285714D01*
X93407143Y-149357142D01*
X92621429Y-149357142D01*
X92621429Y-150071428D02*
X93621429Y-150071428D01*
X93478571Y-150071428D02*
X93550000Y-150142856D01*
X93621429Y-150285714D01*
X93621429Y-150499999D01*
X93550000Y-150642856D01*
X93407143Y-150714285D01*
X92621429Y-150714285D01*
X93407143Y-150714285D02*
X93550000Y-150785714D01*
X93621429Y-150928571D01*
X93621429Y-151142856D01*
X93550000Y-151285714D01*
X93407143Y-151357142D01*
X92621429Y-151357142D01*
X97300000Y-144500000D02*
X97300000Y-148500000D01*
X100000000Y-144500000D02*
X94600000Y-144500000D01*
X100000000Y-148500000D02*
X94600000Y-148500000D01*
X97300000Y-148500000D02*
X96713579Y-147373496D01*
X97300000Y-148500000D02*
X97886421Y-147373496D01*
X97300000Y-144500000D02*
X96713579Y-145626504D01*
X97300000Y-144500000D02*
X97886421Y-145626504D01*
D13*
X104800000Y-155600000D02*
X115100000Y-155600000D01*
X102000000Y-152800000D02*
X104800000Y-155600000D01*
D12*
X105685715Y-153978571D02*
X105685715Y-154978571D01*
X105328572Y-153407143D02*
X104971429Y-154478571D01*
X105900001Y-154478571D01*
X106542857Y-154907143D02*
X106542857Y-154978571D01*
X106471429Y-155121429D01*
X106400000Y-155192857D01*
X107471429Y-153478571D02*
X107614286Y-153478571D01*
X107757143Y-153550000D01*
X107828572Y-153621429D01*
X107900001Y-153764286D01*
X107971429Y-154050000D01*
X107971429Y-154407143D01*
X107900001Y-154692857D01*
X107828572Y-154835714D01*
X107757143Y-154907143D01*
X107614286Y-154978571D01*
X107471429Y-154978571D01*
X107328572Y-154907143D01*
X107257143Y-154835714D01*
X107185715Y-154692857D01*
X107114286Y-154407143D01*
X107114286Y-154050000D01*
X107185715Y-153764286D01*
X107257143Y-153621429D01*
X107328572Y-153550000D01*
X107471429Y-153478571D01*
X108900000Y-153478571D02*
X109042857Y-153478571D01*
X109185714Y-153550000D01*
X109257143Y-153621429D01*
X109328572Y-153764286D01*
X109400000Y-154050000D01*
X109400000Y-154407143D01*
X109328572Y-154692857D01*
X109257143Y-154835714D01*
X109185714Y-154907143D01*
X109042857Y-154978571D01*
X108900000Y-154978571D01*
X108757143Y-154907143D01*
X108685714Y-154835714D01*
X108614286Y-154692857D01*
X108542857Y-154407143D01*
X108542857Y-154050000D01*
X108614286Y-153764286D01*
X108685714Y-153621429D01*
X108757143Y-153550000D01*
X108900000Y-153478571D01*
X110328571Y-153478571D02*
X110471428Y-153478571D01*
X110614285Y-153550000D01*
X110685714Y-153621429D01*
X110757143Y-153764286D01*
X110828571Y-154050000D01*
X110828571Y-154407143D01*
X110757143Y-154692857D01*
X110685714Y-154835714D01*
X110614285Y-154907143D01*
X110471428Y-154978571D01*
X110328571Y-154978571D01*
X110185714Y-154907143D01*
X110114285Y-154835714D01*
X110042857Y-154692857D01*
X109971428Y-154407143D01*
X109971428Y-154050000D01*
X110042857Y-153764286D01*
X110114285Y-153621429D01*
X110185714Y-153550000D01*
X110328571Y-153478571D01*
X111471428Y-154978571D02*
X111471428Y-153978571D01*
X111471428Y-154121429D02*
X111542856Y-154050000D01*
X111685714Y-153978571D01*
X111899999Y-153978571D01*
X112042856Y-154050000D01*
X112114285Y-154192857D01*
X112114285Y-154978571D01*
X112114285Y-154192857D02*
X112185714Y-154050000D01*
X112328571Y-153978571D01*
X112542856Y-153978571D01*
X112685714Y-154050000D01*
X112757142Y-154192857D01*
X112757142Y-154978571D01*
X113471428Y-154978571D02*
X113471428Y-153978571D01*
X113471428Y-154121429D02*
X113542856Y-154050000D01*
X113685714Y-153978571D01*
X113899999Y-153978571D01*
X114042856Y-154050000D01*
X114114285Y-154192857D01*
X114114285Y-154978571D01*
X114114285Y-154192857D02*
X114185714Y-154050000D01*
X114328571Y-153978571D01*
X114542856Y-153978571D01*
X114685714Y-154050000D01*
X114757142Y-154192857D01*
X114757142Y-154978571D01*
X104000000Y-151400000D02*
X100000000Y-151400000D01*
X104000000Y-148400000D02*
X104000000Y-154100000D01*
X100000000Y-148400000D02*
X100000000Y-154100000D01*
X100000000Y-151400000D02*
X101126504Y-150813579D01*
X100000000Y-151400000D02*
X101126504Y-151986421D01*
X104000000Y-151400000D02*
X102873496Y-150813579D01*
X104000000Y-151400000D02*
X102873496Y-151986421D01*
D13*
X93600000Y-67500000D02*
X93600000Y-56700000D01*
X96200000Y-70100000D02*
X93600000Y-67500000D01*
D12*
X97785715Y-60978571D02*
X97785715Y-61978571D01*
X97428572Y-60407143D02*
X97071429Y-61478571D01*
X98000001Y-61478571D01*
X98642857Y-61907143D02*
X98642857Y-61978571D01*
X98571429Y-62121429D01*
X98500000Y-62192857D01*
X99571429Y-60478571D02*
X99714286Y-60478571D01*
X99857143Y-60550000D01*
X99928572Y-60621429D01*
X100000001Y-60764286D01*
X100071429Y-61050000D01*
X100071429Y-61407143D01*
X100000001Y-61692857D01*
X99928572Y-61835714D01*
X99857143Y-61907143D01*
X99714286Y-61978571D01*
X99571429Y-61978571D01*
X99428572Y-61907143D01*
X99357143Y-61835714D01*
X99285715Y-61692857D01*
X99214286Y-61407143D01*
X99214286Y-61050000D01*
X99285715Y-60764286D01*
X99357143Y-60621429D01*
X99428572Y-60550000D01*
X99571429Y-60478571D01*
X101000000Y-60478571D02*
X101142857Y-60478571D01*
X101285714Y-60550000D01*
X101357143Y-60621429D01*
X101428572Y-60764286D01*
X101500000Y-61050000D01*
X101500000Y-61407143D01*
X101428572Y-61692857D01*
X101357143Y-61835714D01*
X101285714Y-61907143D01*
X101142857Y-61978571D01*
X101000000Y-61978571D01*
X100857143Y-61907143D01*
X100785714Y-61835714D01*
X100714286Y-61692857D01*
X100642857Y-61407143D01*
X100642857Y-61050000D01*
X100714286Y-60764286D01*
X100785714Y-60621429D01*
X100857143Y-60550000D01*
X101000000Y-60478571D01*
X102428571Y-60478571D02*
X102571428Y-60478571D01*
X102714285Y-60550000D01*
X102785714Y-60621429D01*
X102857143Y-60764286D01*
X102928571Y-61050000D01*
X102928571Y-61407143D01*
X102857143Y-61692857D01*
X102785714Y-61835714D01*
X102714285Y-61907143D01*
X102571428Y-61978571D01*
X102428571Y-61978571D01*
X102285714Y-61907143D01*
X102214285Y-61835714D01*
X102142857Y-61692857D01*
X102071428Y-61407143D01*
X102071428Y-61050000D01*
X102142857Y-60764286D01*
X102214285Y-60621429D01*
X102285714Y-60550000D01*
X102428571Y-60478571D01*
X103571428Y-61978571D02*
X103571428Y-60978571D01*
X103571428Y-61121429D02*
X103642856Y-61050000D01*
X103785714Y-60978571D01*
X103999999Y-60978571D01*
X104142856Y-61050000D01*
X104214285Y-61192857D01*
X104214285Y-61978571D01*
X104214285Y-61192857D02*
X104285714Y-61050000D01*
X104428571Y-60978571D01*
X104642856Y-60978571D01*
X104785714Y-61050000D01*
X104857142Y-61192857D01*
X104857142Y-61978571D01*
X105571428Y-61978571D02*
X105571428Y-60978571D01*
X105571428Y-61121429D02*
X105642856Y-61050000D01*
X105785714Y-60978571D01*
X105999999Y-60978571D01*
X106142856Y-61050000D01*
X106214285Y-61192857D01*
X106214285Y-61978571D01*
X106214285Y-61192857D02*
X106285714Y-61050000D01*
X106428571Y-60978571D01*
X106642856Y-60978571D01*
X106785714Y-61050000D01*
X106857142Y-61192857D01*
X106857142Y-61978571D01*
X104000000Y-65300000D02*
X100000000Y-65300000D01*
X104000000Y-68000000D02*
X104000000Y-62600000D01*
X100000000Y-68000000D02*
X100000000Y-62600000D01*
X100000000Y-65300000D02*
X101126504Y-64713579D01*
X100000000Y-65300000D02*
X101126504Y-65886421D01*
X104000000Y-65300000D02*
X102873496Y-64713579D01*
X104000000Y-65300000D02*
X102873496Y-65886421D01*
D13*
X181800000Y-62400000D02*
X172000000Y-62400000D01*
X183800000Y-64400000D02*
X181800000Y-62400000D01*
D12*
X172485715Y-60878571D02*
X172485715Y-61878571D01*
X172128572Y-60307143D02*
X171771429Y-61378571D01*
X172700001Y-61378571D01*
X173342857Y-61807143D02*
X173342857Y-61878571D01*
X173271429Y-62021429D01*
X173200000Y-62092857D01*
X174271429Y-60378571D02*
X174414286Y-60378571D01*
X174557143Y-60450000D01*
X174628572Y-60521429D01*
X174700001Y-60664286D01*
X174771429Y-60950000D01*
X174771429Y-61307143D01*
X174700001Y-61592857D01*
X174628572Y-61735714D01*
X174557143Y-61807143D01*
X174414286Y-61878571D01*
X174271429Y-61878571D01*
X174128572Y-61807143D01*
X174057143Y-61735714D01*
X173985715Y-61592857D01*
X173914286Y-61307143D01*
X173914286Y-60950000D01*
X173985715Y-60664286D01*
X174057143Y-60521429D01*
X174128572Y-60450000D01*
X174271429Y-60378571D01*
X175700000Y-60378571D02*
X175842857Y-60378571D01*
X175985714Y-60450000D01*
X176057143Y-60521429D01*
X176128572Y-60664286D01*
X176200000Y-60950000D01*
X176200000Y-61307143D01*
X176128572Y-61592857D01*
X176057143Y-61735714D01*
X175985714Y-61807143D01*
X175842857Y-61878571D01*
X175700000Y-61878571D01*
X175557143Y-61807143D01*
X175485714Y-61735714D01*
X175414286Y-61592857D01*
X175342857Y-61307143D01*
X175342857Y-60950000D01*
X175414286Y-60664286D01*
X175485714Y-60521429D01*
X175557143Y-60450000D01*
X175700000Y-60378571D01*
X177128571Y-60378571D02*
X177271428Y-60378571D01*
X177414285Y-60450000D01*
X177485714Y-60521429D01*
X177557143Y-60664286D01*
X177628571Y-60950000D01*
X177628571Y-61307143D01*
X177557143Y-61592857D01*
X177485714Y-61735714D01*
X177414285Y-61807143D01*
X177271428Y-61878571D01*
X177128571Y-61878571D01*
X176985714Y-61807143D01*
X176914285Y-61735714D01*
X176842857Y-61592857D01*
X176771428Y-61307143D01*
X176771428Y-60950000D01*
X176842857Y-60664286D01*
X176914285Y-60521429D01*
X176985714Y-60450000D01*
X177128571Y-60378571D01*
X178271428Y-61878571D02*
X178271428Y-60878571D01*
X178271428Y-61021429D02*
X178342856Y-60950000D01*
X178485714Y-60878571D01*
X178699999Y-60878571D01*
X178842856Y-60950000D01*
X178914285Y-61092857D01*
X178914285Y-61878571D01*
X178914285Y-61092857D02*
X178985714Y-60950000D01*
X179128571Y-60878571D01*
X179342856Y-60878571D01*
X179485714Y-60950000D01*
X179557142Y-61092857D01*
X179557142Y-61878571D01*
X180271428Y-61878571D02*
X180271428Y-60878571D01*
X180271428Y-61021429D02*
X180342856Y-60950000D01*
X180485714Y-60878571D01*
X180699999Y-60878571D01*
X180842856Y-60950000D01*
X180914285Y-61092857D01*
X180914285Y-61878571D01*
X180914285Y-61092857D02*
X180985714Y-60950000D01*
X181128571Y-60878571D01*
X181342856Y-60878571D01*
X181485714Y-60950000D01*
X181557142Y-61092857D01*
X181557142Y-61878571D01*
X181800000Y-65400000D02*
X185800000Y-65400000D01*
X181800000Y-68000000D02*
X181800000Y-62700000D01*
X185800000Y-68000000D02*
X185800000Y-62700000D01*
X185800000Y-65400000D02*
X184673496Y-65986421D01*
X185800000Y-65400000D02*
X184673496Y-64813579D01*
X181800000Y-65400000D02*
X182926504Y-65986421D01*
X181800000Y-65400000D02*
X182926504Y-64813579D01*
X91628571Y-80435713D02*
X91628571Y-81292856D01*
X91628571Y-80864284D02*
X90128571Y-80864284D01*
X90342857Y-81007141D01*
X90485714Y-81149999D01*
X90557143Y-81292856D01*
X90128571Y-79078570D02*
X90128571Y-79792856D01*
X90842857Y-79864285D01*
X90771429Y-79792856D01*
X90700000Y-79649999D01*
X90700000Y-79292856D01*
X90771429Y-79149999D01*
X90842857Y-79078570D01*
X90985714Y-79007142D01*
X91342857Y-79007142D01*
X91485714Y-79078570D01*
X91557143Y-79149999D01*
X91628571Y-79292856D01*
X91628571Y-79649999D01*
X91557143Y-79792856D01*
X91485714Y-79864285D01*
X91557143Y-78292857D02*
X91628571Y-78292857D01*
X91771429Y-78364285D01*
X91842857Y-78435714D01*
X90128571Y-77792856D02*
X90128571Y-76864285D01*
X90700000Y-77364285D01*
X90700000Y-77149999D01*
X90771429Y-77007142D01*
X90842857Y-76935713D01*
X90985714Y-76864285D01*
X91342857Y-76864285D01*
X91485714Y-76935713D01*
X91557143Y-77007142D01*
X91628571Y-77149999D01*
X91628571Y-77578571D01*
X91557143Y-77721428D01*
X91485714Y-77792856D01*
X90128571Y-75935714D02*
X90128571Y-75792857D01*
X90200000Y-75650000D01*
X90271429Y-75578571D01*
X90414286Y-75507142D01*
X90700000Y-75435714D01*
X91057143Y-75435714D01*
X91342857Y-75507142D01*
X91485714Y-75578571D01*
X91557143Y-75650000D01*
X91628571Y-75792857D01*
X91628571Y-75935714D01*
X91557143Y-76078571D01*
X91485714Y-76150000D01*
X91342857Y-76221428D01*
X91057143Y-76292857D01*
X90700000Y-76292857D01*
X90414286Y-76221428D01*
X90271429Y-76150000D01*
X90200000Y-76078571D01*
X90128571Y-75935714D01*
X90128571Y-74507143D02*
X90128571Y-74364286D01*
X90200000Y-74221429D01*
X90271429Y-74150000D01*
X90414286Y-74078571D01*
X90700000Y-74007143D01*
X91057143Y-74007143D01*
X91342857Y-74078571D01*
X91485714Y-74150000D01*
X91557143Y-74221429D01*
X91628571Y-74364286D01*
X91628571Y-74507143D01*
X91557143Y-74650000D01*
X91485714Y-74721429D01*
X91342857Y-74792857D01*
X91057143Y-74864286D01*
X90700000Y-74864286D01*
X90414286Y-74792857D01*
X90271429Y-74721429D01*
X90200000Y-74650000D01*
X90128571Y-74507143D01*
X91628571Y-73364286D02*
X90628571Y-73364286D01*
X90771429Y-73364286D02*
X90700000Y-73292858D01*
X90628571Y-73150000D01*
X90628571Y-72935715D01*
X90700000Y-72792858D01*
X90842857Y-72721429D01*
X91628571Y-72721429D01*
X90842857Y-72721429D02*
X90700000Y-72650000D01*
X90628571Y-72507143D01*
X90628571Y-72292858D01*
X90700000Y-72150000D01*
X90842857Y-72078572D01*
X91628571Y-72078572D01*
X91628571Y-71364286D02*
X90628571Y-71364286D01*
X90771429Y-71364286D02*
X90700000Y-71292858D01*
X90628571Y-71150000D01*
X90628571Y-70935715D01*
X90700000Y-70792858D01*
X90842857Y-70721429D01*
X91628571Y-70721429D01*
X90842857Y-70721429D02*
X90700000Y-70650000D01*
X90628571Y-70507143D01*
X90628571Y-70292858D01*
X90700000Y-70150000D01*
X90842857Y-70078572D01*
X91628571Y-70078572D01*
X92300000Y-83300000D02*
X92300000Y-68000000D01*
X106700000Y-83300000D02*
X89600000Y-83300000D01*
X106700000Y-68000000D02*
X89600000Y-68000000D01*
X92300000Y-68000000D02*
X92886421Y-69126504D01*
X92300000Y-68000000D02*
X91713579Y-69126504D01*
X92300000Y-83300000D02*
X92886421Y-82173496D01*
X92300000Y-83300000D02*
X91713579Y-82173496D01*
X92278571Y-66214285D02*
X93278571Y-66214285D01*
X91707143Y-66571428D02*
X92778571Y-66928571D01*
X92778571Y-65999999D01*
X93207143Y-65357143D02*
X93278571Y-65357143D01*
X93421429Y-65428571D01*
X93492857Y-65500000D01*
X91778571Y-64428571D02*
X91778571Y-64285714D01*
X91850000Y-64142857D01*
X91921429Y-64071428D01*
X92064286Y-63999999D01*
X92350000Y-63928571D01*
X92707143Y-63928571D01*
X92992857Y-63999999D01*
X93135714Y-64071428D01*
X93207143Y-64142857D01*
X93278571Y-64285714D01*
X93278571Y-64428571D01*
X93207143Y-64571428D01*
X93135714Y-64642857D01*
X92992857Y-64714285D01*
X92707143Y-64785714D01*
X92350000Y-64785714D01*
X92064286Y-64714285D01*
X91921429Y-64642857D01*
X91850000Y-64571428D01*
X91778571Y-64428571D01*
X91778571Y-63000000D02*
X91778571Y-62857143D01*
X91850000Y-62714286D01*
X91921429Y-62642857D01*
X92064286Y-62571428D01*
X92350000Y-62500000D01*
X92707143Y-62500000D01*
X92992857Y-62571428D01*
X93135714Y-62642857D01*
X93207143Y-62714286D01*
X93278571Y-62857143D01*
X93278571Y-63000000D01*
X93207143Y-63142857D01*
X93135714Y-63214286D01*
X92992857Y-63285714D01*
X92707143Y-63357143D01*
X92350000Y-63357143D01*
X92064286Y-63285714D01*
X91921429Y-63214286D01*
X91850000Y-63142857D01*
X91778571Y-63000000D01*
X91778571Y-61571429D02*
X91778571Y-61428572D01*
X91850000Y-61285715D01*
X91921429Y-61214286D01*
X92064286Y-61142857D01*
X92350000Y-61071429D01*
X92707143Y-61071429D01*
X92992857Y-61142857D01*
X93135714Y-61214286D01*
X93207143Y-61285715D01*
X93278571Y-61428572D01*
X93278571Y-61571429D01*
X93207143Y-61714286D01*
X93135714Y-61785715D01*
X92992857Y-61857143D01*
X92707143Y-61928572D01*
X92350000Y-61928572D01*
X92064286Y-61857143D01*
X91921429Y-61785715D01*
X91850000Y-61714286D01*
X91778571Y-61571429D01*
X93278571Y-60428572D02*
X92278571Y-60428572D01*
X92421429Y-60428572D02*
X92350000Y-60357144D01*
X92278571Y-60214286D01*
X92278571Y-60000001D01*
X92350000Y-59857144D01*
X92492857Y-59785715D01*
X93278571Y-59785715D01*
X92492857Y-59785715D02*
X92350000Y-59714286D01*
X92278571Y-59571429D01*
X92278571Y-59357144D01*
X92350000Y-59214286D01*
X92492857Y-59142858D01*
X93278571Y-59142858D01*
X93278571Y-58428572D02*
X92278571Y-58428572D01*
X92421429Y-58428572D02*
X92350000Y-58357144D01*
X92278571Y-58214286D01*
X92278571Y-58000001D01*
X92350000Y-57857144D01*
X92492857Y-57785715D01*
X93278571Y-57785715D01*
X92492857Y-57785715D02*
X92350000Y-57714286D01*
X92278571Y-57571429D01*
X92278571Y-57357144D01*
X92350000Y-57214286D01*
X92492857Y-57142858D01*
X93278571Y-57142858D01*
X97000000Y-72000000D02*
X97000000Y-68000000D01*
X104000000Y-72000000D02*
X94300000Y-72000000D01*
X104000000Y-68000000D02*
X94300000Y-68000000D01*
X97000000Y-68000000D02*
X97586421Y-69126504D01*
X97000000Y-68000000D02*
X96413579Y-69126504D01*
X97000000Y-72000000D02*
X97586421Y-70873496D01*
X97000000Y-72000000D02*
X96413579Y-70873496D01*
X195627193Y-83107313D02*
X195625155Y-83964453D01*
X195626174Y-83535882D02*
X194126178Y-83532317D01*
X194340124Y-83675683D01*
X194482641Y-83818880D01*
X194553730Y-83961906D01*
X194271413Y-82532660D02*
X194200154Y-82461061D01*
X194129065Y-82318035D01*
X194129914Y-81960893D01*
X194201682Y-81818206D01*
X194273281Y-81746947D01*
X194416307Y-81675859D01*
X194559164Y-81676199D01*
X194773279Y-81748136D01*
X195628381Y-82607314D01*
X195630589Y-81678746D01*
X195560859Y-80964293D02*
X195632287Y-80964463D01*
X195774974Y-81036230D01*
X195846232Y-81107829D01*
X194135347Y-79675185D02*
X194134668Y-79960899D01*
X194205757Y-80103925D01*
X194277016Y-80175524D01*
X194490961Y-80318890D01*
X194776505Y-80390998D01*
X195347932Y-80392356D01*
X195490958Y-80321267D01*
X195562557Y-80250009D01*
X195634324Y-80107321D01*
X195635003Y-79821608D01*
X195563915Y-79678581D01*
X195492656Y-79606983D01*
X195349969Y-79535215D01*
X194992827Y-79534366D01*
X194849801Y-79605455D01*
X194778203Y-79676714D01*
X194706435Y-79819400D01*
X194705756Y-80105114D01*
X194776845Y-80248141D01*
X194848103Y-80319739D01*
X194990790Y-80391507D01*
X194279903Y-78961242D02*
X194208644Y-78889644D01*
X194137555Y-78746617D01*
X194138404Y-78389475D01*
X194210172Y-78246788D01*
X194281771Y-78175529D01*
X194424797Y-78104441D01*
X194567654Y-78104781D01*
X194781769Y-78176718D01*
X195636871Y-79035896D01*
X195639078Y-78107328D01*
X194141290Y-77175194D02*
X194141630Y-77032337D01*
X194213398Y-76889650D01*
X194284997Y-76818391D01*
X194428023Y-76747302D01*
X194713906Y-76676553D01*
X195071048Y-76677402D01*
X195356591Y-76749509D01*
X195499278Y-76821278D01*
X195570537Y-76892876D01*
X195641625Y-77035903D01*
X195641286Y-77178759D01*
X195569518Y-77321446D01*
X195497920Y-77392705D01*
X195354893Y-77463793D01*
X195069010Y-77534543D01*
X194711868Y-77533694D01*
X194426325Y-77461586D01*
X194283638Y-77389819D01*
X194212379Y-77318220D01*
X194141290Y-77175194D01*
X195644003Y-76035906D02*
X194644005Y-76033528D01*
X194786863Y-76033868D02*
X194715604Y-75962270D01*
X194644515Y-75819243D01*
X194645024Y-75604959D01*
X194716793Y-75462272D01*
X194859819Y-75391183D01*
X195645531Y-75393050D01*
X194859819Y-75391183D02*
X194717132Y-75319414D01*
X194646043Y-75176388D01*
X194646552Y-74962103D01*
X194718321Y-74819416D01*
X194861347Y-74748327D01*
X195647059Y-74750195D01*
X195648757Y-74035911D02*
X194648760Y-74033534D01*
X194791617Y-74033874D02*
X194720358Y-73962276D01*
X194649269Y-73819249D01*
X194649779Y-73604964D01*
X194721547Y-73462277D01*
X194864573Y-73391188D01*
X195650285Y-73393056D01*
X194864573Y-73391188D02*
X194721887Y-73319420D01*
X194650797Y-73176393D01*
X194651307Y-72962109D01*
X194723075Y-72819421D01*
X194866102Y-72748333D01*
X195651813Y-72750201D01*
X193008487Y-72026169D02*
X192978487Y-84646169D01*
X182000000Y-72000000D02*
X195708479Y-72032587D01*
X181970000Y-84620000D02*
X195678479Y-84652587D01*
X192978487Y-84646169D02*
X192394746Y-83518274D01*
X192978487Y-84646169D02*
X193567584Y-83521062D01*
X193008487Y-72026169D02*
X192419390Y-73151276D01*
X193008487Y-72026169D02*
X193592228Y-73154064D01*
D13*
X191000000Y-69000000D02*
X191000000Y-57000000D01*
X192000000Y-70000000D02*
X191000000Y-69000000D01*
D12*
X189678571Y-66214285D02*
X190678571Y-66214285D01*
X189107143Y-66571428D02*
X190178571Y-66928571D01*
X190178571Y-65999999D01*
X190607143Y-65357143D02*
X190678571Y-65357143D01*
X190821429Y-65428571D01*
X190892857Y-65500000D01*
X189178571Y-64428571D02*
X189178571Y-64285714D01*
X189250000Y-64142857D01*
X189321429Y-64071428D01*
X189464286Y-63999999D01*
X189750000Y-63928571D01*
X190107143Y-63928571D01*
X190392857Y-63999999D01*
X190535714Y-64071428D01*
X190607143Y-64142857D01*
X190678571Y-64285714D01*
X190678571Y-64428571D01*
X190607143Y-64571428D01*
X190535714Y-64642857D01*
X190392857Y-64714285D01*
X190107143Y-64785714D01*
X189750000Y-64785714D01*
X189464286Y-64714285D01*
X189321429Y-64642857D01*
X189250000Y-64571428D01*
X189178571Y-64428571D01*
X189178571Y-63000000D02*
X189178571Y-62857143D01*
X189250000Y-62714286D01*
X189321429Y-62642857D01*
X189464286Y-62571428D01*
X189750000Y-62500000D01*
X190107143Y-62500000D01*
X190392857Y-62571428D01*
X190535714Y-62642857D01*
X190607143Y-62714286D01*
X190678571Y-62857143D01*
X190678571Y-63000000D01*
X190607143Y-63142857D01*
X190535714Y-63214286D01*
X190392857Y-63285714D01*
X190107143Y-63357143D01*
X189750000Y-63357143D01*
X189464286Y-63285714D01*
X189321429Y-63214286D01*
X189250000Y-63142857D01*
X189178571Y-63000000D01*
X189178571Y-61571429D02*
X189178571Y-61428572D01*
X189250000Y-61285715D01*
X189321429Y-61214286D01*
X189464286Y-61142857D01*
X189750000Y-61071429D01*
X190107143Y-61071429D01*
X190392857Y-61142857D01*
X190535714Y-61214286D01*
X190607143Y-61285715D01*
X190678571Y-61428572D01*
X190678571Y-61571429D01*
X190607143Y-61714286D01*
X190535714Y-61785715D01*
X190392857Y-61857143D01*
X190107143Y-61928572D01*
X189750000Y-61928572D01*
X189464286Y-61857143D01*
X189321429Y-61785715D01*
X189250000Y-61714286D01*
X189178571Y-61571429D01*
X190678571Y-60428572D02*
X189678571Y-60428572D01*
X189821429Y-60428572D02*
X189750000Y-60357144D01*
X189678571Y-60214286D01*
X189678571Y-60000001D01*
X189750000Y-59857144D01*
X189892857Y-59785715D01*
X190678571Y-59785715D01*
X189892857Y-59785715D02*
X189750000Y-59714286D01*
X189678571Y-59571429D01*
X189678571Y-59357144D01*
X189750000Y-59214286D01*
X189892857Y-59142858D01*
X190678571Y-59142858D01*
X190678571Y-58428572D02*
X189678571Y-58428572D01*
X189821429Y-58428572D02*
X189750000Y-58357144D01*
X189678571Y-58214286D01*
X189678571Y-58000001D01*
X189750000Y-57857144D01*
X189892857Y-57785715D01*
X190678571Y-57785715D01*
X189892857Y-57785715D02*
X189750000Y-57714286D01*
X189678571Y-57571429D01*
X189678571Y-57357144D01*
X189750000Y-57214286D01*
X189892857Y-57142858D01*
X190678571Y-57142858D01*
X193000000Y-72000000D02*
X193000000Y-68000000D01*
X182000000Y-72000000D02*
X195700000Y-72000000D01*
X182000000Y-68000000D02*
X195700000Y-68000000D01*
X193000000Y-68000000D02*
X193586421Y-69126504D01*
X193000000Y-68000000D02*
X192413579Y-69126504D01*
X193000000Y-72000000D02*
X193586421Y-70873496D01*
X193000000Y-72000000D02*
X192413579Y-70873496D01*
X203564776Y-102798466D02*
X203636169Y-102655590D01*
X203707580Y-102584144D01*
X203850420Y-102512680D01*
X203921848Y-102512662D01*
X204064722Y-102584056D01*
X204136169Y-102655466D01*
X204207634Y-102798306D01*
X204207705Y-103084020D01*
X204136311Y-103226895D01*
X204064900Y-103298342D01*
X203922061Y-103369805D01*
X203850633Y-103369823D01*
X203707758Y-103298430D01*
X203636311Y-103227019D01*
X203564847Y-103084180D01*
X203564776Y-102798466D01*
X203493312Y-102655626D01*
X203421865Y-102584215D01*
X203278991Y-102512822D01*
X202993277Y-102512893D01*
X202850437Y-102584357D01*
X202779026Y-102655803D01*
X202707634Y-102798679D01*
X202707705Y-103084393D01*
X202779168Y-103227232D01*
X202850615Y-103298643D01*
X202993490Y-103370036D01*
X203279204Y-103369965D01*
X203422043Y-103298501D01*
X203493454Y-103227055D01*
X203564847Y-103084180D01*
X204208006Y-104298305D02*
X204208042Y-104441162D01*
X204136648Y-104584037D01*
X204065237Y-104655483D01*
X203922398Y-104726948D01*
X203636702Y-104798447D01*
X203279559Y-104798536D01*
X202993827Y-104727179D01*
X202850952Y-104655785D01*
X202779505Y-104584374D01*
X202708042Y-104441535D01*
X202708006Y-104298678D01*
X202779399Y-104155803D01*
X202850810Y-104084356D01*
X202993649Y-104012893D01*
X203279346Y-103941393D01*
X203636489Y-103941304D01*
X203922220Y-104012662D01*
X204065095Y-104084054D01*
X204136542Y-104155466D01*
X204208006Y-104298305D01*
X202779736Y-105512945D02*
X202708308Y-105512963D01*
X202565433Y-105441570D01*
X202493987Y-105370159D01*
X203708628Y-106798429D02*
X202708628Y-106798678D01*
X204279967Y-106441144D02*
X203208450Y-106084267D01*
X203208681Y-107012839D01*
X203566018Y-107798465D02*
X203637412Y-107655589D01*
X203708823Y-107584143D01*
X203851662Y-107512679D01*
X203923090Y-107512661D01*
X204065965Y-107584054D01*
X204137412Y-107655465D01*
X204208876Y-107798305D01*
X204208947Y-108084019D01*
X204137554Y-108226894D01*
X204066142Y-108298340D01*
X203923303Y-108369804D01*
X203851875Y-108369822D01*
X203709000Y-108298429D01*
X203637554Y-108227018D01*
X203566089Y-108084179D01*
X203566018Y-107798465D01*
X203494555Y-107655624D01*
X203423108Y-107584214D01*
X203280233Y-107512821D01*
X202994519Y-107512892D01*
X202851680Y-107584356D01*
X202780269Y-107655802D01*
X202708876Y-107798678D01*
X202708947Y-108084392D01*
X202780411Y-108227231D01*
X202851858Y-108298642D01*
X202994732Y-108370035D01*
X203280446Y-108369964D01*
X203423286Y-108298500D01*
X203494697Y-108227053D01*
X203566089Y-108084179D01*
X204209249Y-109298304D02*
X204209284Y-109441161D01*
X204137891Y-109584036D01*
X204066480Y-109655482D01*
X203923640Y-109726947D01*
X203637944Y-109798446D01*
X203280801Y-109798535D01*
X202995070Y-109727178D01*
X202852195Y-109655784D01*
X202780748Y-109584373D01*
X202709285Y-109441534D01*
X202709249Y-109298677D01*
X202780642Y-109155802D01*
X202852053Y-109084355D01*
X202994892Y-109012892D01*
X203280588Y-108941392D01*
X203637731Y-108941303D01*
X203923463Y-109012661D01*
X204066338Y-109084053D01*
X204137784Y-109155465D01*
X204209249Y-109298304D01*
X202709533Y-110441534D02*
X203709533Y-110441285D01*
X203566675Y-110441321D02*
X203638122Y-110512731D01*
X203709586Y-110655571D01*
X203709640Y-110869856D01*
X203638246Y-111012731D01*
X203495407Y-111084195D01*
X202709693Y-111084391D01*
X203495407Y-111084195D02*
X203638282Y-111155589D01*
X203709746Y-111298428D01*
X203709799Y-111512713D01*
X203638406Y-111655589D01*
X203495567Y-111727052D01*
X202709853Y-111727248D01*
X202710030Y-112441533D02*
X203710030Y-112441285D01*
X203567172Y-112441320D02*
X203638619Y-112512731D01*
X203710083Y-112655571D01*
X203710137Y-112869856D01*
X203638743Y-113012731D01*
X203495904Y-113084195D01*
X202710190Y-113084390D01*
X203495904Y-113084195D02*
X203638779Y-113155589D01*
X203710243Y-113298428D01*
X203710296Y-113512713D01*
X203638903Y-113655589D01*
X203496064Y-113727052D01*
X202710350Y-113727247D01*
X202047536Y-148395987D02*
X202027536Y-67915987D01*
X185900000Y-148400000D02*
X204747536Y-148395316D01*
X185880000Y-67920000D02*
X204727536Y-67915316D01*
X202027536Y-67915987D02*
X202614237Y-69042345D01*
X202027536Y-67915987D02*
X201441395Y-69042636D01*
X202047536Y-148395987D02*
X202633677Y-147269338D01*
X202047536Y-148395987D02*
X201460835Y-147269629D01*
X137592859Y-162611429D02*
X137450001Y-162540000D01*
X137378573Y-162468571D01*
X137307144Y-162325714D01*
X137307144Y-162254286D01*
X137378573Y-162111429D01*
X137450001Y-162040000D01*
X137592859Y-161968571D01*
X137878573Y-161968571D01*
X138021430Y-162040000D01*
X138092859Y-162111429D01*
X138164287Y-162254286D01*
X138164287Y-162325714D01*
X138092859Y-162468571D01*
X138021430Y-162540000D01*
X137878573Y-162611429D01*
X137592859Y-162611429D01*
X137450001Y-162682857D01*
X137378573Y-162754286D01*
X137307144Y-162897143D01*
X137307144Y-163182857D01*
X137378573Y-163325714D01*
X137450001Y-163397143D01*
X137592859Y-163468571D01*
X137878573Y-163468571D01*
X138021430Y-163397143D01*
X138092859Y-163325714D01*
X138164287Y-163182857D01*
X138164287Y-162897143D01*
X138092859Y-162754286D01*
X138021430Y-162682857D01*
X137878573Y-162611429D01*
X139521430Y-161968571D02*
X138807144Y-161968571D01*
X138735715Y-162682857D01*
X138807144Y-162611429D01*
X138950001Y-162540000D01*
X139307144Y-162540000D01*
X139450001Y-162611429D01*
X139521430Y-162682857D01*
X139592858Y-162825714D01*
X139592858Y-163182857D01*
X139521430Y-163325714D01*
X139450001Y-163397143D01*
X139307144Y-163468571D01*
X138950001Y-163468571D01*
X138807144Y-163397143D01*
X138735715Y-163325714D01*
X140307143Y-163397143D02*
X140307143Y-163468571D01*
X140235715Y-163611429D01*
X140164286Y-163682857D01*
X141164287Y-162611429D02*
X141021429Y-162540000D01*
X140950001Y-162468571D01*
X140878572Y-162325714D01*
X140878572Y-162254286D01*
X140950001Y-162111429D01*
X141021429Y-162040000D01*
X141164287Y-161968571D01*
X141450001Y-161968571D01*
X141592858Y-162040000D01*
X141664287Y-162111429D01*
X141735715Y-162254286D01*
X141735715Y-162325714D01*
X141664287Y-162468571D01*
X141592858Y-162540000D01*
X141450001Y-162611429D01*
X141164287Y-162611429D01*
X141021429Y-162682857D01*
X140950001Y-162754286D01*
X140878572Y-162897143D01*
X140878572Y-163182857D01*
X140950001Y-163325714D01*
X141021429Y-163397143D01*
X141164287Y-163468571D01*
X141450001Y-163468571D01*
X141592858Y-163397143D01*
X141664287Y-163325714D01*
X141735715Y-163182857D01*
X141735715Y-162897143D01*
X141664287Y-162754286D01*
X141592858Y-162682857D01*
X141450001Y-162611429D01*
X143021429Y-161968571D02*
X142735715Y-161968571D01*
X142592858Y-162040000D01*
X142521429Y-162111429D01*
X142378572Y-162325714D01*
X142307143Y-162611429D01*
X142307143Y-163182857D01*
X142378572Y-163325714D01*
X142450000Y-163397143D01*
X142592858Y-163468571D01*
X142878572Y-163468571D01*
X143021429Y-163397143D01*
X143092858Y-163325714D01*
X143164286Y-163182857D01*
X143164286Y-162825714D01*
X143092858Y-162682857D01*
X143021429Y-162611429D01*
X142878572Y-162540000D01*
X142592858Y-162540000D01*
X142450000Y-162611429D01*
X142378572Y-162682857D01*
X142307143Y-162825714D01*
X144092857Y-161968571D02*
X144235714Y-161968571D01*
X144378571Y-162040000D01*
X144450000Y-162111429D01*
X144521429Y-162254286D01*
X144592857Y-162540000D01*
X144592857Y-162897143D01*
X144521429Y-163182857D01*
X144450000Y-163325714D01*
X144378571Y-163397143D01*
X144235714Y-163468571D01*
X144092857Y-163468571D01*
X143950000Y-163397143D01*
X143878571Y-163325714D01*
X143807143Y-163182857D01*
X143735714Y-162897143D01*
X143735714Y-162540000D01*
X143807143Y-162254286D01*
X143878571Y-162111429D01*
X143950000Y-162040000D01*
X144092857Y-161968571D01*
X145235714Y-163468571D02*
X145235714Y-162468571D01*
X145235714Y-162611429D02*
X145307142Y-162540000D01*
X145450000Y-162468571D01*
X145664285Y-162468571D01*
X145807142Y-162540000D01*
X145878571Y-162682857D01*
X145878571Y-163468571D01*
X145878571Y-162682857D02*
X145950000Y-162540000D01*
X146092857Y-162468571D01*
X146307142Y-162468571D01*
X146450000Y-162540000D01*
X146521428Y-162682857D01*
X146521428Y-163468571D01*
X147235714Y-163468571D02*
X147235714Y-162468571D01*
X147235714Y-162611429D02*
X147307142Y-162540000D01*
X147450000Y-162468571D01*
X147664285Y-162468571D01*
X147807142Y-162540000D01*
X147878571Y-162682857D01*
X147878571Y-163468571D01*
X147878571Y-162682857D02*
X147950000Y-162540000D01*
X148092857Y-162468571D01*
X148307142Y-162468571D01*
X148450000Y-162540000D01*
X148521428Y-162682857D01*
X148521428Y-163468571D01*
X100020000Y-161440000D02*
X185880000Y-161440000D01*
X100020000Y-148420000D02*
X100020000Y-164140000D01*
X185880000Y-148420000D02*
X185880000Y-164140000D01*
X185880000Y-161440000D02*
X184753496Y-162026421D01*
X185880000Y-161440000D02*
X184753496Y-160853579D01*
X100020000Y-161440000D02*
X101146504Y-162026421D01*
X100020000Y-161440000D02*
X101146504Y-160853579D01*
D13*
X119361948Y-115260000D02*
G75*
G03X119361948Y-115260000I-231948J0D01*
G01*
X119053452Y-87000000D02*
G75*
G03X119053452Y-87000000I-233452J0D01*
G01*
X147830000Y-112240000D02*
G75*
G03X147830000Y-112240000I-230000J0D01*
G01*
X139380227Y-126990000D02*
G75*
G03X139380227Y-126990000I-220227J0D01*
G01*
D11*
X100015000Y-67920000D02*
X185880000Y-67920000D01*
X100015000Y-67920000D02*
X100015000Y-148420000D01*
X185875000Y-148420000D02*
X185875000Y-67920000D01*
X100010000Y-148420000D02*
X185875000Y-148420000D01*
X141605000Y-76970000D02*
X99695000Y-76970000D01*
X141605000Y-137930000D02*
X99695000Y-137930000D01*
X141605000Y-76970000D02*
X141605000Y-137930000D01*
X99695000Y-137930000D02*
X99695000Y-76970000D01*
M02*
