G04 #@! TF.FileFunction,Copper,L2,Bot,Signal*
%FSLAX46Y46*%
G04 Gerber Fmt 4.6, Leading zero omitted, Abs format (unit mm)*
G04 Created by KiCad (PCBNEW 4.0.2-stable) date 21/01/2018 10:23:35*
%MOMM*%
G01*
G04 APERTURE LIST*
%ADD10C,0.100000*%
%ADD11C,0.150000*%
%ADD12C,0.254000*%
%ADD13R,2.000000X15.000000*%
%ADD14R,2.000000X1.524000*%
%ADD15O,2.000000X1.524000*%
%ADD16R,2.032000X1.727200*%
%ADD17O,2.032000X1.727200*%
%ADD18R,1.727200X2.032000*%
%ADD19O,1.727200X2.032000*%
%ADD20C,1.000000*%
%ADD21C,4.064000*%
%ADD22R,2.032000X2.032000*%
%ADD23O,2.032000X2.032000*%
%ADD24C,0.900000*%
%ADD25C,0.700000*%
%ADD26C,0.600000*%
%ADD27C,0.300000*%
%ADD28C,0.700000*%
%ADD29C,0.500000*%
%ADD30C,0.250000*%
%ADD31C,0.200000*%
G04 APERTURE END LIST*
D10*
D11*
X105666666Y-144500000D02*
G75*
G03X105666666Y-144500000I-1666666J0D01*
G01*
X101500000Y-144500000D02*
X106500000Y-144500000D01*
X104000000Y-142000000D02*
X104000000Y-147000000D01*
X100015000Y-67920000D02*
X185880000Y-67920000D01*
X100015000Y-67920000D02*
X100015000Y-148420000D01*
X185875000Y-148420000D02*
X185875000Y-67920000D01*
X100010000Y-148420000D02*
X185875000Y-148420000D01*
D12*
X165490666Y-145673429D02*
X165297142Y-146689429D01*
X165103619Y-145963714D01*
X164910095Y-146689429D01*
X164716571Y-145673429D01*
X164426285Y-145673429D02*
X164232761Y-146689429D01*
X164039238Y-145963714D01*
X163845714Y-146689429D01*
X163652190Y-145673429D01*
X163361904Y-145673429D02*
X163168380Y-146689429D01*
X162974857Y-145963714D01*
X162781333Y-146689429D01*
X162587809Y-145673429D01*
X162200761Y-146544286D02*
X162152380Y-146616857D01*
X162200761Y-146689429D01*
X162249142Y-146616857D01*
X162200761Y-146544286D01*
X162200761Y-146689429D01*
X161716951Y-145673429D02*
X161716951Y-147197429D01*
X161716951Y-145746000D02*
X161620189Y-145673429D01*
X161426666Y-145673429D01*
X161329904Y-145746000D01*
X161281523Y-145818571D01*
X161233142Y-145963714D01*
X161233142Y-146399143D01*
X161281523Y-146544286D01*
X161329904Y-146616857D01*
X161426666Y-146689429D01*
X161620189Y-146689429D01*
X161716951Y-146616857D01*
X160797713Y-146689429D02*
X160797713Y-145673429D01*
X160797713Y-145963714D02*
X160749332Y-145818571D01*
X160700951Y-145746000D01*
X160604189Y-145673429D01*
X160507428Y-145673429D01*
X160023618Y-146689429D02*
X160120380Y-146616857D01*
X160168761Y-146544286D01*
X160217142Y-146399143D01*
X160217142Y-145963714D01*
X160168761Y-145818571D01*
X160120380Y-145746000D01*
X160023618Y-145673429D01*
X159878476Y-145673429D01*
X159781714Y-145746000D01*
X159733333Y-145818571D01*
X159684952Y-145963714D01*
X159684952Y-146399143D01*
X159733333Y-146544286D01*
X159781714Y-146616857D01*
X159878476Y-146689429D01*
X160023618Y-146689429D01*
X159346285Y-145673429D02*
X159104380Y-146689429D01*
X158862476Y-145673429D02*
X159104380Y-146689429D01*
X159201142Y-147052286D01*
X159249523Y-147124857D01*
X159346285Y-147197429D01*
X158088381Y-146616857D02*
X158185143Y-146689429D01*
X158378666Y-146689429D01*
X158475428Y-146616857D01*
X158523809Y-146471714D01*
X158523809Y-145891143D01*
X158475428Y-145746000D01*
X158378666Y-145673429D01*
X158185143Y-145673429D01*
X158088381Y-145746000D01*
X158040000Y-145891143D01*
X158040000Y-146036286D01*
X158523809Y-146181429D01*
X157169143Y-146616857D02*
X157265905Y-146689429D01*
X157459428Y-146689429D01*
X157556190Y-146616857D01*
X157604571Y-146544286D01*
X157652952Y-146399143D01*
X157652952Y-145963714D01*
X157604571Y-145818571D01*
X157556190Y-145746000D01*
X157459428Y-145673429D01*
X157265905Y-145673429D01*
X157169143Y-145746000D01*
X156878857Y-145673429D02*
X156491809Y-145673429D01*
X156733714Y-145165429D02*
X156733714Y-146471714D01*
X156685333Y-146616857D01*
X156588571Y-146689429D01*
X156491809Y-146689429D01*
X156008000Y-146689429D02*
X156104762Y-146616857D01*
X156153143Y-146544286D01*
X156201524Y-146399143D01*
X156201524Y-145963714D01*
X156153143Y-145818571D01*
X156104762Y-145746000D01*
X156008000Y-145673429D01*
X155862858Y-145673429D01*
X155766096Y-145746000D01*
X155717715Y-145818571D01*
X155669334Y-145963714D01*
X155669334Y-146399143D01*
X155717715Y-146544286D01*
X155766096Y-146616857D01*
X155862858Y-146689429D01*
X156008000Y-146689429D01*
X155233905Y-146108857D02*
X154459810Y-146108857D01*
X153540572Y-146616857D02*
X153637334Y-146689429D01*
X153830857Y-146689429D01*
X153927619Y-146616857D01*
X153976000Y-146544286D01*
X154024381Y-146399143D01*
X154024381Y-145963714D01*
X153976000Y-145818571D01*
X153927619Y-145746000D01*
X153830857Y-145673429D01*
X153637334Y-145673429D01*
X153540572Y-145746000D01*
X153105143Y-146689429D02*
X153105143Y-145673429D01*
X153105143Y-145165429D02*
X153153524Y-145238000D01*
X153105143Y-145310571D01*
X153056762Y-145238000D01*
X153105143Y-145165429D01*
X153105143Y-145310571D01*
X152185905Y-146689429D02*
X152185905Y-145891143D01*
X152234286Y-145746000D01*
X152331048Y-145673429D01*
X152524571Y-145673429D01*
X152621333Y-145746000D01*
X152185905Y-146616857D02*
X152282667Y-146689429D01*
X152524571Y-146689429D01*
X152621333Y-146616857D01*
X152669714Y-146471714D01*
X152669714Y-146326571D01*
X152621333Y-146181429D01*
X152524571Y-146108857D01*
X152282667Y-146108857D01*
X152185905Y-146036286D01*
X151266667Y-146689429D02*
X151266667Y-145891143D01*
X151315048Y-145746000D01*
X151411810Y-145673429D01*
X151605333Y-145673429D01*
X151702095Y-145746000D01*
X151266667Y-146616857D02*
X151363429Y-146689429D01*
X151605333Y-146689429D01*
X151702095Y-146616857D01*
X151750476Y-146471714D01*
X151750476Y-146326571D01*
X151702095Y-146181429D01*
X151605333Y-146108857D01*
X151363429Y-146108857D01*
X151266667Y-146036286D01*
X150782857Y-146544286D02*
X150734476Y-146616857D01*
X150782857Y-146689429D01*
X150831238Y-146616857D01*
X150782857Y-146544286D01*
X150782857Y-146689429D01*
X149863619Y-146616857D02*
X149960381Y-146689429D01*
X150153904Y-146689429D01*
X150250666Y-146616857D01*
X150299047Y-146544286D01*
X150347428Y-146399143D01*
X150347428Y-145963714D01*
X150299047Y-145818571D01*
X150250666Y-145746000D01*
X150153904Y-145673429D01*
X149960381Y-145673429D01*
X149863619Y-145746000D01*
X149283047Y-146689429D02*
X149379809Y-146616857D01*
X149428190Y-146544286D01*
X149476571Y-146399143D01*
X149476571Y-145963714D01*
X149428190Y-145818571D01*
X149379809Y-145746000D01*
X149283047Y-145673429D01*
X149137905Y-145673429D01*
X149041143Y-145746000D01*
X148992762Y-145818571D01*
X148944381Y-145963714D01*
X148944381Y-146399143D01*
X148992762Y-146544286D01*
X149041143Y-146616857D01*
X149137905Y-146689429D01*
X149283047Y-146689429D01*
X148508952Y-146689429D02*
X148508952Y-145673429D01*
X148508952Y-145818571D02*
X148460571Y-145746000D01*
X148363809Y-145673429D01*
X148218667Y-145673429D01*
X148121905Y-145746000D01*
X148073524Y-145891143D01*
X148073524Y-146689429D01*
X148073524Y-145891143D02*
X148025143Y-145746000D01*
X147928381Y-145673429D01*
X147783238Y-145673429D01*
X147686476Y-145746000D01*
X147638095Y-145891143D01*
X147638095Y-146689429D01*
X147154285Y-146544286D02*
X147105904Y-146616857D01*
X147154285Y-146689429D01*
X147202666Y-146616857D01*
X147154285Y-146544286D01*
X147154285Y-146689429D01*
X146235047Y-146689429D02*
X146235047Y-145891143D01*
X146283428Y-145746000D01*
X146380190Y-145673429D01*
X146573713Y-145673429D01*
X146670475Y-145746000D01*
X146235047Y-146616857D02*
X146331809Y-146689429D01*
X146573713Y-146689429D01*
X146670475Y-146616857D01*
X146718856Y-146471714D01*
X146718856Y-146326571D01*
X146670475Y-146181429D01*
X146573713Y-146108857D01*
X146331809Y-146108857D01*
X146235047Y-146036286D01*
X145751237Y-146689429D02*
X145751237Y-145673429D01*
X145751237Y-145963714D02*
X145702856Y-145818571D01*
X145654475Y-145746000D01*
X145557713Y-145673429D01*
X145460952Y-145673429D01*
D13*
X123580000Y-120820000D03*
X123280000Y-92520000D03*
D14*
X106680000Y-83320000D03*
D15*
X109220000Y-83320000D03*
X106680000Y-85860000D03*
X109220000Y-85860000D03*
X106680000Y-88400000D03*
X109220000Y-88400000D03*
X106680000Y-90940000D03*
X109220000Y-90940000D03*
X106680000Y-93480000D03*
X109220000Y-93480000D03*
X106680000Y-96020000D03*
X109220000Y-96020000D03*
X106680000Y-98560000D03*
X109220000Y-98560000D03*
X106680000Y-101100000D03*
X109220000Y-101100000D03*
X106680000Y-103640000D03*
X109220000Y-103640000D03*
X106680000Y-106180000D03*
X109220000Y-106180000D03*
X106680000Y-108720000D03*
X109220000Y-108720000D03*
X106680000Y-111260000D03*
X109220000Y-111260000D03*
X106680000Y-113800000D03*
X109220000Y-113800000D03*
X106680000Y-116340000D03*
X109220000Y-116340000D03*
X106680000Y-118880000D03*
X109220000Y-118880000D03*
X106680000Y-121420000D03*
X109220000Y-121420000D03*
X106680000Y-123960000D03*
X109220000Y-123960000D03*
X106680000Y-126500000D03*
X109220000Y-126500000D03*
X106680000Y-129040000D03*
X109220000Y-129040000D03*
X106680000Y-131580000D03*
X109220000Y-131580000D03*
D16*
X156770000Y-130400000D03*
D17*
X156770000Y-132940000D03*
X156770000Y-135480000D03*
D18*
X156780000Y-142720000D03*
D19*
X154240000Y-142720000D03*
X151700000Y-142720000D03*
D16*
X150780000Y-130420000D03*
D17*
X150780000Y-132960000D03*
X150780000Y-135500000D03*
D16*
X182680000Y-84620000D03*
D17*
X182680000Y-87160000D03*
X182680000Y-89700000D03*
X182680000Y-92240000D03*
X182680000Y-94780000D03*
X182680000Y-97320000D03*
X182680000Y-99860000D03*
X182680000Y-102400000D03*
X182680000Y-104940000D03*
X182680000Y-107480000D03*
X182680000Y-110020000D03*
X182680000Y-112560000D03*
X182680000Y-115100000D03*
X182680000Y-117640000D03*
X182680000Y-120180000D03*
X182680000Y-122720000D03*
X182680000Y-125260000D03*
X182680000Y-127800000D03*
X182680000Y-130340000D03*
X182680000Y-132880000D03*
D20*
X109000000Y-74000000D03*
D21*
X181800000Y-72000000D03*
X182000000Y-144500000D03*
X104000000Y-72000000D03*
X104000000Y-144500000D03*
D20*
X171000000Y-73000000D03*
X108000000Y-143000000D03*
X172000000Y-144000000D03*
D16*
X130820000Y-113270000D03*
D17*
X130820000Y-110730000D03*
X130820000Y-108190000D03*
X130820000Y-105650000D03*
X130820000Y-103110000D03*
D22*
X141510000Y-142750000D03*
D23*
X144050000Y-142750000D03*
D24*
X156500000Y-110500000D03*
X161000000Y-112000000D03*
X158000000Y-112000000D03*
X159880000Y-92420000D03*
X158380000Y-90920000D03*
X161380000Y-90920000D03*
X159880000Y-89420000D03*
X151380000Y-95420000D03*
X151380000Y-93420000D03*
X152880000Y-96920000D03*
X143250000Y-89720000D03*
X143500000Y-84200000D03*
X136100000Y-97290000D03*
X129900000Y-97000000D03*
X134380000Y-89720000D03*
X178250000Y-144500000D03*
X173900000Y-146000000D03*
X170100000Y-146000000D03*
X167400000Y-146000000D03*
X142800000Y-146000000D03*
X140000000Y-145400000D03*
X134900000Y-143400000D03*
X136880000Y-141420000D03*
X134880000Y-139420000D03*
X130880000Y-139420000D03*
X132880000Y-137420000D03*
X136880000Y-137420000D03*
X134880000Y-135420000D03*
X130880000Y-135420000D03*
X132880000Y-141420000D03*
X130880000Y-143420000D03*
X132900000Y-145400000D03*
X136900000Y-145400000D03*
X176700000Y-146000000D03*
X175250000Y-144500000D03*
X160900000Y-103700000D03*
X159500000Y-110500000D03*
X159500000Y-105000000D03*
X161000000Y-109000000D03*
X158000000Y-109000000D03*
X160900000Y-96200000D03*
X160900000Y-98500000D03*
X151380000Y-98420000D03*
X149880000Y-96920000D03*
X148880000Y-116400000D03*
X159500000Y-116000000D03*
X153000000Y-119500000D03*
X150380000Y-120420000D03*
X155000000Y-119500000D03*
X161500000Y-116000000D03*
X161380000Y-122920000D03*
X167680000Y-116960000D03*
X148880000Y-118920000D03*
X147380000Y-120420000D03*
X148880000Y-121920000D03*
X149180000Y-113570000D03*
X159880000Y-124420000D03*
X159880000Y-122920000D03*
X161380000Y-124420000D03*
X161380000Y-125920000D03*
X146880000Y-124920000D03*
X149880000Y-124920000D03*
D25*
X143050000Y-100350000D03*
D24*
X136080000Y-101220000D03*
X141880000Y-124720000D03*
X135480000Y-124720000D03*
X173480000Y-76870000D03*
X173480000Y-90170000D03*
X173480000Y-116940000D03*
X173490000Y-123710000D03*
X173480000Y-130660000D03*
X173480000Y-137900000D03*
X173480000Y-102910000D03*
X173480000Y-85320000D03*
X173480000Y-111420000D03*
X173480000Y-97620000D03*
X158730000Y-78890000D03*
X161500000Y-73000000D03*
X161000000Y-85000000D03*
X156380000Y-86420000D03*
X153010000Y-86420000D03*
X158000000Y-85000000D03*
X159500000Y-83500000D03*
X169000000Y-73000000D03*
X179500000Y-75000000D03*
X175500000Y-71000000D03*
X171000000Y-71000000D03*
X173500000Y-73000000D03*
X177500000Y-73000000D03*
X181500000Y-77000000D03*
X167000000Y-71000000D03*
X165000000Y-73000000D03*
X158500000Y-73000000D03*
X152500000Y-73000000D03*
X149500000Y-73000000D03*
X155500000Y-73000000D03*
X183500000Y-75000000D03*
X179500000Y-79000000D03*
X183500000Y-79000000D03*
X181500000Y-81000000D03*
X146500000Y-73000000D03*
X143500000Y-73000000D03*
X140500000Y-73000000D03*
X134500000Y-73000000D03*
X137500000Y-73000000D03*
X131500000Y-73000000D03*
X132650000Y-98800000D03*
X135100000Y-102400000D03*
D25*
X132680000Y-121220000D03*
X132680000Y-112950000D03*
D24*
X114580000Y-97320000D03*
X114580000Y-84420000D03*
X116000000Y-125300000D03*
X114000000Y-135000000D03*
X110000000Y-135000000D03*
X106000000Y-135000000D03*
X104000000Y-137000000D03*
X108000000Y-137000000D03*
X112000000Y-137000000D03*
X116000000Y-137000000D03*
X106000000Y-139000000D03*
X110000000Y-139000000D03*
X114000000Y-139000000D03*
X104000000Y-141000000D03*
X116000000Y-141000000D03*
X112000000Y-141000000D03*
X108000000Y-141000000D03*
X110000000Y-143000000D03*
X114000000Y-143000000D03*
X116000000Y-145000000D03*
X112000000Y-145000000D03*
X108000000Y-145000000D03*
X107000000Y-70000000D03*
X107000000Y-74000000D03*
X115000000Y-70000000D03*
X115000000Y-78000000D03*
X111000000Y-78000000D03*
X107000000Y-78000000D03*
X103000000Y-78000000D03*
X105000000Y-76000000D03*
X109000000Y-76000000D03*
X113000000Y-76000000D03*
X115000000Y-74000000D03*
X111000000Y-74000000D03*
X113000000Y-72000000D03*
X111000000Y-70000000D03*
X109000000Y-72000000D03*
X115980000Y-96970000D03*
X136450000Y-85800000D03*
X134250000Y-85800000D03*
X132100000Y-85700000D03*
X132100000Y-83700000D03*
X134300000Y-83700000D03*
X136400000Y-83700000D03*
X139900000Y-84400000D03*
X139750000Y-107000000D03*
X137350000Y-107000000D03*
X136000000Y-121000000D03*
X134500000Y-121000000D03*
X134500000Y-119500000D03*
X137500000Y-121000000D03*
X135400000Y-126500000D03*
X130450000Y-125260000D03*
X131550000Y-117640000D03*
X139950000Y-79950000D03*
X136780000Y-114620000D03*
X133890000Y-111660000D03*
X130105000Y-123995000D03*
X130080000Y-116420000D03*
X143750000Y-104400000D03*
X147750000Y-87720000D03*
X178390000Y-106170000D03*
X178380000Y-112820000D03*
X178380000Y-120020000D03*
X178380000Y-126820000D03*
X178380000Y-133620000D03*
X178380000Y-140520000D03*
X178380000Y-99120000D03*
X178380000Y-81000000D03*
X178380000Y-87820000D03*
X178380000Y-92820000D03*
X130145000Y-88075000D03*
X129880000Y-95720000D03*
X138680000Y-122720000D03*
X138990000Y-118950000D03*
D26*
X117200000Y-114600000D03*
D24*
X117100000Y-124000000D03*
X116400000Y-81400000D03*
X111200000Y-93000000D03*
X112500000Y-92780000D03*
X113500000Y-93500000D03*
X113680000Y-119920000D03*
X114880000Y-120120000D03*
X111480000Y-121520000D03*
X112380000Y-122720000D03*
D27*
X150780000Y-135500000D02*
X156750000Y-135500000D01*
X156750000Y-135500000D02*
X156770000Y-135480000D01*
D28*
X156500000Y-110500000D02*
X158000000Y-112000000D01*
D29*
X158000000Y-112000000D02*
X159500000Y-112000000D01*
X159500000Y-112000000D02*
X161000000Y-112000000D01*
D28*
X159880000Y-92420000D02*
X158380000Y-90920000D01*
D29*
X159880000Y-90920000D02*
X161380000Y-90920000D01*
X158380000Y-90920000D02*
X159880000Y-90920000D01*
X161380000Y-90920000D02*
X159880000Y-89420000D01*
D28*
X152880000Y-96920000D02*
X151380000Y-95420000D01*
D29*
X151380000Y-95420000D02*
X151380000Y-93420000D01*
D28*
X134380000Y-89720000D02*
X134380000Y-97292915D01*
X134379949Y-97292966D02*
X134350000Y-97292966D01*
X134380000Y-97292915D02*
X134379949Y-97292966D01*
X143250000Y-84450000D02*
X143500000Y-84200000D01*
X143250000Y-84450000D02*
X143250000Y-89720000D01*
X136080000Y-101220000D02*
X136100000Y-101200000D01*
X136100000Y-101200000D02*
X136100000Y-97290000D01*
X134350000Y-97292966D02*
X136100000Y-97290000D01*
X130200000Y-97300000D02*
X134350000Y-97292966D01*
X129900000Y-97000000D02*
X130200000Y-97300000D01*
D29*
X175250000Y-144500000D02*
X178250000Y-144500000D01*
X176750000Y-146000000D02*
X178250000Y-144500000D01*
X136900000Y-145400000D02*
X134900000Y-143400000D01*
X130880000Y-143420000D02*
X130920000Y-143420000D01*
X130880000Y-132520000D02*
X132800000Y-130600000D01*
X132800000Y-130600000D02*
X139900000Y-130600000D01*
X139900000Y-130600000D02*
X141880000Y-128620000D01*
X141880000Y-128620000D02*
X141880000Y-124720000D01*
X130880000Y-143420000D02*
X130880000Y-141420000D01*
X132880000Y-141420000D02*
X134880000Y-141420000D01*
X136880000Y-139420000D02*
X134880000Y-139420000D01*
X132880000Y-139420000D02*
X130880000Y-139420000D01*
X130880000Y-137420000D02*
X132880000Y-137420000D01*
X134880000Y-137420000D02*
X136880000Y-137420000D01*
X136880000Y-135420000D02*
X134880000Y-135420000D01*
X132880000Y-135420000D02*
X130880000Y-135420000D01*
X134880000Y-135420000D02*
X132880000Y-135420000D01*
X136880000Y-137420000D02*
X136880000Y-135420000D01*
X132880000Y-137420000D02*
X134880000Y-137420000D01*
X130880000Y-139420000D02*
X130880000Y-137420000D01*
X134880000Y-139420000D02*
X132880000Y-139420000D01*
X136880000Y-139420000D02*
X136880000Y-141420000D01*
X134880000Y-141420000D02*
X136880000Y-141420000D01*
X130880000Y-141420000D02*
X132880000Y-141420000D01*
X130880000Y-135420000D02*
X130880000Y-132520000D01*
X130920000Y-143420000D02*
X132900000Y-145400000D01*
X134900000Y-143400000D02*
X132900000Y-145400000D01*
X176700000Y-146000000D02*
X176750000Y-146000000D01*
X152880000Y-96920000D02*
X154120000Y-96920000D01*
X158000000Y-110500000D02*
X156500000Y-110500000D01*
X158000000Y-109000000D02*
X159500000Y-109000000D01*
X159500000Y-105000000D02*
X159500000Y-107500000D01*
X160900000Y-105000000D02*
X160900000Y-103700000D01*
X159500000Y-105000000D02*
X160900000Y-105000000D01*
X159500000Y-107500000D02*
X161000000Y-109000000D01*
X159500000Y-109000000D02*
X161000000Y-109000000D01*
X156500000Y-110500000D02*
X158000000Y-109000000D01*
X159500000Y-110500000D02*
X158000000Y-110500000D01*
X172690000Y-103700000D02*
X173480000Y-102910000D01*
X160900000Y-103700000D02*
X172690000Y-103700000D01*
X160900000Y-98500000D02*
X160900000Y-103700000D01*
X160900000Y-96200000D02*
X160900000Y-98500000D01*
X155620000Y-98420000D02*
X160900000Y-103700000D01*
X154120000Y-96920000D02*
X155620000Y-98420000D01*
X151380000Y-98420000D02*
X152880000Y-96920000D01*
X151380000Y-96920000D02*
X152880000Y-96920000D01*
X151380000Y-96920000D02*
X149880000Y-96920000D01*
X161500000Y-116000000D02*
X159500000Y-116000000D01*
X156000000Y-119500000D02*
X159500000Y-116000000D01*
X155000000Y-119500000D02*
X153000000Y-119500000D01*
X152080000Y-120420000D02*
X153000000Y-119500000D01*
X152080000Y-120420000D02*
X150380000Y-120420000D01*
X155000000Y-119500000D02*
X156000000Y-119500000D01*
X172730000Y-89420000D02*
X173480000Y-90170000D01*
X161380000Y-122920000D02*
X161720000Y-122920000D01*
X161720000Y-122920000D02*
X167680000Y-116960000D01*
X148880000Y-117420000D02*
X148880000Y-116400000D01*
X148880000Y-116400000D02*
X148880000Y-113870000D01*
X150380000Y-118920000D02*
X150380000Y-120420000D01*
X148880000Y-120420000D02*
X148880000Y-118920000D01*
X147380000Y-118920000D02*
X147380000Y-120420000D01*
X147380000Y-121920000D02*
X148880000Y-121920000D01*
X150380000Y-121920000D02*
X148880000Y-121920000D01*
X147380000Y-120420000D02*
X147380000Y-121920000D01*
X148880000Y-118920000D02*
X147380000Y-118920000D01*
X150380000Y-120420000D02*
X148880000Y-120420000D01*
X148880000Y-117420000D02*
X150380000Y-118920000D01*
X148880000Y-113870000D02*
X149180000Y-113570000D01*
X161380000Y-125920000D02*
X159880000Y-124420000D01*
X161380000Y-124420000D02*
X161380000Y-122920000D01*
X158880000Y-121920000D02*
X150380000Y-121920000D01*
X158880000Y-121920000D02*
X159880000Y-122920000D01*
X161380000Y-122920000D02*
X159880000Y-122920000D01*
X159880000Y-124420000D02*
X161380000Y-124420000D01*
X149880000Y-122420000D02*
X150380000Y-121920000D01*
X149880000Y-124920000D02*
X148380000Y-124920000D01*
X146680000Y-124720000D02*
X141880000Y-124720000D01*
X146680000Y-124720000D02*
X146880000Y-124920000D01*
X148380000Y-124920000D02*
X146880000Y-124920000D01*
X149880000Y-124920000D02*
X149880000Y-122420000D01*
D30*
X136080000Y-101220000D02*
X136090000Y-101220000D01*
D28*
X141880000Y-124720000D02*
X135480000Y-124720000D01*
X173480000Y-85320000D02*
X173480000Y-76870000D01*
D29*
X173480000Y-116940000D02*
X173480000Y-117020000D01*
X173490000Y-123710000D02*
X173480000Y-123710000D01*
X173480000Y-123710000D02*
X173490000Y-123710000D01*
X173490000Y-123710000D02*
X173480000Y-123710000D01*
D28*
X173480000Y-122320000D02*
X173480000Y-123710000D01*
X173480000Y-122320000D02*
X173480000Y-117020000D01*
X173480000Y-123710000D02*
X173480000Y-130660000D01*
X173480000Y-130660000D02*
X173480000Y-137900000D01*
X173480000Y-117020000D02*
X173480000Y-111420000D01*
X173480000Y-111420000D02*
X173480000Y-104420000D01*
X173480000Y-104420000D02*
X173480000Y-102910000D01*
X173480000Y-102910000D02*
X173480000Y-97620000D01*
X173480000Y-97620000D02*
X173480000Y-91520000D01*
X173480000Y-91520000D02*
X173480000Y-90520000D01*
X173480000Y-90520000D02*
X173480000Y-90170000D01*
X173480000Y-90170000D02*
X173480000Y-85320000D01*
D29*
X161380000Y-89420000D02*
X172730000Y-89420000D01*
X161380000Y-89420000D02*
X159880000Y-89420000D01*
X159880000Y-89420000D02*
X158380000Y-89420000D01*
X159500000Y-83500000D02*
X161000000Y-85000000D01*
X156580000Y-86420000D02*
X156380000Y-86420000D01*
X156380000Y-86420000D02*
X153010000Y-86420000D01*
X156580000Y-86420000D02*
X158000000Y-85000000D01*
X161000000Y-85000000D02*
X158000000Y-85000000D01*
X156380000Y-87420000D02*
X156380000Y-86420000D01*
X156380000Y-87420000D02*
X158380000Y-89420000D01*
D28*
X161500000Y-73000000D02*
X165000000Y-73000000D01*
D29*
X169000000Y-73000000D02*
X169000000Y-71640000D01*
X181500000Y-77000000D02*
X179500000Y-75000000D01*
X177500000Y-73000000D02*
X175500000Y-71000000D01*
X171000000Y-71000000D02*
X171500000Y-71000000D01*
X171500000Y-71000000D02*
X173500000Y-73000000D01*
X175500000Y-71000000D02*
X173500000Y-73000000D01*
X179500000Y-75000000D02*
X177500000Y-73000000D01*
X169640000Y-71000000D02*
X171000000Y-71000000D01*
X169000000Y-71640000D02*
X169640000Y-71000000D01*
X169000000Y-73000000D02*
X167000000Y-71000000D01*
X167000000Y-71000000D02*
X165000000Y-73000000D01*
D28*
X158500000Y-73000000D02*
X155500000Y-73000000D01*
X161500000Y-73000000D02*
X158500000Y-73000000D01*
X155500000Y-73000000D02*
X152500000Y-73000000D01*
X149500000Y-73000000D02*
X146500000Y-73000000D01*
X152500000Y-73000000D02*
X149500000Y-73000000D01*
D29*
X183500000Y-75000000D02*
X181500000Y-77000000D01*
X181500000Y-81000000D02*
X183500000Y-79000000D01*
X183500000Y-79000000D02*
X181500000Y-77000000D01*
X179500000Y-79000000D02*
X181500000Y-81000000D01*
D28*
X146500000Y-73000000D02*
X143500000Y-73000000D01*
X143500000Y-73000000D02*
X140500000Y-73000000D01*
X140500000Y-73000000D02*
X137500000Y-73000000D01*
X137500000Y-73000000D02*
X134500000Y-73000000D01*
D27*
X135100000Y-102400000D02*
X132650000Y-99950000D01*
X132650000Y-99950000D02*
X132650000Y-98800000D01*
X132680000Y-115620000D02*
X132680000Y-121220000D01*
X132680000Y-112950000D02*
X132680000Y-115620000D01*
X144050000Y-142750000D02*
X144050000Y-141630000D01*
X154240000Y-141670000D02*
X154240000Y-142720000D01*
X153440000Y-140870000D02*
X154240000Y-141670000D01*
X144810000Y-140870000D02*
X153440000Y-140870000D01*
X144050000Y-141630000D02*
X144810000Y-140870000D01*
D28*
X114580000Y-97320000D02*
X114580000Y-84420000D01*
D31*
X116000000Y-125300000D02*
X115980000Y-125300000D01*
X115980000Y-125300000D02*
X116000000Y-125300000D01*
X116000000Y-125300000D02*
X115980000Y-125300000D01*
D29*
X108000000Y-141000000D02*
X109240000Y-141000000D01*
X104000000Y-141000000D02*
X108000000Y-141000000D01*
X114000000Y-139000000D02*
X116000000Y-139000000D01*
X116000000Y-137000000D02*
X114000000Y-137000000D01*
X112000000Y-137000000D02*
X110000000Y-137000000D01*
X108000000Y-137000000D02*
X106000000Y-137000000D01*
X104000000Y-137000000D02*
X104000000Y-135000000D01*
X106000000Y-135000000D02*
X108000000Y-135000000D01*
X110000000Y-135000000D02*
X112000000Y-135000000D01*
X114000000Y-135000000D02*
X116000000Y-135000000D01*
X115980000Y-134980000D02*
X116000000Y-135000000D01*
X115980000Y-127440000D02*
X115980000Y-134980000D01*
X112000000Y-135000000D02*
X114000000Y-135000000D01*
X108000000Y-135000000D02*
X110000000Y-135000000D01*
X104000000Y-135000000D02*
X106000000Y-135000000D01*
X106000000Y-137000000D02*
X104000000Y-137000000D01*
X110000000Y-137000000D02*
X108000000Y-137000000D01*
X114000000Y-137000000D02*
X112000000Y-137000000D01*
X116000000Y-139000000D02*
X116000000Y-137000000D01*
X104000000Y-139000000D02*
X106000000Y-139000000D01*
X108000000Y-139000000D02*
X110000000Y-139000000D01*
X112000000Y-139000000D02*
X114000000Y-139000000D01*
X110000000Y-139000000D02*
X112000000Y-139000000D01*
X106000000Y-139000000D02*
X108000000Y-139000000D01*
X104000000Y-141000000D02*
X104000000Y-139000000D01*
X114000000Y-143000000D02*
X112000000Y-141000000D01*
X112000000Y-141000000D02*
X110000000Y-143000000D01*
X114000000Y-143000000D02*
X116000000Y-141000000D01*
X114000000Y-145000000D02*
X112000000Y-145000000D01*
X110000000Y-145000000D02*
X108000000Y-145000000D01*
X112000000Y-145000000D02*
X110000000Y-145000000D01*
X116000000Y-145000000D02*
X114000000Y-145000000D01*
X116000000Y-141000000D02*
X116000000Y-145000000D01*
X110000000Y-141760000D02*
X110000000Y-143000000D01*
X109240000Y-141000000D02*
X110000000Y-141760000D01*
X107000000Y-70000000D02*
X107000000Y-74000000D01*
X109000000Y-72000000D02*
X107000000Y-70000000D01*
X111000000Y-70000000D02*
X115000000Y-70000000D01*
X113000000Y-72000000D02*
X111000000Y-74000000D01*
X113000000Y-74000000D02*
X111000000Y-74000000D01*
X115000000Y-74000000D02*
X115000000Y-76000000D01*
X113000000Y-76000000D02*
X111000000Y-76000000D01*
X109000000Y-76000000D02*
X107000000Y-76000000D01*
X105000000Y-76000000D02*
X103000000Y-76000000D01*
X103000000Y-78000000D02*
X105000000Y-78000000D01*
X107000000Y-78000000D02*
X109000000Y-78000000D01*
X111000000Y-78000000D02*
X113000000Y-78000000D01*
X113280000Y-79720000D02*
X113280000Y-80520000D01*
X113280000Y-79720000D02*
X115000000Y-78000000D01*
X113000000Y-78000000D02*
X115000000Y-78000000D01*
X109000000Y-78000000D02*
X111000000Y-78000000D01*
X105000000Y-78000000D02*
X107000000Y-78000000D01*
X103000000Y-76000000D02*
X103000000Y-78000000D01*
X107000000Y-76000000D02*
X105000000Y-76000000D01*
X111000000Y-76000000D02*
X109000000Y-76000000D01*
X115000000Y-76000000D02*
X113000000Y-76000000D01*
X113000000Y-74000000D02*
X115000000Y-74000000D01*
X115000000Y-70000000D02*
X113000000Y-72000000D01*
X107000000Y-70000000D02*
X111000000Y-70000000D01*
D28*
X115980000Y-96970000D02*
X115980000Y-96920000D01*
X115980000Y-117620000D02*
X115980000Y-125300000D01*
X115980000Y-125300000D02*
X115980000Y-127440000D01*
X106680000Y-85860000D02*
X105420000Y-85860000D01*
X115980000Y-83220000D02*
X115980000Y-89320000D01*
X113280000Y-80520000D02*
X115980000Y-83220000D01*
X105380000Y-80520000D02*
X113280000Y-80520000D01*
X104180000Y-81720000D02*
X105380000Y-80520000D01*
X104180000Y-84620000D02*
X104180000Y-81720000D01*
X105420000Y-85860000D02*
X104180000Y-84620000D01*
X115980000Y-117620000D02*
X115980000Y-96920000D01*
X115980000Y-96920000D02*
X115980000Y-89320000D01*
D27*
X134250000Y-85800000D02*
X136450000Y-85800000D01*
X132100000Y-83700000D02*
X132100000Y-85700000D01*
X136400000Y-83700000D02*
X134300000Y-83700000D01*
D28*
X139750000Y-107000000D02*
X139750000Y-84550000D01*
X139750000Y-84550000D02*
X139900000Y-84400000D01*
D27*
X139750000Y-107000000D02*
X137350000Y-107000000D01*
D29*
X137500000Y-121000000D02*
X136000000Y-121000000D01*
X134500000Y-119500000D02*
X134500000Y-121000000D01*
X133240000Y-125260000D02*
X134500000Y-124000000D01*
X134500000Y-124000000D02*
X134500000Y-121000000D01*
X133240000Y-125260000D02*
X130450000Y-125260000D01*
X136000000Y-121000000D02*
X134500000Y-119500000D01*
X130450000Y-125260000D02*
X130450000Y-126150000D01*
X130800000Y-126500000D02*
X135400000Y-126500000D01*
X130450000Y-126150000D02*
X130800000Y-126500000D01*
D28*
X131550000Y-124160000D02*
X131550000Y-117640000D01*
X130450000Y-125260000D02*
X131550000Y-124160000D01*
X130820000Y-114880000D02*
X130820000Y-113270000D01*
X131550000Y-117640000D02*
X131550000Y-115610000D01*
X131550000Y-115610000D02*
X130820000Y-114880000D01*
D30*
X130820000Y-113270000D02*
X130830000Y-113270000D01*
D28*
X139950000Y-79950000D02*
X138200000Y-81700000D01*
X133890000Y-111660000D02*
X133890000Y-106360000D01*
X138200000Y-81700000D02*
X138200000Y-83750000D01*
X138200000Y-83750000D02*
X138200000Y-102050000D01*
X138200000Y-102050000D02*
X133890000Y-106360000D01*
X136780000Y-114620000D02*
X135730000Y-114620000D01*
X135730000Y-114620000D02*
X133890000Y-112780000D01*
X133890000Y-112780000D02*
X133890000Y-111660000D01*
X130080000Y-123970000D02*
X130080000Y-116420000D01*
D31*
X130080000Y-123970000D02*
X130105000Y-123995000D01*
D28*
X147750000Y-87720000D02*
X147750000Y-87650000D01*
X147750000Y-87650000D02*
X147750000Y-100400000D01*
X147750000Y-100400000D02*
X143750000Y-104400000D01*
X176230000Y-75770000D02*
X132330000Y-75770000D01*
X130145000Y-88075000D02*
X130145000Y-77955000D01*
X130145000Y-77955000D02*
X132330000Y-75770000D01*
X178380000Y-77920000D02*
X176230000Y-75770000D01*
X178380000Y-77920000D02*
X178380000Y-81000000D01*
D29*
X178390000Y-106170000D02*
X177140000Y-106170000D01*
D27*
X178390000Y-106170000D02*
X178380000Y-106170000D01*
X178380000Y-106170000D02*
X178390000Y-106170000D01*
X178390000Y-106170000D02*
X178380000Y-106170000D01*
D28*
X178380000Y-106170000D02*
X178380000Y-106720000D01*
X178380000Y-106720000D02*
X178380000Y-112820000D01*
X178380000Y-112820000D02*
X178380000Y-120020000D01*
X178380000Y-120020000D02*
X178380000Y-126820000D01*
X178380000Y-126820000D02*
X178380000Y-133620000D01*
X178380000Y-133620000D02*
X178380000Y-140520000D01*
X178380000Y-99120000D02*
X178380000Y-106170000D01*
X178380000Y-92820000D02*
X178380000Y-99120000D01*
X178380000Y-87820000D02*
X178380000Y-81000000D01*
X178380000Y-87820000D02*
X178380000Y-92820000D01*
X130145000Y-88075000D02*
X130145000Y-89755000D01*
X130145000Y-89755000D02*
X129880000Y-90020000D01*
X129880000Y-90020000D02*
X129880000Y-95720000D01*
D27*
X138990000Y-122410000D02*
X138990000Y-118950000D01*
X138990000Y-122410000D02*
X138680000Y-122720000D01*
D31*
X117200000Y-114600000D02*
X117200000Y-114400000D01*
D28*
X117200000Y-123900000D02*
X117100000Y-124000000D01*
X117200000Y-114400000D02*
X117200000Y-123900000D01*
X117200000Y-82200000D02*
X117200000Y-114400000D01*
X116400000Y-81400000D02*
X117200000Y-82200000D01*
D27*
X104760000Y-111260000D02*
X106680000Y-111260000D01*
X104200000Y-110700000D02*
X104760000Y-111260000D01*
X104200000Y-95400000D02*
X104200000Y-110700000D01*
X104800000Y-94800000D02*
X104200000Y-95400000D01*
X110400000Y-94800000D02*
X104800000Y-94800000D01*
X111200000Y-94000000D02*
X110400000Y-94800000D01*
X111200000Y-93000000D02*
X111200000Y-94000000D01*
X110880000Y-106180000D02*
X109220000Y-106180000D01*
X112510000Y-104550000D02*
X110880000Y-106180000D01*
X112510000Y-92790000D02*
X112510000Y-104550000D01*
X112500000Y-92780000D02*
X112510000Y-92790000D01*
X113500000Y-93500000D02*
X113500000Y-105700000D01*
X113500000Y-105700000D02*
X111700000Y-107500000D01*
X106680000Y-108720000D02*
X107900000Y-107500000D01*
X107900000Y-107500000D02*
X111700000Y-107500000D01*
X112720000Y-111260000D02*
X109220000Y-111260000D01*
X113380000Y-111920000D02*
X112720000Y-111260000D01*
X113380000Y-119620000D02*
X113380000Y-111920000D01*
X113680000Y-119920000D02*
X113380000Y-119620000D01*
X109220000Y-108720000D02*
X112680000Y-108720000D01*
X114880000Y-110920000D02*
X114880000Y-120120000D01*
X112680000Y-108720000D02*
X114880000Y-110920000D01*
X109220000Y-116340000D02*
X111000000Y-116340000D01*
X111480000Y-116820000D02*
X111480000Y-121520000D01*
X111000000Y-116340000D02*
X111480000Y-116820000D01*
X109220000Y-113800000D02*
X111260000Y-113800000D01*
X112380000Y-114920000D02*
X112380000Y-122720000D01*
X111260000Y-113800000D02*
X112380000Y-114920000D01*
D10*
G36*
X117920000Y-147450000D02*
X101020000Y-147450000D01*
X101020000Y-146136001D01*
X102434710Y-146136001D01*
X102673163Y-146411300D01*
X103505585Y-146773570D01*
X104413278Y-146789709D01*
X105258053Y-146457260D01*
X105326837Y-146411300D01*
X105565290Y-146136001D01*
X104000000Y-144570711D01*
X102434710Y-146136001D01*
X101020000Y-146136001D01*
X101020000Y-144913278D01*
X101710291Y-144913278D01*
X102042740Y-145758053D01*
X102088700Y-145826837D01*
X102363999Y-146065290D01*
X103929289Y-144500000D01*
X104070711Y-144500000D01*
X105636001Y-146065290D01*
X105911300Y-145826837D01*
X106273570Y-144994415D01*
X106289709Y-144086722D01*
X105964921Y-143261412D01*
X106679772Y-143261412D01*
X106880306Y-143746743D01*
X107251304Y-144118389D01*
X107736284Y-144319770D01*
X108261412Y-144320228D01*
X108746743Y-144119694D01*
X109118389Y-143748696D01*
X109319770Y-143263716D01*
X109320228Y-142738588D01*
X109119694Y-142253257D01*
X108748696Y-141881611D01*
X108263716Y-141680230D01*
X107738588Y-141679772D01*
X107253257Y-141880306D01*
X106881611Y-142251304D01*
X106680230Y-142736284D01*
X106679772Y-143261412D01*
X105964921Y-143261412D01*
X105957260Y-143241947D01*
X105911300Y-143173163D01*
X105636001Y-142934710D01*
X104070711Y-144500000D01*
X103929289Y-144500000D01*
X102363999Y-142934710D01*
X102088700Y-143173163D01*
X101726430Y-144005585D01*
X101710291Y-144913278D01*
X101020000Y-144913278D01*
X101020000Y-142863999D01*
X102434710Y-142863999D01*
X104000000Y-144429289D01*
X105565290Y-142863999D01*
X105326837Y-142588700D01*
X104494415Y-142226430D01*
X103586722Y-142210291D01*
X102741947Y-142542740D01*
X102673163Y-142588700D01*
X102434710Y-142863999D01*
X101020000Y-142863999D01*
X101020000Y-131787503D01*
X105451502Y-131787503D01*
X105487899Y-131921082D01*
X105691052Y-132260237D01*
X106008530Y-132495832D01*
X106392000Y-132592000D01*
X106630000Y-132592000D01*
X106630000Y-131630000D01*
X106730000Y-131630000D01*
X106730000Y-132592000D01*
X106968000Y-132592000D01*
X107351470Y-132495832D01*
X107668948Y-132260237D01*
X107872101Y-131921082D01*
X107908498Y-131787503D01*
X107866183Y-131630000D01*
X106730000Y-131630000D01*
X106630000Y-131630000D01*
X105493817Y-131630000D01*
X105451502Y-131787503D01*
X101020000Y-131787503D01*
X101020000Y-131580000D01*
X107945511Y-131580000D01*
X108022545Y-131967276D01*
X108241919Y-132295592D01*
X108570235Y-132514966D01*
X108957511Y-132592000D01*
X109482489Y-132592000D01*
X109869765Y-132514966D01*
X110198081Y-132295592D01*
X110417455Y-131967276D01*
X110494489Y-131580000D01*
X110417455Y-131192724D01*
X110198081Y-130864408D01*
X109869765Y-130645034D01*
X109482489Y-130568000D01*
X108957511Y-130568000D01*
X108570235Y-130645034D01*
X108241919Y-130864408D01*
X108022545Y-131192724D01*
X107945511Y-131580000D01*
X101020000Y-131580000D01*
X101020000Y-131372497D01*
X105451502Y-131372497D01*
X105493817Y-131530000D01*
X106630000Y-131530000D01*
X106630000Y-130568000D01*
X106730000Y-130568000D01*
X106730000Y-131530000D01*
X107866183Y-131530000D01*
X107908498Y-131372497D01*
X107872101Y-131238918D01*
X107668948Y-130899763D01*
X107351470Y-130664168D01*
X106968000Y-130568000D01*
X106730000Y-130568000D01*
X106630000Y-130568000D01*
X106392000Y-130568000D01*
X106008530Y-130664168D01*
X105691052Y-130899763D01*
X105487899Y-131238918D01*
X105451502Y-131372497D01*
X101020000Y-131372497D01*
X101020000Y-129247503D01*
X105451502Y-129247503D01*
X105487899Y-129381082D01*
X105691052Y-129720237D01*
X106008530Y-129955832D01*
X106392000Y-130052000D01*
X106630000Y-130052000D01*
X106630000Y-129090000D01*
X106730000Y-129090000D01*
X106730000Y-130052000D01*
X106968000Y-130052000D01*
X107351470Y-129955832D01*
X107668948Y-129720237D01*
X107872101Y-129381082D01*
X107908498Y-129247503D01*
X107866183Y-129090000D01*
X106730000Y-129090000D01*
X106630000Y-129090000D01*
X105493817Y-129090000D01*
X105451502Y-129247503D01*
X101020000Y-129247503D01*
X101020000Y-129040000D01*
X107945511Y-129040000D01*
X108022545Y-129427276D01*
X108241919Y-129755592D01*
X108570235Y-129974966D01*
X108957511Y-130052000D01*
X109482489Y-130052000D01*
X109869765Y-129974966D01*
X110198081Y-129755592D01*
X110417455Y-129427276D01*
X110494489Y-129040000D01*
X110417455Y-128652724D01*
X110198081Y-128324408D01*
X109869765Y-128105034D01*
X109482489Y-128028000D01*
X108957511Y-128028000D01*
X108570235Y-128105034D01*
X108241919Y-128324408D01*
X108022545Y-128652724D01*
X107945511Y-129040000D01*
X101020000Y-129040000D01*
X101020000Y-128832497D01*
X105451502Y-128832497D01*
X105493817Y-128990000D01*
X106630000Y-128990000D01*
X106630000Y-128028000D01*
X106730000Y-128028000D01*
X106730000Y-128990000D01*
X107866183Y-128990000D01*
X107908498Y-128832497D01*
X107872101Y-128698918D01*
X107668948Y-128359763D01*
X107351470Y-128124168D01*
X106968000Y-128028000D01*
X106730000Y-128028000D01*
X106630000Y-128028000D01*
X106392000Y-128028000D01*
X106008530Y-128124168D01*
X105691052Y-128359763D01*
X105487899Y-128698918D01*
X105451502Y-128832497D01*
X101020000Y-128832497D01*
X101020000Y-126500000D01*
X105405511Y-126500000D01*
X105482545Y-126887276D01*
X105701919Y-127215592D01*
X106030235Y-127434966D01*
X106417511Y-127512000D01*
X106942489Y-127512000D01*
X107329765Y-127434966D01*
X107658081Y-127215592D01*
X107877455Y-126887276D01*
X107950000Y-126522568D01*
X108022545Y-126887276D01*
X108241919Y-127215592D01*
X108570235Y-127434966D01*
X108957511Y-127512000D01*
X109482489Y-127512000D01*
X109869765Y-127434966D01*
X110198081Y-127215592D01*
X110417455Y-126887276D01*
X110494489Y-126500000D01*
X110417455Y-126112724D01*
X110198081Y-125784408D01*
X109869765Y-125565034D01*
X109482489Y-125488000D01*
X108957511Y-125488000D01*
X108570235Y-125565034D01*
X108241919Y-125784408D01*
X108022545Y-126112724D01*
X107950000Y-126477432D01*
X107877455Y-126112724D01*
X107658081Y-125784408D01*
X107329765Y-125565034D01*
X106942489Y-125488000D01*
X106417511Y-125488000D01*
X106030235Y-125565034D01*
X105701919Y-125784408D01*
X105482545Y-126112724D01*
X105405511Y-126500000D01*
X101020000Y-126500000D01*
X101020000Y-123960000D01*
X105405511Y-123960000D01*
X105482545Y-124347276D01*
X105701919Y-124675592D01*
X106030235Y-124894966D01*
X106417511Y-124972000D01*
X106942489Y-124972000D01*
X107329765Y-124894966D01*
X107658081Y-124675592D01*
X107877455Y-124347276D01*
X107950000Y-123982568D01*
X108022545Y-124347276D01*
X108241919Y-124675592D01*
X108570235Y-124894966D01*
X108957511Y-124972000D01*
X109482489Y-124972000D01*
X109869765Y-124894966D01*
X110198081Y-124675592D01*
X110417455Y-124347276D01*
X110494489Y-123960000D01*
X110417455Y-123572724D01*
X110198081Y-123244408D01*
X109869765Y-123025034D01*
X109482489Y-122948000D01*
X108957511Y-122948000D01*
X108570235Y-123025034D01*
X108241919Y-123244408D01*
X108022545Y-123572724D01*
X107950000Y-123937432D01*
X107877455Y-123572724D01*
X107658081Y-123244408D01*
X107329765Y-123025034D01*
X106942489Y-122948000D01*
X106417511Y-122948000D01*
X106030235Y-123025034D01*
X105701919Y-123244408D01*
X105482545Y-123572724D01*
X105405511Y-123960000D01*
X101020000Y-123960000D01*
X101020000Y-121420000D01*
X105405511Y-121420000D01*
X105482545Y-121807276D01*
X105701919Y-122135592D01*
X106030235Y-122354966D01*
X106417511Y-122432000D01*
X106942489Y-122432000D01*
X107329765Y-122354966D01*
X107658081Y-122135592D01*
X107877455Y-121807276D01*
X107950000Y-121442568D01*
X108022545Y-121807276D01*
X108241919Y-122135592D01*
X108570235Y-122354966D01*
X108957511Y-122432000D01*
X109482489Y-122432000D01*
X109869765Y-122354966D01*
X110198081Y-122135592D01*
X110417455Y-121807276D01*
X110494489Y-121420000D01*
X110417455Y-121032724D01*
X110198081Y-120704408D01*
X109869765Y-120485034D01*
X109482489Y-120408000D01*
X108957511Y-120408000D01*
X108570235Y-120485034D01*
X108241919Y-120704408D01*
X108022545Y-121032724D01*
X107950000Y-121397432D01*
X107877455Y-121032724D01*
X107658081Y-120704408D01*
X107329765Y-120485034D01*
X106942489Y-120408000D01*
X106417511Y-120408000D01*
X106030235Y-120485034D01*
X105701919Y-120704408D01*
X105482545Y-121032724D01*
X105405511Y-121420000D01*
X101020000Y-121420000D01*
X101020000Y-118880000D01*
X105405511Y-118880000D01*
X105482545Y-119267276D01*
X105701919Y-119595592D01*
X106030235Y-119814966D01*
X106417511Y-119892000D01*
X106942489Y-119892000D01*
X107329765Y-119814966D01*
X107658081Y-119595592D01*
X107877455Y-119267276D01*
X107950000Y-118902568D01*
X108022545Y-119267276D01*
X108241919Y-119595592D01*
X108570235Y-119814966D01*
X108957511Y-119892000D01*
X109482489Y-119892000D01*
X109869765Y-119814966D01*
X110198081Y-119595592D01*
X110417455Y-119267276D01*
X110494489Y-118880000D01*
X110417455Y-118492724D01*
X110198081Y-118164408D01*
X109869765Y-117945034D01*
X109482489Y-117868000D01*
X108957511Y-117868000D01*
X108570235Y-117945034D01*
X108241919Y-118164408D01*
X108022545Y-118492724D01*
X107950000Y-118857432D01*
X107877455Y-118492724D01*
X107658081Y-118164408D01*
X107329765Y-117945034D01*
X106942489Y-117868000D01*
X106417511Y-117868000D01*
X106030235Y-117945034D01*
X105701919Y-118164408D01*
X105482545Y-118492724D01*
X105405511Y-118880000D01*
X101020000Y-118880000D01*
X101020000Y-116547503D01*
X105451502Y-116547503D01*
X105487899Y-116681082D01*
X105691052Y-117020237D01*
X106008530Y-117255832D01*
X106392000Y-117352000D01*
X106630000Y-117352000D01*
X106630000Y-116390000D01*
X106730000Y-116390000D01*
X106730000Y-117352000D01*
X106968000Y-117352000D01*
X107351470Y-117255832D01*
X107668948Y-117020237D01*
X107872101Y-116681082D01*
X107908498Y-116547503D01*
X107866183Y-116390000D01*
X106730000Y-116390000D01*
X106630000Y-116390000D01*
X105493817Y-116390000D01*
X105451502Y-116547503D01*
X101020000Y-116547503D01*
X101020000Y-116132497D01*
X105451502Y-116132497D01*
X105493817Y-116290000D01*
X106630000Y-116290000D01*
X106630000Y-115328000D01*
X106730000Y-115328000D01*
X106730000Y-116290000D01*
X107866183Y-116290000D01*
X107908498Y-116132497D01*
X107872101Y-115998918D01*
X107668948Y-115659763D01*
X107351470Y-115424168D01*
X106968000Y-115328000D01*
X106730000Y-115328000D01*
X106630000Y-115328000D01*
X106392000Y-115328000D01*
X106008530Y-115424168D01*
X105691052Y-115659763D01*
X105487899Y-115998918D01*
X105451502Y-116132497D01*
X101020000Y-116132497D01*
X101020000Y-114007503D01*
X105451502Y-114007503D01*
X105487899Y-114141082D01*
X105691052Y-114480237D01*
X106008530Y-114715832D01*
X106392000Y-114812000D01*
X106630000Y-114812000D01*
X106630000Y-113850000D01*
X106730000Y-113850000D01*
X106730000Y-114812000D01*
X106968000Y-114812000D01*
X107351470Y-114715832D01*
X107668948Y-114480237D01*
X107872101Y-114141082D01*
X107908498Y-114007503D01*
X107866183Y-113850000D01*
X106730000Y-113850000D01*
X106630000Y-113850000D01*
X105493817Y-113850000D01*
X105451502Y-114007503D01*
X101020000Y-114007503D01*
X101020000Y-113800000D01*
X107945511Y-113800000D01*
X108022545Y-114187276D01*
X108241919Y-114515592D01*
X108570235Y-114734966D01*
X108957511Y-114812000D01*
X109482489Y-114812000D01*
X109869765Y-114734966D01*
X110198081Y-114515592D01*
X110408953Y-114200000D01*
X111094314Y-114200000D01*
X111980000Y-115085686D01*
X111980000Y-121030059D01*
X111880000Y-120929884D01*
X111880000Y-116820005D01*
X111880001Y-116820000D01*
X111849552Y-116666927D01*
X111820096Y-116622843D01*
X111762843Y-116537157D01*
X111762840Y-116537155D01*
X111282843Y-116057157D01*
X111153074Y-115970448D01*
X111000000Y-115940000D01*
X110408953Y-115940000D01*
X110198081Y-115624408D01*
X109869765Y-115405034D01*
X109482489Y-115328000D01*
X108957511Y-115328000D01*
X108570235Y-115405034D01*
X108241919Y-115624408D01*
X108022545Y-115952724D01*
X107945511Y-116340000D01*
X108022545Y-116727276D01*
X108241919Y-117055592D01*
X108570235Y-117274966D01*
X108957511Y-117352000D01*
X109482489Y-117352000D01*
X109869765Y-117274966D01*
X110198081Y-117055592D01*
X110408953Y-116740000D01*
X110834314Y-116740000D01*
X111080000Y-116985685D01*
X111080000Y-120930216D01*
X110886915Y-121122964D01*
X110780122Y-121380150D01*
X110779879Y-121658628D01*
X110886223Y-121916000D01*
X111082964Y-122113085D01*
X111340150Y-122219878D01*
X111618628Y-122220121D01*
X111876000Y-122113777D01*
X111980000Y-122009959D01*
X111980000Y-122130216D01*
X111786915Y-122322964D01*
X111680122Y-122580150D01*
X111679879Y-122858628D01*
X111786223Y-123116000D01*
X111982964Y-123313085D01*
X112240150Y-123419878D01*
X112518628Y-123420121D01*
X112776000Y-123313777D01*
X112973085Y-123117036D01*
X113079878Y-122859850D01*
X113080121Y-122581372D01*
X112973777Y-122324000D01*
X112780000Y-122129884D01*
X112780000Y-114920000D01*
X112749552Y-114766927D01*
X112749552Y-114766926D01*
X112662843Y-114637157D01*
X111542843Y-113517157D01*
X111413074Y-113430448D01*
X111260000Y-113400000D01*
X110408953Y-113400000D01*
X110198081Y-113084408D01*
X109869765Y-112865034D01*
X109482489Y-112788000D01*
X108957511Y-112788000D01*
X108570235Y-112865034D01*
X108241919Y-113084408D01*
X108022545Y-113412724D01*
X107945511Y-113800000D01*
X101020000Y-113800000D01*
X101020000Y-113592497D01*
X105451502Y-113592497D01*
X105493817Y-113750000D01*
X106630000Y-113750000D01*
X106630000Y-112788000D01*
X106730000Y-112788000D01*
X106730000Y-113750000D01*
X107866183Y-113750000D01*
X107908498Y-113592497D01*
X107872101Y-113458918D01*
X107668948Y-113119763D01*
X107351470Y-112884168D01*
X106968000Y-112788000D01*
X106730000Y-112788000D01*
X106630000Y-112788000D01*
X106392000Y-112788000D01*
X106008530Y-112884168D01*
X105691052Y-113119763D01*
X105487899Y-113458918D01*
X105451502Y-113592497D01*
X101020000Y-113592497D01*
X101020000Y-95400000D01*
X103800000Y-95400000D01*
X103800000Y-110700000D01*
X103830448Y-110853074D01*
X103917157Y-110982843D01*
X104477155Y-111542840D01*
X104477157Y-111542843D01*
X104606927Y-111629552D01*
X104760000Y-111660001D01*
X104760005Y-111660000D01*
X105491047Y-111660000D01*
X105701919Y-111975592D01*
X106030235Y-112194966D01*
X106417511Y-112272000D01*
X106942489Y-112272000D01*
X107329765Y-112194966D01*
X107658081Y-111975592D01*
X107877455Y-111647276D01*
X107950000Y-111282568D01*
X108022545Y-111647276D01*
X108241919Y-111975592D01*
X108570235Y-112194966D01*
X108957511Y-112272000D01*
X109482489Y-112272000D01*
X109869765Y-112194966D01*
X110198081Y-111975592D01*
X110408953Y-111660000D01*
X112554314Y-111660000D01*
X112980000Y-112085686D01*
X112980000Y-119620000D01*
X113001578Y-119728479D01*
X112980122Y-119780150D01*
X112979879Y-120058628D01*
X113086223Y-120316000D01*
X113282964Y-120513085D01*
X113540150Y-120619878D01*
X113818628Y-120620121D01*
X114076000Y-120513777D01*
X114224183Y-120365852D01*
X114286223Y-120516000D01*
X114482964Y-120713085D01*
X114740150Y-120819878D01*
X115018628Y-120820121D01*
X115276000Y-120713777D01*
X115473085Y-120517036D01*
X115579878Y-120259850D01*
X115580121Y-119981372D01*
X115473777Y-119724000D01*
X115280000Y-119529884D01*
X115280000Y-110920005D01*
X115280001Y-110920000D01*
X115249552Y-110766926D01*
X115162843Y-110637157D01*
X112962843Y-108437157D01*
X112833074Y-108350448D01*
X112680000Y-108320000D01*
X110408953Y-108320000D01*
X110198081Y-108004408D01*
X110041824Y-107900000D01*
X111700000Y-107900000D01*
X111853074Y-107869552D01*
X111982843Y-107782843D01*
X113782840Y-105982845D01*
X113782843Y-105982843D01*
X113869552Y-105853073D01*
X113900000Y-105700000D01*
X113900000Y-97507325D01*
X113986223Y-97716000D01*
X114182964Y-97913085D01*
X114440150Y-98019878D01*
X114718628Y-98020121D01*
X114976000Y-97913777D01*
X115173085Y-97717036D01*
X115279878Y-97459850D01*
X115280121Y-97181372D01*
X115180000Y-96939061D01*
X115180000Y-84800383D01*
X115279878Y-84559850D01*
X115280121Y-84281372D01*
X115173777Y-84024000D01*
X114977036Y-83826915D01*
X114719850Y-83720122D01*
X114441372Y-83719879D01*
X114184000Y-83826223D01*
X113986915Y-84022964D01*
X113880122Y-84280150D01*
X113879879Y-84558628D01*
X113980000Y-84800939D01*
X113980000Y-92990024D01*
X113897036Y-92906915D01*
X113639850Y-92800122D01*
X113361372Y-92799879D01*
X113199924Y-92866588D01*
X113200121Y-92641372D01*
X113093777Y-92384000D01*
X112897036Y-92186915D01*
X112639850Y-92080122D01*
X112361372Y-92079879D01*
X112104000Y-92186223D01*
X111906915Y-92382964D01*
X111804429Y-92629779D01*
X111793777Y-92604000D01*
X111597036Y-92406915D01*
X111339850Y-92300122D01*
X111061372Y-92299879D01*
X110804000Y-92406223D01*
X110606915Y-92602964D01*
X110500122Y-92860150D01*
X110499879Y-93138628D01*
X110606223Y-93396000D01*
X110800000Y-93590116D01*
X110800000Y-93834314D01*
X110234314Y-94400000D01*
X109892163Y-94400000D01*
X110198081Y-94195592D01*
X110417455Y-93867276D01*
X110494489Y-93480000D01*
X110417455Y-93092724D01*
X110198081Y-92764408D01*
X109869765Y-92545034D01*
X109482489Y-92468000D01*
X108957511Y-92468000D01*
X108570235Y-92545034D01*
X108241919Y-92764408D01*
X108022545Y-93092724D01*
X107950000Y-93457432D01*
X107877455Y-93092724D01*
X107658081Y-92764408D01*
X107329765Y-92545034D01*
X106942489Y-92468000D01*
X106417511Y-92468000D01*
X106030235Y-92545034D01*
X105701919Y-92764408D01*
X105482545Y-93092724D01*
X105405511Y-93480000D01*
X105482545Y-93867276D01*
X105701919Y-94195592D01*
X106007837Y-94400000D01*
X104800000Y-94400000D01*
X104646926Y-94430448D01*
X104517157Y-94517157D01*
X103917157Y-95117157D01*
X103830448Y-95246926D01*
X103830448Y-95246927D01*
X103800000Y-95400000D01*
X101020000Y-95400000D01*
X101020000Y-91147503D01*
X105451502Y-91147503D01*
X105487899Y-91281082D01*
X105691052Y-91620237D01*
X106008530Y-91855832D01*
X106392000Y-91952000D01*
X106630000Y-91952000D01*
X106630000Y-90990000D01*
X106730000Y-90990000D01*
X106730000Y-91952000D01*
X106968000Y-91952000D01*
X107351470Y-91855832D01*
X107668948Y-91620237D01*
X107872101Y-91281082D01*
X107908498Y-91147503D01*
X107866183Y-90990000D01*
X106730000Y-90990000D01*
X106630000Y-90990000D01*
X105493817Y-90990000D01*
X105451502Y-91147503D01*
X101020000Y-91147503D01*
X101020000Y-90940000D01*
X107945511Y-90940000D01*
X108022545Y-91327276D01*
X108241919Y-91655592D01*
X108570235Y-91874966D01*
X108957511Y-91952000D01*
X109482489Y-91952000D01*
X109869765Y-91874966D01*
X110198081Y-91655592D01*
X110417455Y-91327276D01*
X110494489Y-90940000D01*
X110417455Y-90552724D01*
X110198081Y-90224408D01*
X109869765Y-90005034D01*
X109482489Y-89928000D01*
X108957511Y-89928000D01*
X108570235Y-90005034D01*
X108241919Y-90224408D01*
X108022545Y-90552724D01*
X107945511Y-90940000D01*
X101020000Y-90940000D01*
X101020000Y-90732497D01*
X105451502Y-90732497D01*
X105493817Y-90890000D01*
X106630000Y-90890000D01*
X106630000Y-89928000D01*
X106730000Y-89928000D01*
X106730000Y-90890000D01*
X107866183Y-90890000D01*
X107908498Y-90732497D01*
X107872101Y-90598918D01*
X107668948Y-90259763D01*
X107351470Y-90024168D01*
X106968000Y-89928000D01*
X106730000Y-89928000D01*
X106630000Y-89928000D01*
X106392000Y-89928000D01*
X106008530Y-90024168D01*
X105691052Y-90259763D01*
X105487899Y-90598918D01*
X105451502Y-90732497D01*
X101020000Y-90732497D01*
X101020000Y-88607503D01*
X105451502Y-88607503D01*
X105487899Y-88741082D01*
X105691052Y-89080237D01*
X106008530Y-89315832D01*
X106392000Y-89412000D01*
X106630000Y-89412000D01*
X106630000Y-88450000D01*
X106730000Y-88450000D01*
X106730000Y-89412000D01*
X106968000Y-89412000D01*
X107351470Y-89315832D01*
X107668948Y-89080237D01*
X107872101Y-88741082D01*
X107908498Y-88607503D01*
X107866183Y-88450000D01*
X106730000Y-88450000D01*
X106630000Y-88450000D01*
X105493817Y-88450000D01*
X105451502Y-88607503D01*
X101020000Y-88607503D01*
X101020000Y-88400000D01*
X107945511Y-88400000D01*
X108022545Y-88787276D01*
X108241919Y-89115592D01*
X108570235Y-89334966D01*
X108957511Y-89412000D01*
X109482489Y-89412000D01*
X109869765Y-89334966D01*
X110198081Y-89115592D01*
X110417455Y-88787276D01*
X110494489Y-88400000D01*
X110417455Y-88012724D01*
X110198081Y-87684408D01*
X109869765Y-87465034D01*
X109482489Y-87388000D01*
X108957511Y-87388000D01*
X108570235Y-87465034D01*
X108241919Y-87684408D01*
X108022545Y-88012724D01*
X107945511Y-88400000D01*
X101020000Y-88400000D01*
X101020000Y-88192497D01*
X105451502Y-88192497D01*
X105493817Y-88350000D01*
X106630000Y-88350000D01*
X106630000Y-87388000D01*
X106730000Y-87388000D01*
X106730000Y-88350000D01*
X107866183Y-88350000D01*
X107908498Y-88192497D01*
X107872101Y-88058918D01*
X107668948Y-87719763D01*
X107351470Y-87484168D01*
X106968000Y-87388000D01*
X106730000Y-87388000D01*
X106630000Y-87388000D01*
X106392000Y-87388000D01*
X106008530Y-87484168D01*
X105691052Y-87719763D01*
X105487899Y-88058918D01*
X105451502Y-88192497D01*
X101020000Y-88192497D01*
X101020000Y-86067503D01*
X105451502Y-86067503D01*
X105487899Y-86201082D01*
X105691052Y-86540237D01*
X106008530Y-86775832D01*
X106392000Y-86872000D01*
X106630000Y-86872000D01*
X106630000Y-85910000D01*
X106730000Y-85910000D01*
X106730000Y-86872000D01*
X106968000Y-86872000D01*
X107351470Y-86775832D01*
X107668948Y-86540237D01*
X107872101Y-86201082D01*
X107908498Y-86067503D01*
X107866183Y-85910000D01*
X106730000Y-85910000D01*
X106630000Y-85910000D01*
X105493817Y-85910000D01*
X105451502Y-86067503D01*
X101020000Y-86067503D01*
X101020000Y-85860000D01*
X107945511Y-85860000D01*
X108022545Y-86247276D01*
X108241919Y-86575592D01*
X108570235Y-86794966D01*
X108957511Y-86872000D01*
X109482489Y-86872000D01*
X109869765Y-86794966D01*
X110198081Y-86575592D01*
X110417455Y-86247276D01*
X110494489Y-85860000D01*
X110417455Y-85472724D01*
X110198081Y-85144408D01*
X109869765Y-84925034D01*
X109482489Y-84848000D01*
X108957511Y-84848000D01*
X108570235Y-84925034D01*
X108241919Y-85144408D01*
X108022545Y-85472724D01*
X107945511Y-85860000D01*
X101020000Y-85860000D01*
X101020000Y-85652497D01*
X105451502Y-85652497D01*
X105493817Y-85810000D01*
X106630000Y-85810000D01*
X106630000Y-84848000D01*
X106730000Y-84848000D01*
X106730000Y-85810000D01*
X107866183Y-85810000D01*
X107908498Y-85652497D01*
X107872101Y-85518918D01*
X107668948Y-85179763D01*
X107351470Y-84944168D01*
X106968000Y-84848000D01*
X106730000Y-84848000D01*
X106630000Y-84848000D01*
X106392000Y-84848000D01*
X106008530Y-84944168D01*
X105691052Y-85179763D01*
X105487899Y-85518918D01*
X105451502Y-85652497D01*
X101020000Y-85652497D01*
X101020000Y-82558000D01*
X105425103Y-82558000D01*
X105425103Y-84082000D01*
X105442535Y-84174644D01*
X105497288Y-84259732D01*
X105580831Y-84316815D01*
X105680000Y-84336897D01*
X107680000Y-84336897D01*
X107772644Y-84319465D01*
X107857732Y-84264712D01*
X107914815Y-84181169D01*
X107934897Y-84082000D01*
X107934897Y-83320000D01*
X107945511Y-83320000D01*
X108022545Y-83707276D01*
X108241919Y-84035592D01*
X108570235Y-84254966D01*
X108957511Y-84332000D01*
X109482489Y-84332000D01*
X109869765Y-84254966D01*
X110198081Y-84035592D01*
X110417455Y-83707276D01*
X110494489Y-83320000D01*
X110417455Y-82932724D01*
X110198081Y-82604408D01*
X109869765Y-82385034D01*
X109482489Y-82308000D01*
X108957511Y-82308000D01*
X108570235Y-82385034D01*
X108241919Y-82604408D01*
X108022545Y-82932724D01*
X107945511Y-83320000D01*
X107934897Y-83320000D01*
X107934897Y-82558000D01*
X107917465Y-82465356D01*
X107862712Y-82380268D01*
X107779169Y-82323185D01*
X107680000Y-82303103D01*
X105680000Y-82303103D01*
X105587356Y-82320535D01*
X105502268Y-82375288D01*
X105445185Y-82458831D01*
X105425103Y-82558000D01*
X101020000Y-82558000D01*
X101020000Y-81538628D01*
X115699879Y-81538628D01*
X115806223Y-81796000D01*
X116002964Y-81993085D01*
X116245101Y-82093629D01*
X116600000Y-82448528D01*
X116600000Y-123510041D01*
X116506915Y-123602964D01*
X116400122Y-123860150D01*
X116399879Y-124138628D01*
X116506223Y-124396000D01*
X116702964Y-124593085D01*
X116960150Y-124699878D01*
X117238628Y-124700121D01*
X117496000Y-124593777D01*
X117693085Y-124397036D01*
X117799878Y-124139850D01*
X117800121Y-123861372D01*
X117800000Y-123861079D01*
X117800000Y-82200000D01*
X117754328Y-81970390D01*
X117624264Y-81775736D01*
X117093235Y-81244707D01*
X116993777Y-81004000D01*
X116797036Y-80806915D01*
X116539850Y-80700122D01*
X116261372Y-80699879D01*
X116004000Y-80806223D01*
X115806915Y-81002964D01*
X115700122Y-81260150D01*
X115699879Y-81538628D01*
X101020000Y-81538628D01*
X101020000Y-73636001D01*
X102434710Y-73636001D01*
X102673163Y-73911300D01*
X103505585Y-74273570D01*
X104413278Y-74289709D01*
X104485182Y-74261412D01*
X107679772Y-74261412D01*
X107880306Y-74746743D01*
X108251304Y-75118389D01*
X108736284Y-75319770D01*
X109261412Y-75320228D01*
X109746743Y-75119694D01*
X110118389Y-74748696D01*
X110319770Y-74263716D01*
X110320228Y-73738588D01*
X110119694Y-73253257D01*
X109748696Y-72881611D01*
X109263716Y-72680230D01*
X108738588Y-72679772D01*
X108253257Y-72880306D01*
X107881611Y-73251304D01*
X107680230Y-73736284D01*
X107679772Y-74261412D01*
X104485182Y-74261412D01*
X105258053Y-73957260D01*
X105326837Y-73911300D01*
X105565290Y-73636001D01*
X104000000Y-72070711D01*
X102434710Y-73636001D01*
X101020000Y-73636001D01*
X101020000Y-72413278D01*
X101710291Y-72413278D01*
X102042740Y-73258053D01*
X102088700Y-73326837D01*
X102363999Y-73565290D01*
X103929289Y-72000000D01*
X104070711Y-72000000D01*
X105636001Y-73565290D01*
X105911300Y-73326837D01*
X106273570Y-72494415D01*
X106289709Y-71586722D01*
X105957260Y-70741947D01*
X105911300Y-70673163D01*
X105636001Y-70434710D01*
X104070711Y-72000000D01*
X103929289Y-72000000D01*
X102363999Y-70434710D01*
X102088700Y-70673163D01*
X101726430Y-71505585D01*
X101710291Y-72413278D01*
X101020000Y-72413278D01*
X101020000Y-70363999D01*
X102434710Y-70363999D01*
X104000000Y-71929289D01*
X105565290Y-70363999D01*
X105326837Y-70088700D01*
X104494415Y-69726430D01*
X103586722Y-69710291D01*
X102741947Y-70042740D01*
X102673163Y-70088700D01*
X102434710Y-70363999D01*
X101020000Y-70363999D01*
X101020000Y-68550000D01*
X117920000Y-68550000D01*
X117920000Y-147450000D01*
X117920000Y-147450000D01*
G37*
X117920000Y-147450000D02*
X101020000Y-147450000D01*
X101020000Y-146136001D01*
X102434710Y-146136001D01*
X102673163Y-146411300D01*
X103505585Y-146773570D01*
X104413278Y-146789709D01*
X105258053Y-146457260D01*
X105326837Y-146411300D01*
X105565290Y-146136001D01*
X104000000Y-144570711D01*
X102434710Y-146136001D01*
X101020000Y-146136001D01*
X101020000Y-144913278D01*
X101710291Y-144913278D01*
X102042740Y-145758053D01*
X102088700Y-145826837D01*
X102363999Y-146065290D01*
X103929289Y-144500000D01*
X104070711Y-144500000D01*
X105636001Y-146065290D01*
X105911300Y-145826837D01*
X106273570Y-144994415D01*
X106289709Y-144086722D01*
X105964921Y-143261412D01*
X106679772Y-143261412D01*
X106880306Y-143746743D01*
X107251304Y-144118389D01*
X107736284Y-144319770D01*
X108261412Y-144320228D01*
X108746743Y-144119694D01*
X109118389Y-143748696D01*
X109319770Y-143263716D01*
X109320228Y-142738588D01*
X109119694Y-142253257D01*
X108748696Y-141881611D01*
X108263716Y-141680230D01*
X107738588Y-141679772D01*
X107253257Y-141880306D01*
X106881611Y-142251304D01*
X106680230Y-142736284D01*
X106679772Y-143261412D01*
X105964921Y-143261412D01*
X105957260Y-143241947D01*
X105911300Y-143173163D01*
X105636001Y-142934710D01*
X104070711Y-144500000D01*
X103929289Y-144500000D01*
X102363999Y-142934710D01*
X102088700Y-143173163D01*
X101726430Y-144005585D01*
X101710291Y-144913278D01*
X101020000Y-144913278D01*
X101020000Y-142863999D01*
X102434710Y-142863999D01*
X104000000Y-144429289D01*
X105565290Y-142863999D01*
X105326837Y-142588700D01*
X104494415Y-142226430D01*
X103586722Y-142210291D01*
X102741947Y-142542740D01*
X102673163Y-142588700D01*
X102434710Y-142863999D01*
X101020000Y-142863999D01*
X101020000Y-131787503D01*
X105451502Y-131787503D01*
X105487899Y-131921082D01*
X105691052Y-132260237D01*
X106008530Y-132495832D01*
X106392000Y-132592000D01*
X106630000Y-132592000D01*
X106630000Y-131630000D01*
X106730000Y-131630000D01*
X106730000Y-132592000D01*
X106968000Y-132592000D01*
X107351470Y-132495832D01*
X107668948Y-132260237D01*
X107872101Y-131921082D01*
X107908498Y-131787503D01*
X107866183Y-131630000D01*
X106730000Y-131630000D01*
X106630000Y-131630000D01*
X105493817Y-131630000D01*
X105451502Y-131787503D01*
X101020000Y-131787503D01*
X101020000Y-131580000D01*
X107945511Y-131580000D01*
X108022545Y-131967276D01*
X108241919Y-132295592D01*
X108570235Y-132514966D01*
X108957511Y-132592000D01*
X109482489Y-132592000D01*
X109869765Y-132514966D01*
X110198081Y-132295592D01*
X110417455Y-131967276D01*
X110494489Y-131580000D01*
X110417455Y-131192724D01*
X110198081Y-130864408D01*
X109869765Y-130645034D01*
X109482489Y-130568000D01*
X108957511Y-130568000D01*
X108570235Y-130645034D01*
X108241919Y-130864408D01*
X108022545Y-131192724D01*
X107945511Y-131580000D01*
X101020000Y-131580000D01*
X101020000Y-131372497D01*
X105451502Y-131372497D01*
X105493817Y-131530000D01*
X106630000Y-131530000D01*
X106630000Y-130568000D01*
X106730000Y-130568000D01*
X106730000Y-131530000D01*
X107866183Y-131530000D01*
X107908498Y-131372497D01*
X107872101Y-131238918D01*
X107668948Y-130899763D01*
X107351470Y-130664168D01*
X106968000Y-130568000D01*
X106730000Y-130568000D01*
X106630000Y-130568000D01*
X106392000Y-130568000D01*
X106008530Y-130664168D01*
X105691052Y-130899763D01*
X105487899Y-131238918D01*
X105451502Y-131372497D01*
X101020000Y-131372497D01*
X101020000Y-129247503D01*
X105451502Y-129247503D01*
X105487899Y-129381082D01*
X105691052Y-129720237D01*
X106008530Y-129955832D01*
X106392000Y-130052000D01*
X106630000Y-130052000D01*
X106630000Y-129090000D01*
X106730000Y-129090000D01*
X106730000Y-130052000D01*
X106968000Y-130052000D01*
X107351470Y-129955832D01*
X107668948Y-129720237D01*
X107872101Y-129381082D01*
X107908498Y-129247503D01*
X107866183Y-129090000D01*
X106730000Y-129090000D01*
X106630000Y-129090000D01*
X105493817Y-129090000D01*
X105451502Y-129247503D01*
X101020000Y-129247503D01*
X101020000Y-129040000D01*
X107945511Y-129040000D01*
X108022545Y-129427276D01*
X108241919Y-129755592D01*
X108570235Y-129974966D01*
X108957511Y-130052000D01*
X109482489Y-130052000D01*
X109869765Y-129974966D01*
X110198081Y-129755592D01*
X110417455Y-129427276D01*
X110494489Y-129040000D01*
X110417455Y-128652724D01*
X110198081Y-128324408D01*
X109869765Y-128105034D01*
X109482489Y-128028000D01*
X108957511Y-128028000D01*
X108570235Y-128105034D01*
X108241919Y-128324408D01*
X108022545Y-128652724D01*
X107945511Y-129040000D01*
X101020000Y-129040000D01*
X101020000Y-128832497D01*
X105451502Y-128832497D01*
X105493817Y-128990000D01*
X106630000Y-128990000D01*
X106630000Y-128028000D01*
X106730000Y-128028000D01*
X106730000Y-128990000D01*
X107866183Y-128990000D01*
X107908498Y-128832497D01*
X107872101Y-128698918D01*
X107668948Y-128359763D01*
X107351470Y-128124168D01*
X106968000Y-128028000D01*
X106730000Y-128028000D01*
X106630000Y-128028000D01*
X106392000Y-128028000D01*
X106008530Y-128124168D01*
X105691052Y-128359763D01*
X105487899Y-128698918D01*
X105451502Y-128832497D01*
X101020000Y-128832497D01*
X101020000Y-126500000D01*
X105405511Y-126500000D01*
X105482545Y-126887276D01*
X105701919Y-127215592D01*
X106030235Y-127434966D01*
X106417511Y-127512000D01*
X106942489Y-127512000D01*
X107329765Y-127434966D01*
X107658081Y-127215592D01*
X107877455Y-126887276D01*
X107950000Y-126522568D01*
X108022545Y-126887276D01*
X108241919Y-127215592D01*
X108570235Y-127434966D01*
X108957511Y-127512000D01*
X109482489Y-127512000D01*
X109869765Y-127434966D01*
X110198081Y-127215592D01*
X110417455Y-126887276D01*
X110494489Y-126500000D01*
X110417455Y-126112724D01*
X110198081Y-125784408D01*
X109869765Y-125565034D01*
X109482489Y-125488000D01*
X108957511Y-125488000D01*
X108570235Y-125565034D01*
X108241919Y-125784408D01*
X108022545Y-126112724D01*
X107950000Y-126477432D01*
X107877455Y-126112724D01*
X107658081Y-125784408D01*
X107329765Y-125565034D01*
X106942489Y-125488000D01*
X106417511Y-125488000D01*
X106030235Y-125565034D01*
X105701919Y-125784408D01*
X105482545Y-126112724D01*
X105405511Y-126500000D01*
X101020000Y-126500000D01*
X101020000Y-123960000D01*
X105405511Y-123960000D01*
X105482545Y-124347276D01*
X105701919Y-124675592D01*
X106030235Y-124894966D01*
X106417511Y-124972000D01*
X106942489Y-124972000D01*
X107329765Y-124894966D01*
X107658081Y-124675592D01*
X107877455Y-124347276D01*
X107950000Y-123982568D01*
X108022545Y-124347276D01*
X108241919Y-124675592D01*
X108570235Y-124894966D01*
X108957511Y-124972000D01*
X109482489Y-124972000D01*
X109869765Y-124894966D01*
X110198081Y-124675592D01*
X110417455Y-124347276D01*
X110494489Y-123960000D01*
X110417455Y-123572724D01*
X110198081Y-123244408D01*
X109869765Y-123025034D01*
X109482489Y-122948000D01*
X108957511Y-122948000D01*
X108570235Y-123025034D01*
X108241919Y-123244408D01*
X108022545Y-123572724D01*
X107950000Y-123937432D01*
X107877455Y-123572724D01*
X107658081Y-123244408D01*
X107329765Y-123025034D01*
X106942489Y-122948000D01*
X106417511Y-122948000D01*
X106030235Y-123025034D01*
X105701919Y-123244408D01*
X105482545Y-123572724D01*
X105405511Y-123960000D01*
X101020000Y-123960000D01*
X101020000Y-121420000D01*
X105405511Y-121420000D01*
X105482545Y-121807276D01*
X105701919Y-122135592D01*
X106030235Y-122354966D01*
X106417511Y-122432000D01*
X106942489Y-122432000D01*
X107329765Y-122354966D01*
X107658081Y-122135592D01*
X107877455Y-121807276D01*
X107950000Y-121442568D01*
X108022545Y-121807276D01*
X108241919Y-122135592D01*
X108570235Y-122354966D01*
X108957511Y-122432000D01*
X109482489Y-122432000D01*
X109869765Y-122354966D01*
X110198081Y-122135592D01*
X110417455Y-121807276D01*
X110494489Y-121420000D01*
X110417455Y-121032724D01*
X110198081Y-120704408D01*
X109869765Y-120485034D01*
X109482489Y-120408000D01*
X108957511Y-120408000D01*
X108570235Y-120485034D01*
X108241919Y-120704408D01*
X108022545Y-121032724D01*
X107950000Y-121397432D01*
X107877455Y-121032724D01*
X107658081Y-120704408D01*
X107329765Y-120485034D01*
X106942489Y-120408000D01*
X106417511Y-120408000D01*
X106030235Y-120485034D01*
X105701919Y-120704408D01*
X105482545Y-121032724D01*
X105405511Y-121420000D01*
X101020000Y-121420000D01*
X101020000Y-118880000D01*
X105405511Y-118880000D01*
X105482545Y-119267276D01*
X105701919Y-119595592D01*
X106030235Y-119814966D01*
X106417511Y-119892000D01*
X106942489Y-119892000D01*
X107329765Y-119814966D01*
X107658081Y-119595592D01*
X107877455Y-119267276D01*
X107950000Y-118902568D01*
X108022545Y-119267276D01*
X108241919Y-119595592D01*
X108570235Y-119814966D01*
X108957511Y-119892000D01*
X109482489Y-119892000D01*
X109869765Y-119814966D01*
X110198081Y-119595592D01*
X110417455Y-119267276D01*
X110494489Y-118880000D01*
X110417455Y-118492724D01*
X110198081Y-118164408D01*
X109869765Y-117945034D01*
X109482489Y-117868000D01*
X108957511Y-117868000D01*
X108570235Y-117945034D01*
X108241919Y-118164408D01*
X108022545Y-118492724D01*
X107950000Y-118857432D01*
X107877455Y-118492724D01*
X107658081Y-118164408D01*
X107329765Y-117945034D01*
X106942489Y-117868000D01*
X106417511Y-117868000D01*
X106030235Y-117945034D01*
X105701919Y-118164408D01*
X105482545Y-118492724D01*
X105405511Y-118880000D01*
X101020000Y-118880000D01*
X101020000Y-116547503D01*
X105451502Y-116547503D01*
X105487899Y-116681082D01*
X105691052Y-117020237D01*
X106008530Y-117255832D01*
X106392000Y-117352000D01*
X106630000Y-117352000D01*
X106630000Y-116390000D01*
X106730000Y-116390000D01*
X106730000Y-117352000D01*
X106968000Y-117352000D01*
X107351470Y-117255832D01*
X107668948Y-117020237D01*
X107872101Y-116681082D01*
X107908498Y-116547503D01*
X107866183Y-116390000D01*
X106730000Y-116390000D01*
X106630000Y-116390000D01*
X105493817Y-116390000D01*
X105451502Y-116547503D01*
X101020000Y-116547503D01*
X101020000Y-116132497D01*
X105451502Y-116132497D01*
X105493817Y-116290000D01*
X106630000Y-116290000D01*
X106630000Y-115328000D01*
X106730000Y-115328000D01*
X106730000Y-116290000D01*
X107866183Y-116290000D01*
X107908498Y-116132497D01*
X107872101Y-115998918D01*
X107668948Y-115659763D01*
X107351470Y-115424168D01*
X106968000Y-115328000D01*
X106730000Y-115328000D01*
X106630000Y-115328000D01*
X106392000Y-115328000D01*
X106008530Y-115424168D01*
X105691052Y-115659763D01*
X105487899Y-115998918D01*
X105451502Y-116132497D01*
X101020000Y-116132497D01*
X101020000Y-114007503D01*
X105451502Y-114007503D01*
X105487899Y-114141082D01*
X105691052Y-114480237D01*
X106008530Y-114715832D01*
X106392000Y-114812000D01*
X106630000Y-114812000D01*
X106630000Y-113850000D01*
X106730000Y-113850000D01*
X106730000Y-114812000D01*
X106968000Y-114812000D01*
X107351470Y-114715832D01*
X107668948Y-114480237D01*
X107872101Y-114141082D01*
X107908498Y-114007503D01*
X107866183Y-113850000D01*
X106730000Y-113850000D01*
X106630000Y-113850000D01*
X105493817Y-113850000D01*
X105451502Y-114007503D01*
X101020000Y-114007503D01*
X101020000Y-113800000D01*
X107945511Y-113800000D01*
X108022545Y-114187276D01*
X108241919Y-114515592D01*
X108570235Y-114734966D01*
X108957511Y-114812000D01*
X109482489Y-114812000D01*
X109869765Y-114734966D01*
X110198081Y-114515592D01*
X110408953Y-114200000D01*
X111094314Y-114200000D01*
X111980000Y-115085686D01*
X111980000Y-121030059D01*
X111880000Y-120929884D01*
X111880000Y-116820005D01*
X111880001Y-116820000D01*
X111849552Y-116666927D01*
X111820096Y-116622843D01*
X111762843Y-116537157D01*
X111762840Y-116537155D01*
X111282843Y-116057157D01*
X111153074Y-115970448D01*
X111000000Y-115940000D01*
X110408953Y-115940000D01*
X110198081Y-115624408D01*
X109869765Y-115405034D01*
X109482489Y-115328000D01*
X108957511Y-115328000D01*
X108570235Y-115405034D01*
X108241919Y-115624408D01*
X108022545Y-115952724D01*
X107945511Y-116340000D01*
X108022545Y-116727276D01*
X108241919Y-117055592D01*
X108570235Y-117274966D01*
X108957511Y-117352000D01*
X109482489Y-117352000D01*
X109869765Y-117274966D01*
X110198081Y-117055592D01*
X110408953Y-116740000D01*
X110834314Y-116740000D01*
X111080000Y-116985685D01*
X111080000Y-120930216D01*
X110886915Y-121122964D01*
X110780122Y-121380150D01*
X110779879Y-121658628D01*
X110886223Y-121916000D01*
X111082964Y-122113085D01*
X111340150Y-122219878D01*
X111618628Y-122220121D01*
X111876000Y-122113777D01*
X111980000Y-122009959D01*
X111980000Y-122130216D01*
X111786915Y-122322964D01*
X111680122Y-122580150D01*
X111679879Y-122858628D01*
X111786223Y-123116000D01*
X111982964Y-123313085D01*
X112240150Y-123419878D01*
X112518628Y-123420121D01*
X112776000Y-123313777D01*
X112973085Y-123117036D01*
X113079878Y-122859850D01*
X113080121Y-122581372D01*
X112973777Y-122324000D01*
X112780000Y-122129884D01*
X112780000Y-114920000D01*
X112749552Y-114766927D01*
X112749552Y-114766926D01*
X112662843Y-114637157D01*
X111542843Y-113517157D01*
X111413074Y-113430448D01*
X111260000Y-113400000D01*
X110408953Y-113400000D01*
X110198081Y-113084408D01*
X109869765Y-112865034D01*
X109482489Y-112788000D01*
X108957511Y-112788000D01*
X108570235Y-112865034D01*
X108241919Y-113084408D01*
X108022545Y-113412724D01*
X107945511Y-113800000D01*
X101020000Y-113800000D01*
X101020000Y-113592497D01*
X105451502Y-113592497D01*
X105493817Y-113750000D01*
X106630000Y-113750000D01*
X106630000Y-112788000D01*
X106730000Y-112788000D01*
X106730000Y-113750000D01*
X107866183Y-113750000D01*
X107908498Y-113592497D01*
X107872101Y-113458918D01*
X107668948Y-113119763D01*
X107351470Y-112884168D01*
X106968000Y-112788000D01*
X106730000Y-112788000D01*
X106630000Y-112788000D01*
X106392000Y-112788000D01*
X106008530Y-112884168D01*
X105691052Y-113119763D01*
X105487899Y-113458918D01*
X105451502Y-113592497D01*
X101020000Y-113592497D01*
X101020000Y-95400000D01*
X103800000Y-95400000D01*
X103800000Y-110700000D01*
X103830448Y-110853074D01*
X103917157Y-110982843D01*
X104477155Y-111542840D01*
X104477157Y-111542843D01*
X104606927Y-111629552D01*
X104760000Y-111660001D01*
X104760005Y-111660000D01*
X105491047Y-111660000D01*
X105701919Y-111975592D01*
X106030235Y-112194966D01*
X106417511Y-112272000D01*
X106942489Y-112272000D01*
X107329765Y-112194966D01*
X107658081Y-111975592D01*
X107877455Y-111647276D01*
X107950000Y-111282568D01*
X108022545Y-111647276D01*
X108241919Y-111975592D01*
X108570235Y-112194966D01*
X108957511Y-112272000D01*
X109482489Y-112272000D01*
X109869765Y-112194966D01*
X110198081Y-111975592D01*
X110408953Y-111660000D01*
X112554314Y-111660000D01*
X112980000Y-112085686D01*
X112980000Y-119620000D01*
X113001578Y-119728479D01*
X112980122Y-119780150D01*
X112979879Y-120058628D01*
X113086223Y-120316000D01*
X113282964Y-120513085D01*
X113540150Y-120619878D01*
X113818628Y-120620121D01*
X114076000Y-120513777D01*
X114224183Y-120365852D01*
X114286223Y-120516000D01*
X114482964Y-120713085D01*
X114740150Y-120819878D01*
X115018628Y-120820121D01*
X115276000Y-120713777D01*
X115473085Y-120517036D01*
X115579878Y-120259850D01*
X115580121Y-119981372D01*
X115473777Y-119724000D01*
X115280000Y-119529884D01*
X115280000Y-110920005D01*
X115280001Y-110920000D01*
X115249552Y-110766926D01*
X115162843Y-110637157D01*
X112962843Y-108437157D01*
X112833074Y-108350448D01*
X112680000Y-108320000D01*
X110408953Y-108320000D01*
X110198081Y-108004408D01*
X110041824Y-107900000D01*
X111700000Y-107900000D01*
X111853074Y-107869552D01*
X111982843Y-107782843D01*
X113782840Y-105982845D01*
X113782843Y-105982843D01*
X113869552Y-105853073D01*
X113900000Y-105700000D01*
X113900000Y-97507325D01*
X113986223Y-97716000D01*
X114182964Y-97913085D01*
X114440150Y-98019878D01*
X114718628Y-98020121D01*
X114976000Y-97913777D01*
X115173085Y-97717036D01*
X115279878Y-97459850D01*
X115280121Y-97181372D01*
X115180000Y-96939061D01*
X115180000Y-84800383D01*
X115279878Y-84559850D01*
X115280121Y-84281372D01*
X115173777Y-84024000D01*
X114977036Y-83826915D01*
X114719850Y-83720122D01*
X114441372Y-83719879D01*
X114184000Y-83826223D01*
X113986915Y-84022964D01*
X113880122Y-84280150D01*
X113879879Y-84558628D01*
X113980000Y-84800939D01*
X113980000Y-92990024D01*
X113897036Y-92906915D01*
X113639850Y-92800122D01*
X113361372Y-92799879D01*
X113199924Y-92866588D01*
X113200121Y-92641372D01*
X113093777Y-92384000D01*
X112897036Y-92186915D01*
X112639850Y-92080122D01*
X112361372Y-92079879D01*
X112104000Y-92186223D01*
X111906915Y-92382964D01*
X111804429Y-92629779D01*
X111793777Y-92604000D01*
X111597036Y-92406915D01*
X111339850Y-92300122D01*
X111061372Y-92299879D01*
X110804000Y-92406223D01*
X110606915Y-92602964D01*
X110500122Y-92860150D01*
X110499879Y-93138628D01*
X110606223Y-93396000D01*
X110800000Y-93590116D01*
X110800000Y-93834314D01*
X110234314Y-94400000D01*
X109892163Y-94400000D01*
X110198081Y-94195592D01*
X110417455Y-93867276D01*
X110494489Y-93480000D01*
X110417455Y-93092724D01*
X110198081Y-92764408D01*
X109869765Y-92545034D01*
X109482489Y-92468000D01*
X108957511Y-92468000D01*
X108570235Y-92545034D01*
X108241919Y-92764408D01*
X108022545Y-93092724D01*
X107950000Y-93457432D01*
X107877455Y-93092724D01*
X107658081Y-92764408D01*
X107329765Y-92545034D01*
X106942489Y-92468000D01*
X106417511Y-92468000D01*
X106030235Y-92545034D01*
X105701919Y-92764408D01*
X105482545Y-93092724D01*
X105405511Y-93480000D01*
X105482545Y-93867276D01*
X105701919Y-94195592D01*
X106007837Y-94400000D01*
X104800000Y-94400000D01*
X104646926Y-94430448D01*
X104517157Y-94517157D01*
X103917157Y-95117157D01*
X103830448Y-95246926D01*
X103830448Y-95246927D01*
X103800000Y-95400000D01*
X101020000Y-95400000D01*
X101020000Y-91147503D01*
X105451502Y-91147503D01*
X105487899Y-91281082D01*
X105691052Y-91620237D01*
X106008530Y-91855832D01*
X106392000Y-91952000D01*
X106630000Y-91952000D01*
X106630000Y-90990000D01*
X106730000Y-90990000D01*
X106730000Y-91952000D01*
X106968000Y-91952000D01*
X107351470Y-91855832D01*
X107668948Y-91620237D01*
X107872101Y-91281082D01*
X107908498Y-91147503D01*
X107866183Y-90990000D01*
X106730000Y-90990000D01*
X106630000Y-90990000D01*
X105493817Y-90990000D01*
X105451502Y-91147503D01*
X101020000Y-91147503D01*
X101020000Y-90940000D01*
X107945511Y-90940000D01*
X108022545Y-91327276D01*
X108241919Y-91655592D01*
X108570235Y-91874966D01*
X108957511Y-91952000D01*
X109482489Y-91952000D01*
X109869765Y-91874966D01*
X110198081Y-91655592D01*
X110417455Y-91327276D01*
X110494489Y-90940000D01*
X110417455Y-90552724D01*
X110198081Y-90224408D01*
X109869765Y-90005034D01*
X109482489Y-89928000D01*
X108957511Y-89928000D01*
X108570235Y-90005034D01*
X108241919Y-90224408D01*
X108022545Y-90552724D01*
X107945511Y-90940000D01*
X101020000Y-90940000D01*
X101020000Y-90732497D01*
X105451502Y-90732497D01*
X105493817Y-90890000D01*
X106630000Y-90890000D01*
X106630000Y-89928000D01*
X106730000Y-89928000D01*
X106730000Y-90890000D01*
X107866183Y-90890000D01*
X107908498Y-90732497D01*
X107872101Y-90598918D01*
X107668948Y-90259763D01*
X107351470Y-90024168D01*
X106968000Y-89928000D01*
X106730000Y-89928000D01*
X106630000Y-89928000D01*
X106392000Y-89928000D01*
X106008530Y-90024168D01*
X105691052Y-90259763D01*
X105487899Y-90598918D01*
X105451502Y-90732497D01*
X101020000Y-90732497D01*
X101020000Y-88607503D01*
X105451502Y-88607503D01*
X105487899Y-88741082D01*
X105691052Y-89080237D01*
X106008530Y-89315832D01*
X106392000Y-89412000D01*
X106630000Y-89412000D01*
X106630000Y-88450000D01*
X106730000Y-88450000D01*
X106730000Y-89412000D01*
X106968000Y-89412000D01*
X107351470Y-89315832D01*
X107668948Y-89080237D01*
X107872101Y-88741082D01*
X107908498Y-88607503D01*
X107866183Y-88450000D01*
X106730000Y-88450000D01*
X106630000Y-88450000D01*
X105493817Y-88450000D01*
X105451502Y-88607503D01*
X101020000Y-88607503D01*
X101020000Y-88400000D01*
X107945511Y-88400000D01*
X108022545Y-88787276D01*
X108241919Y-89115592D01*
X108570235Y-89334966D01*
X108957511Y-89412000D01*
X109482489Y-89412000D01*
X109869765Y-89334966D01*
X110198081Y-89115592D01*
X110417455Y-88787276D01*
X110494489Y-88400000D01*
X110417455Y-88012724D01*
X110198081Y-87684408D01*
X109869765Y-87465034D01*
X109482489Y-87388000D01*
X108957511Y-87388000D01*
X108570235Y-87465034D01*
X108241919Y-87684408D01*
X108022545Y-88012724D01*
X107945511Y-88400000D01*
X101020000Y-88400000D01*
X101020000Y-88192497D01*
X105451502Y-88192497D01*
X105493817Y-88350000D01*
X106630000Y-88350000D01*
X106630000Y-87388000D01*
X106730000Y-87388000D01*
X106730000Y-88350000D01*
X107866183Y-88350000D01*
X107908498Y-88192497D01*
X107872101Y-88058918D01*
X107668948Y-87719763D01*
X107351470Y-87484168D01*
X106968000Y-87388000D01*
X106730000Y-87388000D01*
X106630000Y-87388000D01*
X106392000Y-87388000D01*
X106008530Y-87484168D01*
X105691052Y-87719763D01*
X105487899Y-88058918D01*
X105451502Y-88192497D01*
X101020000Y-88192497D01*
X101020000Y-86067503D01*
X105451502Y-86067503D01*
X105487899Y-86201082D01*
X105691052Y-86540237D01*
X106008530Y-86775832D01*
X106392000Y-86872000D01*
X106630000Y-86872000D01*
X106630000Y-85910000D01*
X106730000Y-85910000D01*
X106730000Y-86872000D01*
X106968000Y-86872000D01*
X107351470Y-86775832D01*
X107668948Y-86540237D01*
X107872101Y-86201082D01*
X107908498Y-86067503D01*
X107866183Y-85910000D01*
X106730000Y-85910000D01*
X106630000Y-85910000D01*
X105493817Y-85910000D01*
X105451502Y-86067503D01*
X101020000Y-86067503D01*
X101020000Y-85860000D01*
X107945511Y-85860000D01*
X108022545Y-86247276D01*
X108241919Y-86575592D01*
X108570235Y-86794966D01*
X108957511Y-86872000D01*
X109482489Y-86872000D01*
X109869765Y-86794966D01*
X110198081Y-86575592D01*
X110417455Y-86247276D01*
X110494489Y-85860000D01*
X110417455Y-85472724D01*
X110198081Y-85144408D01*
X109869765Y-84925034D01*
X109482489Y-84848000D01*
X108957511Y-84848000D01*
X108570235Y-84925034D01*
X108241919Y-85144408D01*
X108022545Y-85472724D01*
X107945511Y-85860000D01*
X101020000Y-85860000D01*
X101020000Y-85652497D01*
X105451502Y-85652497D01*
X105493817Y-85810000D01*
X106630000Y-85810000D01*
X106630000Y-84848000D01*
X106730000Y-84848000D01*
X106730000Y-85810000D01*
X107866183Y-85810000D01*
X107908498Y-85652497D01*
X107872101Y-85518918D01*
X107668948Y-85179763D01*
X107351470Y-84944168D01*
X106968000Y-84848000D01*
X106730000Y-84848000D01*
X106630000Y-84848000D01*
X106392000Y-84848000D01*
X106008530Y-84944168D01*
X105691052Y-85179763D01*
X105487899Y-85518918D01*
X105451502Y-85652497D01*
X101020000Y-85652497D01*
X101020000Y-82558000D01*
X105425103Y-82558000D01*
X105425103Y-84082000D01*
X105442535Y-84174644D01*
X105497288Y-84259732D01*
X105580831Y-84316815D01*
X105680000Y-84336897D01*
X107680000Y-84336897D01*
X107772644Y-84319465D01*
X107857732Y-84264712D01*
X107914815Y-84181169D01*
X107934897Y-84082000D01*
X107934897Y-83320000D01*
X107945511Y-83320000D01*
X108022545Y-83707276D01*
X108241919Y-84035592D01*
X108570235Y-84254966D01*
X108957511Y-84332000D01*
X109482489Y-84332000D01*
X109869765Y-84254966D01*
X110198081Y-84035592D01*
X110417455Y-83707276D01*
X110494489Y-83320000D01*
X110417455Y-82932724D01*
X110198081Y-82604408D01*
X109869765Y-82385034D01*
X109482489Y-82308000D01*
X108957511Y-82308000D01*
X108570235Y-82385034D01*
X108241919Y-82604408D01*
X108022545Y-82932724D01*
X107945511Y-83320000D01*
X107934897Y-83320000D01*
X107934897Y-82558000D01*
X107917465Y-82465356D01*
X107862712Y-82380268D01*
X107779169Y-82323185D01*
X107680000Y-82303103D01*
X105680000Y-82303103D01*
X105587356Y-82320535D01*
X105502268Y-82375288D01*
X105445185Y-82458831D01*
X105425103Y-82558000D01*
X101020000Y-82558000D01*
X101020000Y-81538628D01*
X115699879Y-81538628D01*
X115806223Y-81796000D01*
X116002964Y-81993085D01*
X116245101Y-82093629D01*
X116600000Y-82448528D01*
X116600000Y-123510041D01*
X116506915Y-123602964D01*
X116400122Y-123860150D01*
X116399879Y-124138628D01*
X116506223Y-124396000D01*
X116702964Y-124593085D01*
X116960150Y-124699878D01*
X117238628Y-124700121D01*
X117496000Y-124593777D01*
X117693085Y-124397036D01*
X117799878Y-124139850D01*
X117800121Y-123861372D01*
X117800000Y-123861079D01*
X117800000Y-82200000D01*
X117754328Y-81970390D01*
X117624264Y-81775736D01*
X117093235Y-81244707D01*
X116993777Y-81004000D01*
X116797036Y-80806915D01*
X116539850Y-80700122D01*
X116261372Y-80699879D01*
X116004000Y-80806223D01*
X115806915Y-81002964D01*
X115700122Y-81260150D01*
X115699879Y-81538628D01*
X101020000Y-81538628D01*
X101020000Y-73636001D01*
X102434710Y-73636001D01*
X102673163Y-73911300D01*
X103505585Y-74273570D01*
X104413278Y-74289709D01*
X104485182Y-74261412D01*
X107679772Y-74261412D01*
X107880306Y-74746743D01*
X108251304Y-75118389D01*
X108736284Y-75319770D01*
X109261412Y-75320228D01*
X109746743Y-75119694D01*
X110118389Y-74748696D01*
X110319770Y-74263716D01*
X110320228Y-73738588D01*
X110119694Y-73253257D01*
X109748696Y-72881611D01*
X109263716Y-72680230D01*
X108738588Y-72679772D01*
X108253257Y-72880306D01*
X107881611Y-73251304D01*
X107680230Y-73736284D01*
X107679772Y-74261412D01*
X104485182Y-74261412D01*
X105258053Y-73957260D01*
X105326837Y-73911300D01*
X105565290Y-73636001D01*
X104000000Y-72070711D01*
X102434710Y-73636001D01*
X101020000Y-73636001D01*
X101020000Y-72413278D01*
X101710291Y-72413278D01*
X102042740Y-73258053D01*
X102088700Y-73326837D01*
X102363999Y-73565290D01*
X103929289Y-72000000D01*
X104070711Y-72000000D01*
X105636001Y-73565290D01*
X105911300Y-73326837D01*
X106273570Y-72494415D01*
X106289709Y-71586722D01*
X105957260Y-70741947D01*
X105911300Y-70673163D01*
X105636001Y-70434710D01*
X104070711Y-72000000D01*
X103929289Y-72000000D01*
X102363999Y-70434710D01*
X102088700Y-70673163D01*
X101726430Y-71505585D01*
X101710291Y-72413278D01*
X101020000Y-72413278D01*
X101020000Y-70363999D01*
X102434710Y-70363999D01*
X104000000Y-71929289D01*
X105565290Y-70363999D01*
X105326837Y-70088700D01*
X104494415Y-69726430D01*
X103586722Y-69710291D01*
X102741947Y-70042740D01*
X102673163Y-70088700D01*
X102434710Y-70363999D01*
X101020000Y-70363999D01*
X101020000Y-68550000D01*
X117920000Y-68550000D01*
X117920000Y-147450000D01*
G36*
X111906223Y-93176000D02*
X112102964Y-93373085D01*
X112110000Y-93376007D01*
X112110000Y-104384314D01*
X110714314Y-105780000D01*
X110408953Y-105780000D01*
X110198081Y-105464408D01*
X109869765Y-105245034D01*
X109482489Y-105168000D01*
X108957511Y-105168000D01*
X108570235Y-105245034D01*
X108241919Y-105464408D01*
X108022545Y-105792724D01*
X107945511Y-106180000D01*
X108022545Y-106567276D01*
X108241919Y-106895592D01*
X108547837Y-107100000D01*
X107900005Y-107100000D01*
X107900000Y-107099999D01*
X107746927Y-107130448D01*
X107617157Y-107217157D01*
X107617155Y-107217160D01*
X107095816Y-107738499D01*
X106942489Y-107708000D01*
X106417511Y-107708000D01*
X106030235Y-107785034D01*
X105701919Y-108004408D01*
X105482545Y-108332724D01*
X105405511Y-108720000D01*
X105482545Y-109107276D01*
X105701919Y-109435592D01*
X106030235Y-109654966D01*
X106417511Y-109732000D01*
X106942489Y-109732000D01*
X107329765Y-109654966D01*
X107658081Y-109435592D01*
X107877455Y-109107276D01*
X107950000Y-108742568D01*
X108022545Y-109107276D01*
X108241919Y-109435592D01*
X108570235Y-109654966D01*
X108957511Y-109732000D01*
X109482489Y-109732000D01*
X109869765Y-109654966D01*
X110198081Y-109435592D01*
X110408953Y-109120000D01*
X112514314Y-109120000D01*
X114480000Y-111085686D01*
X114480000Y-119530216D01*
X114335817Y-119674148D01*
X114273777Y-119524000D01*
X114077036Y-119326915D01*
X113819850Y-119220122D01*
X113780000Y-119220087D01*
X113780000Y-111920000D01*
X113749552Y-111766927D01*
X113749552Y-111766926D01*
X113662843Y-111637157D01*
X113002843Y-110977157D01*
X112873074Y-110890448D01*
X112720000Y-110860000D01*
X110408953Y-110860000D01*
X110198081Y-110544408D01*
X109869765Y-110325034D01*
X109482489Y-110248000D01*
X108957511Y-110248000D01*
X108570235Y-110325034D01*
X108241919Y-110544408D01*
X108022545Y-110872724D01*
X107950000Y-111237432D01*
X107877455Y-110872724D01*
X107658081Y-110544408D01*
X107329765Y-110325034D01*
X106942489Y-110248000D01*
X106417511Y-110248000D01*
X106030235Y-110325034D01*
X105701919Y-110544408D01*
X105491047Y-110860000D01*
X104925685Y-110860000D01*
X104600000Y-110534314D01*
X104600000Y-106387503D01*
X105451502Y-106387503D01*
X105487899Y-106521082D01*
X105691052Y-106860237D01*
X106008530Y-107095832D01*
X106392000Y-107192000D01*
X106630000Y-107192000D01*
X106630000Y-106230000D01*
X106730000Y-106230000D01*
X106730000Y-107192000D01*
X106968000Y-107192000D01*
X107351470Y-107095832D01*
X107668948Y-106860237D01*
X107872101Y-106521082D01*
X107908498Y-106387503D01*
X107866183Y-106230000D01*
X106730000Y-106230000D01*
X106630000Y-106230000D01*
X105493817Y-106230000D01*
X105451502Y-106387503D01*
X104600000Y-106387503D01*
X104600000Y-105972497D01*
X105451502Y-105972497D01*
X105493817Y-106130000D01*
X106630000Y-106130000D01*
X106630000Y-105168000D01*
X106730000Y-105168000D01*
X106730000Y-106130000D01*
X107866183Y-106130000D01*
X107908498Y-105972497D01*
X107872101Y-105838918D01*
X107668948Y-105499763D01*
X107351470Y-105264168D01*
X106968000Y-105168000D01*
X106730000Y-105168000D01*
X106630000Y-105168000D01*
X106392000Y-105168000D01*
X106008530Y-105264168D01*
X105691052Y-105499763D01*
X105487899Y-105838918D01*
X105451502Y-105972497D01*
X104600000Y-105972497D01*
X104600000Y-103847503D01*
X105451502Y-103847503D01*
X105487899Y-103981082D01*
X105691052Y-104320237D01*
X106008530Y-104555832D01*
X106392000Y-104652000D01*
X106630000Y-104652000D01*
X106630000Y-103690000D01*
X106730000Y-103690000D01*
X106730000Y-104652000D01*
X106968000Y-104652000D01*
X107351470Y-104555832D01*
X107668948Y-104320237D01*
X107872101Y-103981082D01*
X107908498Y-103847503D01*
X107866183Y-103690000D01*
X106730000Y-103690000D01*
X106630000Y-103690000D01*
X105493817Y-103690000D01*
X105451502Y-103847503D01*
X104600000Y-103847503D01*
X104600000Y-103640000D01*
X107945511Y-103640000D01*
X108022545Y-104027276D01*
X108241919Y-104355592D01*
X108570235Y-104574966D01*
X108957511Y-104652000D01*
X109482489Y-104652000D01*
X109869765Y-104574966D01*
X110198081Y-104355592D01*
X110417455Y-104027276D01*
X110494489Y-103640000D01*
X110417455Y-103252724D01*
X110198081Y-102924408D01*
X109869765Y-102705034D01*
X109482489Y-102628000D01*
X108957511Y-102628000D01*
X108570235Y-102705034D01*
X108241919Y-102924408D01*
X108022545Y-103252724D01*
X107945511Y-103640000D01*
X104600000Y-103640000D01*
X104600000Y-103432497D01*
X105451502Y-103432497D01*
X105493817Y-103590000D01*
X106630000Y-103590000D01*
X106630000Y-102628000D01*
X106730000Y-102628000D01*
X106730000Y-103590000D01*
X107866183Y-103590000D01*
X107908498Y-103432497D01*
X107872101Y-103298918D01*
X107668948Y-102959763D01*
X107351470Y-102724168D01*
X106968000Y-102628000D01*
X106730000Y-102628000D01*
X106630000Y-102628000D01*
X106392000Y-102628000D01*
X106008530Y-102724168D01*
X105691052Y-102959763D01*
X105487899Y-103298918D01*
X105451502Y-103432497D01*
X104600000Y-103432497D01*
X104600000Y-101100000D01*
X105405511Y-101100000D01*
X105482545Y-101487276D01*
X105701919Y-101815592D01*
X106030235Y-102034966D01*
X106417511Y-102112000D01*
X106942489Y-102112000D01*
X107329765Y-102034966D01*
X107658081Y-101815592D01*
X107877455Y-101487276D01*
X107950000Y-101122568D01*
X108022545Y-101487276D01*
X108241919Y-101815592D01*
X108570235Y-102034966D01*
X108957511Y-102112000D01*
X109482489Y-102112000D01*
X109869765Y-102034966D01*
X110198081Y-101815592D01*
X110417455Y-101487276D01*
X110494489Y-101100000D01*
X110417455Y-100712724D01*
X110198081Y-100384408D01*
X109869765Y-100165034D01*
X109482489Y-100088000D01*
X108957511Y-100088000D01*
X108570235Y-100165034D01*
X108241919Y-100384408D01*
X108022545Y-100712724D01*
X107950000Y-101077432D01*
X107877455Y-100712724D01*
X107658081Y-100384408D01*
X107329765Y-100165034D01*
X106942489Y-100088000D01*
X106417511Y-100088000D01*
X106030235Y-100165034D01*
X105701919Y-100384408D01*
X105482545Y-100712724D01*
X105405511Y-101100000D01*
X104600000Y-101100000D01*
X104600000Y-98767503D01*
X105451502Y-98767503D01*
X105487899Y-98901082D01*
X105691052Y-99240237D01*
X106008530Y-99475832D01*
X106392000Y-99572000D01*
X106630000Y-99572000D01*
X106630000Y-98610000D01*
X106730000Y-98610000D01*
X106730000Y-99572000D01*
X106968000Y-99572000D01*
X107351470Y-99475832D01*
X107668948Y-99240237D01*
X107872101Y-98901082D01*
X107908498Y-98767503D01*
X107866183Y-98610000D01*
X106730000Y-98610000D01*
X106630000Y-98610000D01*
X105493817Y-98610000D01*
X105451502Y-98767503D01*
X104600000Y-98767503D01*
X104600000Y-98560000D01*
X107945511Y-98560000D01*
X108022545Y-98947276D01*
X108241919Y-99275592D01*
X108570235Y-99494966D01*
X108957511Y-99572000D01*
X109482489Y-99572000D01*
X109869765Y-99494966D01*
X110198081Y-99275592D01*
X110417455Y-98947276D01*
X110494489Y-98560000D01*
X110417455Y-98172724D01*
X110198081Y-97844408D01*
X109869765Y-97625034D01*
X109482489Y-97548000D01*
X108957511Y-97548000D01*
X108570235Y-97625034D01*
X108241919Y-97844408D01*
X108022545Y-98172724D01*
X107945511Y-98560000D01*
X104600000Y-98560000D01*
X104600000Y-98352497D01*
X105451502Y-98352497D01*
X105493817Y-98510000D01*
X106630000Y-98510000D01*
X106630000Y-97548000D01*
X106730000Y-97548000D01*
X106730000Y-98510000D01*
X107866183Y-98510000D01*
X107908498Y-98352497D01*
X107872101Y-98218918D01*
X107668948Y-97879763D01*
X107351470Y-97644168D01*
X106968000Y-97548000D01*
X106730000Y-97548000D01*
X106630000Y-97548000D01*
X106392000Y-97548000D01*
X106008530Y-97644168D01*
X105691052Y-97879763D01*
X105487899Y-98218918D01*
X105451502Y-98352497D01*
X104600000Y-98352497D01*
X104600000Y-96227503D01*
X105451502Y-96227503D01*
X105487899Y-96361082D01*
X105691052Y-96700237D01*
X106008530Y-96935832D01*
X106392000Y-97032000D01*
X106630000Y-97032000D01*
X106630000Y-96070000D01*
X106730000Y-96070000D01*
X106730000Y-97032000D01*
X106968000Y-97032000D01*
X107351470Y-96935832D01*
X107668948Y-96700237D01*
X107872101Y-96361082D01*
X107908498Y-96227503D01*
X107866183Y-96070000D01*
X106730000Y-96070000D01*
X106630000Y-96070000D01*
X105493817Y-96070000D01*
X105451502Y-96227503D01*
X104600000Y-96227503D01*
X104600000Y-95565686D01*
X104965686Y-95200000D01*
X105879391Y-95200000D01*
X105691052Y-95339763D01*
X105487899Y-95678918D01*
X105451502Y-95812497D01*
X105493817Y-95970000D01*
X106630000Y-95970000D01*
X106630000Y-95950000D01*
X106730000Y-95950000D01*
X106730000Y-95970000D01*
X107866183Y-95970000D01*
X107908498Y-95812497D01*
X107872101Y-95678918D01*
X107668948Y-95339763D01*
X107480609Y-95200000D01*
X108398176Y-95200000D01*
X108241919Y-95304408D01*
X108022545Y-95632724D01*
X107945511Y-96020000D01*
X108022545Y-96407276D01*
X108241919Y-96735592D01*
X108570235Y-96954966D01*
X108957511Y-97032000D01*
X109482489Y-97032000D01*
X109869765Y-96954966D01*
X110198081Y-96735592D01*
X110417455Y-96407276D01*
X110494489Y-96020000D01*
X110417455Y-95632724D01*
X110198081Y-95304408D01*
X110041824Y-95200000D01*
X110400000Y-95200000D01*
X110553074Y-95169552D01*
X110682843Y-95082843D01*
X111482843Y-94282843D01*
X111569552Y-94153074D01*
X111600001Y-94000000D01*
X111600000Y-93999995D01*
X111600000Y-93589784D01*
X111793085Y-93397036D01*
X111895571Y-93150221D01*
X111906223Y-93176000D01*
X111906223Y-93176000D01*
G37*
X111906223Y-93176000D02*
X112102964Y-93373085D01*
X112110000Y-93376007D01*
X112110000Y-104384314D01*
X110714314Y-105780000D01*
X110408953Y-105780000D01*
X110198081Y-105464408D01*
X109869765Y-105245034D01*
X109482489Y-105168000D01*
X108957511Y-105168000D01*
X108570235Y-105245034D01*
X108241919Y-105464408D01*
X108022545Y-105792724D01*
X107945511Y-106180000D01*
X108022545Y-106567276D01*
X108241919Y-106895592D01*
X108547837Y-107100000D01*
X107900005Y-107100000D01*
X107900000Y-107099999D01*
X107746927Y-107130448D01*
X107617157Y-107217157D01*
X107617155Y-107217160D01*
X107095816Y-107738499D01*
X106942489Y-107708000D01*
X106417511Y-107708000D01*
X106030235Y-107785034D01*
X105701919Y-108004408D01*
X105482545Y-108332724D01*
X105405511Y-108720000D01*
X105482545Y-109107276D01*
X105701919Y-109435592D01*
X106030235Y-109654966D01*
X106417511Y-109732000D01*
X106942489Y-109732000D01*
X107329765Y-109654966D01*
X107658081Y-109435592D01*
X107877455Y-109107276D01*
X107950000Y-108742568D01*
X108022545Y-109107276D01*
X108241919Y-109435592D01*
X108570235Y-109654966D01*
X108957511Y-109732000D01*
X109482489Y-109732000D01*
X109869765Y-109654966D01*
X110198081Y-109435592D01*
X110408953Y-109120000D01*
X112514314Y-109120000D01*
X114480000Y-111085686D01*
X114480000Y-119530216D01*
X114335817Y-119674148D01*
X114273777Y-119524000D01*
X114077036Y-119326915D01*
X113819850Y-119220122D01*
X113780000Y-119220087D01*
X113780000Y-111920000D01*
X113749552Y-111766927D01*
X113749552Y-111766926D01*
X113662843Y-111637157D01*
X113002843Y-110977157D01*
X112873074Y-110890448D01*
X112720000Y-110860000D01*
X110408953Y-110860000D01*
X110198081Y-110544408D01*
X109869765Y-110325034D01*
X109482489Y-110248000D01*
X108957511Y-110248000D01*
X108570235Y-110325034D01*
X108241919Y-110544408D01*
X108022545Y-110872724D01*
X107950000Y-111237432D01*
X107877455Y-110872724D01*
X107658081Y-110544408D01*
X107329765Y-110325034D01*
X106942489Y-110248000D01*
X106417511Y-110248000D01*
X106030235Y-110325034D01*
X105701919Y-110544408D01*
X105491047Y-110860000D01*
X104925685Y-110860000D01*
X104600000Y-110534314D01*
X104600000Y-106387503D01*
X105451502Y-106387503D01*
X105487899Y-106521082D01*
X105691052Y-106860237D01*
X106008530Y-107095832D01*
X106392000Y-107192000D01*
X106630000Y-107192000D01*
X106630000Y-106230000D01*
X106730000Y-106230000D01*
X106730000Y-107192000D01*
X106968000Y-107192000D01*
X107351470Y-107095832D01*
X107668948Y-106860237D01*
X107872101Y-106521082D01*
X107908498Y-106387503D01*
X107866183Y-106230000D01*
X106730000Y-106230000D01*
X106630000Y-106230000D01*
X105493817Y-106230000D01*
X105451502Y-106387503D01*
X104600000Y-106387503D01*
X104600000Y-105972497D01*
X105451502Y-105972497D01*
X105493817Y-106130000D01*
X106630000Y-106130000D01*
X106630000Y-105168000D01*
X106730000Y-105168000D01*
X106730000Y-106130000D01*
X107866183Y-106130000D01*
X107908498Y-105972497D01*
X107872101Y-105838918D01*
X107668948Y-105499763D01*
X107351470Y-105264168D01*
X106968000Y-105168000D01*
X106730000Y-105168000D01*
X106630000Y-105168000D01*
X106392000Y-105168000D01*
X106008530Y-105264168D01*
X105691052Y-105499763D01*
X105487899Y-105838918D01*
X105451502Y-105972497D01*
X104600000Y-105972497D01*
X104600000Y-103847503D01*
X105451502Y-103847503D01*
X105487899Y-103981082D01*
X105691052Y-104320237D01*
X106008530Y-104555832D01*
X106392000Y-104652000D01*
X106630000Y-104652000D01*
X106630000Y-103690000D01*
X106730000Y-103690000D01*
X106730000Y-104652000D01*
X106968000Y-104652000D01*
X107351470Y-104555832D01*
X107668948Y-104320237D01*
X107872101Y-103981082D01*
X107908498Y-103847503D01*
X107866183Y-103690000D01*
X106730000Y-103690000D01*
X106630000Y-103690000D01*
X105493817Y-103690000D01*
X105451502Y-103847503D01*
X104600000Y-103847503D01*
X104600000Y-103640000D01*
X107945511Y-103640000D01*
X108022545Y-104027276D01*
X108241919Y-104355592D01*
X108570235Y-104574966D01*
X108957511Y-104652000D01*
X109482489Y-104652000D01*
X109869765Y-104574966D01*
X110198081Y-104355592D01*
X110417455Y-104027276D01*
X110494489Y-103640000D01*
X110417455Y-103252724D01*
X110198081Y-102924408D01*
X109869765Y-102705034D01*
X109482489Y-102628000D01*
X108957511Y-102628000D01*
X108570235Y-102705034D01*
X108241919Y-102924408D01*
X108022545Y-103252724D01*
X107945511Y-103640000D01*
X104600000Y-103640000D01*
X104600000Y-103432497D01*
X105451502Y-103432497D01*
X105493817Y-103590000D01*
X106630000Y-103590000D01*
X106630000Y-102628000D01*
X106730000Y-102628000D01*
X106730000Y-103590000D01*
X107866183Y-103590000D01*
X107908498Y-103432497D01*
X107872101Y-103298918D01*
X107668948Y-102959763D01*
X107351470Y-102724168D01*
X106968000Y-102628000D01*
X106730000Y-102628000D01*
X106630000Y-102628000D01*
X106392000Y-102628000D01*
X106008530Y-102724168D01*
X105691052Y-102959763D01*
X105487899Y-103298918D01*
X105451502Y-103432497D01*
X104600000Y-103432497D01*
X104600000Y-101100000D01*
X105405511Y-101100000D01*
X105482545Y-101487276D01*
X105701919Y-101815592D01*
X106030235Y-102034966D01*
X106417511Y-102112000D01*
X106942489Y-102112000D01*
X107329765Y-102034966D01*
X107658081Y-101815592D01*
X107877455Y-101487276D01*
X107950000Y-101122568D01*
X108022545Y-101487276D01*
X108241919Y-101815592D01*
X108570235Y-102034966D01*
X108957511Y-102112000D01*
X109482489Y-102112000D01*
X109869765Y-102034966D01*
X110198081Y-101815592D01*
X110417455Y-101487276D01*
X110494489Y-101100000D01*
X110417455Y-100712724D01*
X110198081Y-100384408D01*
X109869765Y-100165034D01*
X109482489Y-100088000D01*
X108957511Y-100088000D01*
X108570235Y-100165034D01*
X108241919Y-100384408D01*
X108022545Y-100712724D01*
X107950000Y-101077432D01*
X107877455Y-100712724D01*
X107658081Y-100384408D01*
X107329765Y-100165034D01*
X106942489Y-100088000D01*
X106417511Y-100088000D01*
X106030235Y-100165034D01*
X105701919Y-100384408D01*
X105482545Y-100712724D01*
X105405511Y-101100000D01*
X104600000Y-101100000D01*
X104600000Y-98767503D01*
X105451502Y-98767503D01*
X105487899Y-98901082D01*
X105691052Y-99240237D01*
X106008530Y-99475832D01*
X106392000Y-99572000D01*
X106630000Y-99572000D01*
X106630000Y-98610000D01*
X106730000Y-98610000D01*
X106730000Y-99572000D01*
X106968000Y-99572000D01*
X107351470Y-99475832D01*
X107668948Y-99240237D01*
X107872101Y-98901082D01*
X107908498Y-98767503D01*
X107866183Y-98610000D01*
X106730000Y-98610000D01*
X106630000Y-98610000D01*
X105493817Y-98610000D01*
X105451502Y-98767503D01*
X104600000Y-98767503D01*
X104600000Y-98560000D01*
X107945511Y-98560000D01*
X108022545Y-98947276D01*
X108241919Y-99275592D01*
X108570235Y-99494966D01*
X108957511Y-99572000D01*
X109482489Y-99572000D01*
X109869765Y-99494966D01*
X110198081Y-99275592D01*
X110417455Y-98947276D01*
X110494489Y-98560000D01*
X110417455Y-98172724D01*
X110198081Y-97844408D01*
X109869765Y-97625034D01*
X109482489Y-97548000D01*
X108957511Y-97548000D01*
X108570235Y-97625034D01*
X108241919Y-97844408D01*
X108022545Y-98172724D01*
X107945511Y-98560000D01*
X104600000Y-98560000D01*
X104600000Y-98352497D01*
X105451502Y-98352497D01*
X105493817Y-98510000D01*
X106630000Y-98510000D01*
X106630000Y-97548000D01*
X106730000Y-97548000D01*
X106730000Y-98510000D01*
X107866183Y-98510000D01*
X107908498Y-98352497D01*
X107872101Y-98218918D01*
X107668948Y-97879763D01*
X107351470Y-97644168D01*
X106968000Y-97548000D01*
X106730000Y-97548000D01*
X106630000Y-97548000D01*
X106392000Y-97548000D01*
X106008530Y-97644168D01*
X105691052Y-97879763D01*
X105487899Y-98218918D01*
X105451502Y-98352497D01*
X104600000Y-98352497D01*
X104600000Y-96227503D01*
X105451502Y-96227503D01*
X105487899Y-96361082D01*
X105691052Y-96700237D01*
X106008530Y-96935832D01*
X106392000Y-97032000D01*
X106630000Y-97032000D01*
X106630000Y-96070000D01*
X106730000Y-96070000D01*
X106730000Y-97032000D01*
X106968000Y-97032000D01*
X107351470Y-96935832D01*
X107668948Y-96700237D01*
X107872101Y-96361082D01*
X107908498Y-96227503D01*
X107866183Y-96070000D01*
X106730000Y-96070000D01*
X106630000Y-96070000D01*
X105493817Y-96070000D01*
X105451502Y-96227503D01*
X104600000Y-96227503D01*
X104600000Y-95565686D01*
X104965686Y-95200000D01*
X105879391Y-95200000D01*
X105691052Y-95339763D01*
X105487899Y-95678918D01*
X105451502Y-95812497D01*
X105493817Y-95970000D01*
X106630000Y-95970000D01*
X106630000Y-95950000D01*
X106730000Y-95950000D01*
X106730000Y-95970000D01*
X107866183Y-95970000D01*
X107908498Y-95812497D01*
X107872101Y-95678918D01*
X107668948Y-95339763D01*
X107480609Y-95200000D01*
X108398176Y-95200000D01*
X108241919Y-95304408D01*
X108022545Y-95632724D01*
X107945511Y-96020000D01*
X108022545Y-96407276D01*
X108241919Y-96735592D01*
X108570235Y-96954966D01*
X108957511Y-97032000D01*
X109482489Y-97032000D01*
X109869765Y-96954966D01*
X110198081Y-96735592D01*
X110417455Y-96407276D01*
X110494489Y-96020000D01*
X110417455Y-95632724D01*
X110198081Y-95304408D01*
X110041824Y-95200000D01*
X110400000Y-95200000D01*
X110553074Y-95169552D01*
X110682843Y-95082843D01*
X111482843Y-94282843D01*
X111569552Y-94153074D01*
X111600001Y-94000000D01*
X111600000Y-93999995D01*
X111600000Y-93589784D01*
X111793085Y-93397036D01*
X111895571Y-93150221D01*
X111906223Y-93176000D01*
G36*
X157950000Y-75170000D02*
X132330000Y-75170000D01*
X132100390Y-75215672D01*
X131905736Y-75345736D01*
X129720736Y-77530736D01*
X129590672Y-77725390D01*
X129545000Y-77955000D01*
X129545000Y-87694617D01*
X129445122Y-87935150D01*
X129444879Y-88213628D01*
X129545000Y-88455939D01*
X129545000Y-89506472D01*
X129455736Y-89595736D01*
X129325672Y-89790390D01*
X129280000Y-90020000D01*
X129280000Y-95339617D01*
X129180122Y-95580150D01*
X129179879Y-95858628D01*
X129286223Y-96116000D01*
X129482964Y-96313085D01*
X129605883Y-96364126D01*
X129504000Y-96406223D01*
X129306915Y-96602964D01*
X129200122Y-96860150D01*
X129199879Y-97138628D01*
X129306223Y-97396000D01*
X129502964Y-97593085D01*
X129745101Y-97693629D01*
X129775736Y-97724264D01*
X129776168Y-97724553D01*
X129776456Y-97724982D01*
X129873244Y-97789417D01*
X129970390Y-97854328D01*
X129970899Y-97854429D01*
X129971330Y-97854716D01*
X130085529Y-97877230D01*
X130200000Y-97900000D01*
X130200509Y-97899899D01*
X130201017Y-97899999D01*
X134350427Y-97892966D01*
X134379949Y-97892966D01*
X134380203Y-97892916D01*
X135500000Y-97891018D01*
X135500000Y-100809902D01*
X135486915Y-100822964D01*
X135380122Y-101080150D01*
X135379879Y-101358628D01*
X135486223Y-101616000D01*
X135682964Y-101813085D01*
X135940150Y-101919878D01*
X136218628Y-101920121D01*
X136476000Y-101813777D01*
X136673085Y-101617036D01*
X136779878Y-101359850D01*
X136780121Y-101081372D01*
X136700000Y-100887464D01*
X136700000Y-97670383D01*
X136799878Y-97429850D01*
X136800121Y-97151372D01*
X136693777Y-96894000D01*
X136497036Y-96696915D01*
X136239850Y-96590122D01*
X135961372Y-96589879D01*
X135717494Y-96690648D01*
X134980000Y-96691898D01*
X134980000Y-90100383D01*
X135079878Y-89859850D01*
X135080121Y-89581372D01*
X134973777Y-89324000D01*
X134777036Y-89126915D01*
X134519850Y-89020122D01*
X134241372Y-89019879D01*
X133984000Y-89126223D01*
X133786915Y-89322964D01*
X133680122Y-89580150D01*
X133679879Y-89858628D01*
X133780000Y-90100939D01*
X133780000Y-96693931D01*
X130533210Y-96699435D01*
X130493777Y-96604000D01*
X130297036Y-96406915D01*
X130174117Y-96355874D01*
X130276000Y-96313777D01*
X130473085Y-96117036D01*
X130579878Y-95859850D01*
X130580121Y-95581372D01*
X130480000Y-95339061D01*
X130480000Y-90268528D01*
X130569264Y-90179264D01*
X130699328Y-89984610D01*
X130745000Y-89755000D01*
X130745000Y-88455383D01*
X130844878Y-88214850D01*
X130845121Y-87936372D01*
X130745000Y-87694061D01*
X130745000Y-78203528D01*
X132578528Y-76370000D01*
X157950000Y-76370000D01*
X157950000Y-81190000D01*
X149500000Y-81190000D01*
X149480547Y-81193939D01*
X149464160Y-81205136D01*
X149453419Y-81221827D01*
X149450000Y-81240000D01*
X149450000Y-85690000D01*
X143850000Y-85690000D01*
X143850000Y-84812784D01*
X143896000Y-84793777D01*
X144093085Y-84597036D01*
X144199878Y-84339850D01*
X144200121Y-84061372D01*
X144093777Y-83804000D01*
X143897036Y-83606915D01*
X143639850Y-83500122D01*
X143361372Y-83499879D01*
X143104000Y-83606223D01*
X142906915Y-83802964D01*
X142800122Y-84060150D01*
X142800119Y-84064075D01*
X142695672Y-84220390D01*
X142650000Y-84450000D01*
X142650000Y-85690000D01*
X141000000Y-85690000D01*
X140980547Y-85693939D01*
X140964160Y-85705136D01*
X140953419Y-85721827D01*
X140950000Y-85740000D01*
X140950000Y-124120000D01*
X135860383Y-124120000D01*
X135619850Y-124020122D01*
X135341372Y-124019879D01*
X135084000Y-124126223D01*
X134886915Y-124322964D01*
X134780122Y-124580150D01*
X134779879Y-124858628D01*
X134886223Y-125116000D01*
X135082964Y-125313085D01*
X135340150Y-125419878D01*
X135618628Y-125420121D01*
X135860939Y-125320000D01*
X140950000Y-125320000D01*
X140950000Y-127590000D01*
X129050000Y-127590000D01*
X129050000Y-116558628D01*
X129379879Y-116558628D01*
X129480000Y-116800939D01*
X129480000Y-123674824D01*
X129405122Y-123855150D01*
X129404879Y-124133628D01*
X129511223Y-124391000D01*
X129707964Y-124588085D01*
X129965150Y-124694878D01*
X130243628Y-124695121D01*
X130501000Y-124588777D01*
X130698085Y-124392036D01*
X130804878Y-124134850D01*
X130805121Y-123856372D01*
X130698777Y-123599000D01*
X130680000Y-123580190D01*
X130680000Y-122858628D01*
X137979879Y-122858628D01*
X138086223Y-123116000D01*
X138282964Y-123313085D01*
X138540150Y-123419878D01*
X138818628Y-123420121D01*
X139076000Y-123313777D01*
X139273085Y-123117036D01*
X139379878Y-122859850D01*
X139380121Y-122581372D01*
X139363779Y-122541822D01*
X139390000Y-122410000D01*
X139390000Y-119539784D01*
X139583085Y-119347036D01*
X139689878Y-119089850D01*
X139690121Y-118811372D01*
X139583777Y-118554000D01*
X139387036Y-118356915D01*
X139129850Y-118250122D01*
X138851372Y-118249879D01*
X138594000Y-118356223D01*
X138396915Y-118552964D01*
X138290122Y-118810150D01*
X138289879Y-119088628D01*
X138396223Y-119346000D01*
X138590000Y-119540116D01*
X138590000Y-122019921D01*
X138541372Y-122019879D01*
X138284000Y-122126223D01*
X138086915Y-122322964D01*
X137980122Y-122580150D01*
X137979879Y-122858628D01*
X130680000Y-122858628D01*
X130680000Y-116800383D01*
X130779878Y-116559850D01*
X130780121Y-116281372D01*
X130673777Y-116024000D01*
X130477036Y-115826915D01*
X130219850Y-115720122D01*
X129941372Y-115719879D01*
X129684000Y-115826223D01*
X129486915Y-116022964D01*
X129380122Y-116280150D01*
X129379879Y-116558628D01*
X129050000Y-116558628D01*
X129050000Y-113382500D01*
X129554000Y-113382500D01*
X129554000Y-114183328D01*
X129592060Y-114275214D01*
X129662386Y-114345540D01*
X129754272Y-114383600D01*
X130707500Y-114383600D01*
X130770000Y-114321100D01*
X130770000Y-113320000D01*
X130870000Y-113320000D01*
X130870000Y-114321100D01*
X130932500Y-114383600D01*
X131885728Y-114383600D01*
X131977614Y-114345540D01*
X132047940Y-114275214D01*
X132086000Y-114183328D01*
X132086000Y-113382500D01*
X132023500Y-113320000D01*
X130870000Y-113320000D01*
X130770000Y-113320000D01*
X129616500Y-113320000D01*
X129554000Y-113382500D01*
X129050000Y-113382500D01*
X129050000Y-112356672D01*
X129554000Y-112356672D01*
X129554000Y-113157500D01*
X129616500Y-113220000D01*
X130770000Y-113220000D01*
X130770000Y-112218900D01*
X130870000Y-112218900D01*
X130870000Y-113220000D01*
X132023500Y-113220000D01*
X132086000Y-113157500D01*
X132086000Y-113083597D01*
X132171048Y-113289429D01*
X132280000Y-113398572D01*
X132280000Y-120771513D01*
X132171641Y-120879683D01*
X132080104Y-121100129D01*
X132079896Y-121338824D01*
X132171048Y-121559429D01*
X132339683Y-121728359D01*
X132560129Y-121819896D01*
X132798824Y-121820104D01*
X133019429Y-121728952D01*
X133188359Y-121560317D01*
X133279896Y-121339871D01*
X133280104Y-121101176D01*
X133188952Y-120880571D01*
X133080000Y-120771428D01*
X133080000Y-113398487D01*
X133188359Y-113290317D01*
X133279896Y-113069871D01*
X133280104Y-112831176D01*
X133188952Y-112610571D01*
X133020317Y-112441641D01*
X132799871Y-112350104D01*
X132561176Y-112349896D01*
X132340571Y-112441048D01*
X132171641Y-112609683D01*
X132086000Y-112815930D01*
X132086000Y-112356672D01*
X132047940Y-112264786D01*
X131977614Y-112194460D01*
X131885728Y-112156400D01*
X130932500Y-112156400D01*
X130870000Y-112218900D01*
X130770000Y-112218900D01*
X130707500Y-112156400D01*
X129754272Y-112156400D01*
X129662386Y-112194460D01*
X129592060Y-112264786D01*
X129554000Y-112356672D01*
X129050000Y-112356672D01*
X129050000Y-110730000D01*
X129529198Y-110730000D01*
X129613966Y-111156156D01*
X129855364Y-111517434D01*
X130216642Y-111758832D01*
X130642798Y-111843600D01*
X130997202Y-111843600D01*
X131223290Y-111798628D01*
X133189879Y-111798628D01*
X133290000Y-112040939D01*
X133290000Y-112780000D01*
X133335672Y-113009610D01*
X133465736Y-113204264D01*
X135305736Y-115044264D01*
X135500390Y-115174328D01*
X135730000Y-115220000D01*
X136399617Y-115220000D01*
X136640150Y-115319878D01*
X136918628Y-115320121D01*
X137176000Y-115213777D01*
X137373085Y-115017036D01*
X137479878Y-114759850D01*
X137480121Y-114481372D01*
X137373777Y-114224000D01*
X137177036Y-114026915D01*
X136919850Y-113920122D01*
X136641372Y-113919879D01*
X136399061Y-114020000D01*
X135978528Y-114020000D01*
X134490000Y-112531472D01*
X134490000Y-112040383D01*
X134589878Y-111799850D01*
X134590121Y-111521372D01*
X134490000Y-111279061D01*
X134490000Y-106608528D01*
X138624264Y-102474264D01*
X138754328Y-102279611D01*
X138800000Y-102050000D01*
X138800000Y-81948528D01*
X140105293Y-80643235D01*
X140346000Y-80543777D01*
X140543085Y-80347036D01*
X140649878Y-80089850D01*
X140650121Y-79811372D01*
X140543777Y-79554000D01*
X140347036Y-79356915D01*
X140089850Y-79250122D01*
X139811372Y-79249879D01*
X139554000Y-79356223D01*
X139356915Y-79552964D01*
X139256371Y-79795101D01*
X137775736Y-81275736D01*
X137645672Y-81470390D01*
X137600000Y-81700000D01*
X137600000Y-101801472D01*
X133465736Y-105935736D01*
X133335672Y-106130390D01*
X133290000Y-106360000D01*
X133290000Y-111279617D01*
X133190122Y-111520150D01*
X133189879Y-111798628D01*
X131223290Y-111798628D01*
X131423358Y-111758832D01*
X131784636Y-111517434D01*
X132026034Y-111156156D01*
X132110802Y-110730000D01*
X132026034Y-110303844D01*
X131784636Y-109942566D01*
X131423358Y-109701168D01*
X130997202Y-109616400D01*
X130642798Y-109616400D01*
X130216642Y-109701168D01*
X129855364Y-109942566D01*
X129613966Y-110303844D01*
X129529198Y-110730000D01*
X129050000Y-110730000D01*
X129050000Y-108190000D01*
X129529198Y-108190000D01*
X129613966Y-108616156D01*
X129855364Y-108977434D01*
X130216642Y-109218832D01*
X130642798Y-109303600D01*
X130997202Y-109303600D01*
X131423358Y-109218832D01*
X131784636Y-108977434D01*
X132026034Y-108616156D01*
X132110802Y-108190000D01*
X132026034Y-107763844D01*
X131784636Y-107402566D01*
X131423358Y-107161168D01*
X130997202Y-107076400D01*
X130642798Y-107076400D01*
X130216642Y-107161168D01*
X129855364Y-107402566D01*
X129613966Y-107763844D01*
X129529198Y-108190000D01*
X129050000Y-108190000D01*
X129050000Y-105650000D01*
X129529198Y-105650000D01*
X129613966Y-106076156D01*
X129855364Y-106437434D01*
X130216642Y-106678832D01*
X130642798Y-106763600D01*
X130997202Y-106763600D01*
X131423358Y-106678832D01*
X131784636Y-106437434D01*
X132026034Y-106076156D01*
X132110802Y-105650000D01*
X132026034Y-105223844D01*
X131784636Y-104862566D01*
X131423358Y-104621168D01*
X130997202Y-104536400D01*
X130642798Y-104536400D01*
X130216642Y-104621168D01*
X129855364Y-104862566D01*
X129613966Y-105223844D01*
X129529198Y-105650000D01*
X129050000Y-105650000D01*
X129050000Y-103110000D01*
X129529198Y-103110000D01*
X129613966Y-103536156D01*
X129855364Y-103897434D01*
X130216642Y-104138832D01*
X130642798Y-104223600D01*
X130997202Y-104223600D01*
X131423358Y-104138832D01*
X131784636Y-103897434D01*
X132026034Y-103536156D01*
X132110802Y-103110000D01*
X132026034Y-102683844D01*
X131784636Y-102322566D01*
X131423358Y-102081168D01*
X130997202Y-101996400D01*
X130642798Y-101996400D01*
X130216642Y-102081168D01*
X129855364Y-102322566D01*
X129613966Y-102683844D01*
X129529198Y-103110000D01*
X129050000Y-103110000D01*
X129050000Y-98938628D01*
X131949879Y-98938628D01*
X132056223Y-99196000D01*
X132250000Y-99390116D01*
X132250000Y-99950000D01*
X132280448Y-100103074D01*
X132367157Y-100232843D01*
X134400117Y-102265803D01*
X134399879Y-102538628D01*
X134506223Y-102796000D01*
X134702964Y-102993085D01*
X134960150Y-103099878D01*
X135238628Y-103100121D01*
X135496000Y-102993777D01*
X135693085Y-102797036D01*
X135799878Y-102539850D01*
X135800121Y-102261372D01*
X135693777Y-102004000D01*
X135497036Y-101806915D01*
X135239850Y-101700122D01*
X134965569Y-101699883D01*
X133050000Y-99784314D01*
X133050000Y-99389784D01*
X133243085Y-99197036D01*
X133349878Y-98939850D01*
X133350121Y-98661372D01*
X133243777Y-98404000D01*
X133047036Y-98206915D01*
X132789850Y-98100122D01*
X132511372Y-98099879D01*
X132254000Y-98206223D01*
X132056915Y-98402964D01*
X131950122Y-98660150D01*
X131949879Y-98938628D01*
X129050000Y-98938628D01*
X129050000Y-74790000D01*
X157950000Y-74790000D01*
X157950000Y-75170000D01*
X157950000Y-75170000D01*
G37*
X157950000Y-75170000D02*
X132330000Y-75170000D01*
X132100390Y-75215672D01*
X131905736Y-75345736D01*
X129720736Y-77530736D01*
X129590672Y-77725390D01*
X129545000Y-77955000D01*
X129545000Y-87694617D01*
X129445122Y-87935150D01*
X129444879Y-88213628D01*
X129545000Y-88455939D01*
X129545000Y-89506472D01*
X129455736Y-89595736D01*
X129325672Y-89790390D01*
X129280000Y-90020000D01*
X129280000Y-95339617D01*
X129180122Y-95580150D01*
X129179879Y-95858628D01*
X129286223Y-96116000D01*
X129482964Y-96313085D01*
X129605883Y-96364126D01*
X129504000Y-96406223D01*
X129306915Y-96602964D01*
X129200122Y-96860150D01*
X129199879Y-97138628D01*
X129306223Y-97396000D01*
X129502964Y-97593085D01*
X129745101Y-97693629D01*
X129775736Y-97724264D01*
X129776168Y-97724553D01*
X129776456Y-97724982D01*
X129873244Y-97789417D01*
X129970390Y-97854328D01*
X129970899Y-97854429D01*
X129971330Y-97854716D01*
X130085529Y-97877230D01*
X130200000Y-97900000D01*
X130200509Y-97899899D01*
X130201017Y-97899999D01*
X134350427Y-97892966D01*
X134379949Y-97892966D01*
X134380203Y-97892916D01*
X135500000Y-97891018D01*
X135500000Y-100809902D01*
X135486915Y-100822964D01*
X135380122Y-101080150D01*
X135379879Y-101358628D01*
X135486223Y-101616000D01*
X135682964Y-101813085D01*
X135940150Y-101919878D01*
X136218628Y-101920121D01*
X136476000Y-101813777D01*
X136673085Y-101617036D01*
X136779878Y-101359850D01*
X136780121Y-101081372D01*
X136700000Y-100887464D01*
X136700000Y-97670383D01*
X136799878Y-97429850D01*
X136800121Y-97151372D01*
X136693777Y-96894000D01*
X136497036Y-96696915D01*
X136239850Y-96590122D01*
X135961372Y-96589879D01*
X135717494Y-96690648D01*
X134980000Y-96691898D01*
X134980000Y-90100383D01*
X135079878Y-89859850D01*
X135080121Y-89581372D01*
X134973777Y-89324000D01*
X134777036Y-89126915D01*
X134519850Y-89020122D01*
X134241372Y-89019879D01*
X133984000Y-89126223D01*
X133786915Y-89322964D01*
X133680122Y-89580150D01*
X133679879Y-89858628D01*
X133780000Y-90100939D01*
X133780000Y-96693931D01*
X130533210Y-96699435D01*
X130493777Y-96604000D01*
X130297036Y-96406915D01*
X130174117Y-96355874D01*
X130276000Y-96313777D01*
X130473085Y-96117036D01*
X130579878Y-95859850D01*
X130580121Y-95581372D01*
X130480000Y-95339061D01*
X130480000Y-90268528D01*
X130569264Y-90179264D01*
X130699328Y-89984610D01*
X130745000Y-89755000D01*
X130745000Y-88455383D01*
X130844878Y-88214850D01*
X130845121Y-87936372D01*
X130745000Y-87694061D01*
X130745000Y-78203528D01*
X132578528Y-76370000D01*
X157950000Y-76370000D01*
X157950000Y-81190000D01*
X149500000Y-81190000D01*
X149480547Y-81193939D01*
X149464160Y-81205136D01*
X149453419Y-81221827D01*
X149450000Y-81240000D01*
X149450000Y-85690000D01*
X143850000Y-85690000D01*
X143850000Y-84812784D01*
X143896000Y-84793777D01*
X144093085Y-84597036D01*
X144199878Y-84339850D01*
X144200121Y-84061372D01*
X144093777Y-83804000D01*
X143897036Y-83606915D01*
X143639850Y-83500122D01*
X143361372Y-83499879D01*
X143104000Y-83606223D01*
X142906915Y-83802964D01*
X142800122Y-84060150D01*
X142800119Y-84064075D01*
X142695672Y-84220390D01*
X142650000Y-84450000D01*
X142650000Y-85690000D01*
X141000000Y-85690000D01*
X140980547Y-85693939D01*
X140964160Y-85705136D01*
X140953419Y-85721827D01*
X140950000Y-85740000D01*
X140950000Y-124120000D01*
X135860383Y-124120000D01*
X135619850Y-124020122D01*
X135341372Y-124019879D01*
X135084000Y-124126223D01*
X134886915Y-124322964D01*
X134780122Y-124580150D01*
X134779879Y-124858628D01*
X134886223Y-125116000D01*
X135082964Y-125313085D01*
X135340150Y-125419878D01*
X135618628Y-125420121D01*
X135860939Y-125320000D01*
X140950000Y-125320000D01*
X140950000Y-127590000D01*
X129050000Y-127590000D01*
X129050000Y-116558628D01*
X129379879Y-116558628D01*
X129480000Y-116800939D01*
X129480000Y-123674824D01*
X129405122Y-123855150D01*
X129404879Y-124133628D01*
X129511223Y-124391000D01*
X129707964Y-124588085D01*
X129965150Y-124694878D01*
X130243628Y-124695121D01*
X130501000Y-124588777D01*
X130698085Y-124392036D01*
X130804878Y-124134850D01*
X130805121Y-123856372D01*
X130698777Y-123599000D01*
X130680000Y-123580190D01*
X130680000Y-122858628D01*
X137979879Y-122858628D01*
X138086223Y-123116000D01*
X138282964Y-123313085D01*
X138540150Y-123419878D01*
X138818628Y-123420121D01*
X139076000Y-123313777D01*
X139273085Y-123117036D01*
X139379878Y-122859850D01*
X139380121Y-122581372D01*
X139363779Y-122541822D01*
X139390000Y-122410000D01*
X139390000Y-119539784D01*
X139583085Y-119347036D01*
X139689878Y-119089850D01*
X139690121Y-118811372D01*
X139583777Y-118554000D01*
X139387036Y-118356915D01*
X139129850Y-118250122D01*
X138851372Y-118249879D01*
X138594000Y-118356223D01*
X138396915Y-118552964D01*
X138290122Y-118810150D01*
X138289879Y-119088628D01*
X138396223Y-119346000D01*
X138590000Y-119540116D01*
X138590000Y-122019921D01*
X138541372Y-122019879D01*
X138284000Y-122126223D01*
X138086915Y-122322964D01*
X137980122Y-122580150D01*
X137979879Y-122858628D01*
X130680000Y-122858628D01*
X130680000Y-116800383D01*
X130779878Y-116559850D01*
X130780121Y-116281372D01*
X130673777Y-116024000D01*
X130477036Y-115826915D01*
X130219850Y-115720122D01*
X129941372Y-115719879D01*
X129684000Y-115826223D01*
X129486915Y-116022964D01*
X129380122Y-116280150D01*
X129379879Y-116558628D01*
X129050000Y-116558628D01*
X129050000Y-113382500D01*
X129554000Y-113382500D01*
X129554000Y-114183328D01*
X129592060Y-114275214D01*
X129662386Y-114345540D01*
X129754272Y-114383600D01*
X130707500Y-114383600D01*
X130770000Y-114321100D01*
X130770000Y-113320000D01*
X130870000Y-113320000D01*
X130870000Y-114321100D01*
X130932500Y-114383600D01*
X131885728Y-114383600D01*
X131977614Y-114345540D01*
X132047940Y-114275214D01*
X132086000Y-114183328D01*
X132086000Y-113382500D01*
X132023500Y-113320000D01*
X130870000Y-113320000D01*
X130770000Y-113320000D01*
X129616500Y-113320000D01*
X129554000Y-113382500D01*
X129050000Y-113382500D01*
X129050000Y-112356672D01*
X129554000Y-112356672D01*
X129554000Y-113157500D01*
X129616500Y-113220000D01*
X130770000Y-113220000D01*
X130770000Y-112218900D01*
X130870000Y-112218900D01*
X130870000Y-113220000D01*
X132023500Y-113220000D01*
X132086000Y-113157500D01*
X132086000Y-113083597D01*
X132171048Y-113289429D01*
X132280000Y-113398572D01*
X132280000Y-120771513D01*
X132171641Y-120879683D01*
X132080104Y-121100129D01*
X132079896Y-121338824D01*
X132171048Y-121559429D01*
X132339683Y-121728359D01*
X132560129Y-121819896D01*
X132798824Y-121820104D01*
X133019429Y-121728952D01*
X133188359Y-121560317D01*
X133279896Y-121339871D01*
X133280104Y-121101176D01*
X133188952Y-120880571D01*
X133080000Y-120771428D01*
X133080000Y-113398487D01*
X133188359Y-113290317D01*
X133279896Y-113069871D01*
X133280104Y-112831176D01*
X133188952Y-112610571D01*
X133020317Y-112441641D01*
X132799871Y-112350104D01*
X132561176Y-112349896D01*
X132340571Y-112441048D01*
X132171641Y-112609683D01*
X132086000Y-112815930D01*
X132086000Y-112356672D01*
X132047940Y-112264786D01*
X131977614Y-112194460D01*
X131885728Y-112156400D01*
X130932500Y-112156400D01*
X130870000Y-112218900D01*
X130770000Y-112218900D01*
X130707500Y-112156400D01*
X129754272Y-112156400D01*
X129662386Y-112194460D01*
X129592060Y-112264786D01*
X129554000Y-112356672D01*
X129050000Y-112356672D01*
X129050000Y-110730000D01*
X129529198Y-110730000D01*
X129613966Y-111156156D01*
X129855364Y-111517434D01*
X130216642Y-111758832D01*
X130642798Y-111843600D01*
X130997202Y-111843600D01*
X131223290Y-111798628D01*
X133189879Y-111798628D01*
X133290000Y-112040939D01*
X133290000Y-112780000D01*
X133335672Y-113009610D01*
X133465736Y-113204264D01*
X135305736Y-115044264D01*
X135500390Y-115174328D01*
X135730000Y-115220000D01*
X136399617Y-115220000D01*
X136640150Y-115319878D01*
X136918628Y-115320121D01*
X137176000Y-115213777D01*
X137373085Y-115017036D01*
X137479878Y-114759850D01*
X137480121Y-114481372D01*
X137373777Y-114224000D01*
X137177036Y-114026915D01*
X136919850Y-113920122D01*
X136641372Y-113919879D01*
X136399061Y-114020000D01*
X135978528Y-114020000D01*
X134490000Y-112531472D01*
X134490000Y-112040383D01*
X134589878Y-111799850D01*
X134590121Y-111521372D01*
X134490000Y-111279061D01*
X134490000Y-106608528D01*
X138624264Y-102474264D01*
X138754328Y-102279611D01*
X138800000Y-102050000D01*
X138800000Y-81948528D01*
X140105293Y-80643235D01*
X140346000Y-80543777D01*
X140543085Y-80347036D01*
X140649878Y-80089850D01*
X140650121Y-79811372D01*
X140543777Y-79554000D01*
X140347036Y-79356915D01*
X140089850Y-79250122D01*
X139811372Y-79249879D01*
X139554000Y-79356223D01*
X139356915Y-79552964D01*
X139256371Y-79795101D01*
X137775736Y-81275736D01*
X137645672Y-81470390D01*
X137600000Y-81700000D01*
X137600000Y-101801472D01*
X133465736Y-105935736D01*
X133335672Y-106130390D01*
X133290000Y-106360000D01*
X133290000Y-111279617D01*
X133190122Y-111520150D01*
X133189879Y-111798628D01*
X131223290Y-111798628D01*
X131423358Y-111758832D01*
X131784636Y-111517434D01*
X132026034Y-111156156D01*
X132110802Y-110730000D01*
X132026034Y-110303844D01*
X131784636Y-109942566D01*
X131423358Y-109701168D01*
X130997202Y-109616400D01*
X130642798Y-109616400D01*
X130216642Y-109701168D01*
X129855364Y-109942566D01*
X129613966Y-110303844D01*
X129529198Y-110730000D01*
X129050000Y-110730000D01*
X129050000Y-108190000D01*
X129529198Y-108190000D01*
X129613966Y-108616156D01*
X129855364Y-108977434D01*
X130216642Y-109218832D01*
X130642798Y-109303600D01*
X130997202Y-109303600D01*
X131423358Y-109218832D01*
X131784636Y-108977434D01*
X132026034Y-108616156D01*
X132110802Y-108190000D01*
X132026034Y-107763844D01*
X131784636Y-107402566D01*
X131423358Y-107161168D01*
X130997202Y-107076400D01*
X130642798Y-107076400D01*
X130216642Y-107161168D01*
X129855364Y-107402566D01*
X129613966Y-107763844D01*
X129529198Y-108190000D01*
X129050000Y-108190000D01*
X129050000Y-105650000D01*
X129529198Y-105650000D01*
X129613966Y-106076156D01*
X129855364Y-106437434D01*
X130216642Y-106678832D01*
X130642798Y-106763600D01*
X130997202Y-106763600D01*
X131423358Y-106678832D01*
X131784636Y-106437434D01*
X132026034Y-106076156D01*
X132110802Y-105650000D01*
X132026034Y-105223844D01*
X131784636Y-104862566D01*
X131423358Y-104621168D01*
X130997202Y-104536400D01*
X130642798Y-104536400D01*
X130216642Y-104621168D01*
X129855364Y-104862566D01*
X129613966Y-105223844D01*
X129529198Y-105650000D01*
X129050000Y-105650000D01*
X129050000Y-103110000D01*
X129529198Y-103110000D01*
X129613966Y-103536156D01*
X129855364Y-103897434D01*
X130216642Y-104138832D01*
X130642798Y-104223600D01*
X130997202Y-104223600D01*
X131423358Y-104138832D01*
X131784636Y-103897434D01*
X132026034Y-103536156D01*
X132110802Y-103110000D01*
X132026034Y-102683844D01*
X131784636Y-102322566D01*
X131423358Y-102081168D01*
X130997202Y-101996400D01*
X130642798Y-101996400D01*
X130216642Y-102081168D01*
X129855364Y-102322566D01*
X129613966Y-102683844D01*
X129529198Y-103110000D01*
X129050000Y-103110000D01*
X129050000Y-98938628D01*
X131949879Y-98938628D01*
X132056223Y-99196000D01*
X132250000Y-99390116D01*
X132250000Y-99950000D01*
X132280448Y-100103074D01*
X132367157Y-100232843D01*
X134400117Y-102265803D01*
X134399879Y-102538628D01*
X134506223Y-102796000D01*
X134702964Y-102993085D01*
X134960150Y-103099878D01*
X135238628Y-103100121D01*
X135496000Y-102993777D01*
X135693085Y-102797036D01*
X135799878Y-102539850D01*
X135800121Y-102261372D01*
X135693777Y-102004000D01*
X135497036Y-101806915D01*
X135239850Y-101700122D01*
X134965569Y-101699883D01*
X133050000Y-99784314D01*
X133050000Y-99389784D01*
X133243085Y-99197036D01*
X133349878Y-98939850D01*
X133350121Y-98661372D01*
X133243777Y-98404000D01*
X133047036Y-98206915D01*
X132789850Y-98100122D01*
X132511372Y-98099879D01*
X132254000Y-98206223D01*
X132056915Y-98402964D01*
X131950122Y-98660150D01*
X131949879Y-98938628D01*
X129050000Y-98938628D01*
X129050000Y-74790000D01*
X157950000Y-74790000D01*
X157950000Y-75170000D01*
G36*
X185200000Y-147450000D02*
X129050000Y-147450000D01*
X129050000Y-144302200D01*
X144987191Y-144302200D01*
X144987191Y-147443800D01*
X166012810Y-147443800D01*
X166012810Y-146136001D01*
X180434710Y-146136001D01*
X180673163Y-146411300D01*
X181505585Y-146773570D01*
X182413278Y-146789709D01*
X183258053Y-146457260D01*
X183326837Y-146411300D01*
X183565290Y-146136001D01*
X182000000Y-144570711D01*
X180434710Y-146136001D01*
X166012810Y-146136001D01*
X166012810Y-144302200D01*
X144987191Y-144302200D01*
X129050000Y-144302200D01*
X129050000Y-144261412D01*
X170679772Y-144261412D01*
X170880306Y-144746743D01*
X171251304Y-145118389D01*
X171736284Y-145319770D01*
X172261412Y-145320228D01*
X172746743Y-145119694D01*
X172953519Y-144913278D01*
X179710291Y-144913278D01*
X180042740Y-145758053D01*
X180088700Y-145826837D01*
X180363999Y-146065290D01*
X181929289Y-144500000D01*
X182070711Y-144500000D01*
X183636001Y-146065290D01*
X183911300Y-145826837D01*
X184273570Y-144994415D01*
X184289709Y-144086722D01*
X183957260Y-143241947D01*
X183911300Y-143173163D01*
X183636001Y-142934710D01*
X182070711Y-144500000D01*
X181929289Y-144500000D01*
X180363999Y-142934710D01*
X180088700Y-143173163D01*
X179726430Y-144005585D01*
X179710291Y-144913278D01*
X172953519Y-144913278D01*
X173118389Y-144748696D01*
X173319770Y-144263716D01*
X173320228Y-143738588D01*
X173119694Y-143253257D01*
X172748696Y-142881611D01*
X172706282Y-142863999D01*
X180434710Y-142863999D01*
X182000000Y-144429289D01*
X183565290Y-142863999D01*
X183326837Y-142588700D01*
X182494415Y-142226430D01*
X181586722Y-142210291D01*
X180741947Y-142542740D01*
X180673163Y-142588700D01*
X180434710Y-142863999D01*
X172706282Y-142863999D01*
X172263716Y-142680230D01*
X171738588Y-142679772D01*
X171253257Y-142880306D01*
X170881611Y-143251304D01*
X170680230Y-143736284D01*
X170679772Y-144261412D01*
X129050000Y-144261412D01*
X129050000Y-141734000D01*
X140239103Y-141734000D01*
X140239103Y-143766000D01*
X140256535Y-143858644D01*
X140311288Y-143943732D01*
X140394831Y-144000815D01*
X140494000Y-144020897D01*
X142526000Y-144020897D01*
X142618644Y-144003465D01*
X142703732Y-143948712D01*
X142760815Y-143865169D01*
X142780897Y-143766000D01*
X142780897Y-142725198D01*
X142784000Y-142725198D01*
X142784000Y-142774802D01*
X142880369Y-143259279D01*
X143154803Y-143669999D01*
X143565523Y-143944433D01*
X144050000Y-144040802D01*
X144534477Y-143944433D01*
X144945197Y-143669999D01*
X145219631Y-143259279D01*
X145316000Y-142774802D01*
X145316000Y-142725198D01*
X145279719Y-142542798D01*
X150586400Y-142542798D01*
X150586400Y-142897202D01*
X150671168Y-143323358D01*
X150912566Y-143684636D01*
X151273844Y-143926034D01*
X151700000Y-144010802D01*
X152126156Y-143926034D01*
X152487434Y-143684636D01*
X152728832Y-143323358D01*
X152813600Y-142897202D01*
X152813600Y-142542798D01*
X152728832Y-142116642D01*
X152487434Y-141755364D01*
X152126156Y-141513966D01*
X151700000Y-141429198D01*
X151273844Y-141513966D01*
X150912566Y-141755364D01*
X150671168Y-142116642D01*
X150586400Y-142542798D01*
X145279719Y-142542798D01*
X145219631Y-142240721D01*
X144945197Y-141830001D01*
X144627777Y-141617908D01*
X144975685Y-141270000D01*
X153274314Y-141270000D01*
X153636666Y-141632352D01*
X153452566Y-141755364D01*
X153211168Y-142116642D01*
X153126400Y-142542798D01*
X153126400Y-142897202D01*
X153211168Y-143323358D01*
X153452566Y-143684636D01*
X153813844Y-143926034D01*
X154240000Y-144010802D01*
X154666156Y-143926034D01*
X155027434Y-143684636D01*
X155268832Y-143323358D01*
X155353600Y-142897202D01*
X155353600Y-142542798D01*
X155268832Y-142116642D01*
X155027434Y-141755364D01*
X154950563Y-141704000D01*
X155661503Y-141704000D01*
X155661503Y-143736000D01*
X155678935Y-143828644D01*
X155733688Y-143913732D01*
X155817231Y-143970815D01*
X155916400Y-143990897D01*
X157643600Y-143990897D01*
X157736244Y-143973465D01*
X157821332Y-143918712D01*
X157878415Y-143835169D01*
X157898497Y-143736000D01*
X157898497Y-141704000D01*
X157881065Y-141611356D01*
X157826312Y-141526268D01*
X157742769Y-141469185D01*
X157643600Y-141449103D01*
X155916400Y-141449103D01*
X155823756Y-141466535D01*
X155738668Y-141521288D01*
X155681585Y-141604831D01*
X155661503Y-141704000D01*
X154950563Y-141704000D01*
X154666156Y-141513966D01*
X154598595Y-141500527D01*
X154522843Y-141387157D01*
X153722843Y-140587157D01*
X153593074Y-140500448D01*
X153440000Y-140470000D01*
X144810000Y-140470000D01*
X144656927Y-140500448D01*
X144527157Y-140587157D01*
X144527155Y-140587160D01*
X143767157Y-141347157D01*
X143680448Y-141476926D01*
X143668896Y-141535005D01*
X143565523Y-141555567D01*
X143154803Y-141830001D01*
X142880369Y-142240721D01*
X142784000Y-142725198D01*
X142780897Y-142725198D01*
X142780897Y-141734000D01*
X142763465Y-141641356D01*
X142708712Y-141556268D01*
X142625169Y-141499185D01*
X142526000Y-141479103D01*
X140494000Y-141479103D01*
X140401356Y-141496535D01*
X140316268Y-141551288D01*
X140259185Y-141634831D01*
X140239103Y-141734000D01*
X129050000Y-141734000D01*
X129050000Y-135500000D01*
X149489198Y-135500000D01*
X149573966Y-135926156D01*
X149815364Y-136287434D01*
X150176642Y-136528832D01*
X150602798Y-136613600D01*
X150957202Y-136613600D01*
X151383358Y-136528832D01*
X151744636Y-136287434D01*
X151986034Y-135926156D01*
X151991237Y-135900000D01*
X155562741Y-135900000D01*
X155563966Y-135906156D01*
X155805364Y-136267434D01*
X156166642Y-136508832D01*
X156592798Y-136593600D01*
X156947202Y-136593600D01*
X157373358Y-136508832D01*
X157734636Y-136267434D01*
X157976034Y-135906156D01*
X158060802Y-135480000D01*
X157976034Y-135053844D01*
X157734636Y-134692566D01*
X157373358Y-134451168D01*
X156947202Y-134366400D01*
X156592798Y-134366400D01*
X156166642Y-134451168D01*
X155805364Y-134692566D01*
X155563966Y-135053844D01*
X155554785Y-135100000D01*
X151991237Y-135100000D01*
X151986034Y-135073844D01*
X151744636Y-134712566D01*
X151383358Y-134471168D01*
X150957202Y-134386400D01*
X150602798Y-134386400D01*
X150176642Y-134471168D01*
X149815364Y-134712566D01*
X149573966Y-135073844D01*
X149489198Y-135500000D01*
X129050000Y-135500000D01*
X129050000Y-132960000D01*
X149489198Y-132960000D01*
X149573966Y-133386156D01*
X149815364Y-133747434D01*
X150176642Y-133988832D01*
X150602798Y-134073600D01*
X150957202Y-134073600D01*
X151383358Y-133988832D01*
X151744636Y-133747434D01*
X151986034Y-133386156D01*
X152070802Y-132960000D01*
X152066824Y-132940000D01*
X155479198Y-132940000D01*
X155563966Y-133366156D01*
X155805364Y-133727434D01*
X156166642Y-133968832D01*
X156592798Y-134053600D01*
X156947202Y-134053600D01*
X157373358Y-133968832D01*
X157734636Y-133727434D01*
X157976034Y-133366156D01*
X158060802Y-132940000D01*
X157976034Y-132513844D01*
X157734636Y-132152566D01*
X157373358Y-131911168D01*
X156947202Y-131826400D01*
X156592798Y-131826400D01*
X156166642Y-131911168D01*
X155805364Y-132152566D01*
X155563966Y-132513844D01*
X155479198Y-132940000D01*
X152066824Y-132940000D01*
X151986034Y-132533844D01*
X151744636Y-132172566D01*
X151383358Y-131931168D01*
X150957202Y-131846400D01*
X150602798Y-131846400D01*
X150176642Y-131931168D01*
X149815364Y-132172566D01*
X149573966Y-132533844D01*
X149489198Y-132960000D01*
X129050000Y-132960000D01*
X129050000Y-129556400D01*
X149509103Y-129556400D01*
X149509103Y-131283600D01*
X149526535Y-131376244D01*
X149581288Y-131461332D01*
X149664831Y-131518415D01*
X149764000Y-131538497D01*
X151796000Y-131538497D01*
X151888644Y-131521065D01*
X151973732Y-131466312D01*
X152030815Y-131382769D01*
X152050897Y-131283600D01*
X152050897Y-129556400D01*
X152047134Y-129536400D01*
X155499103Y-129536400D01*
X155499103Y-131263600D01*
X155516535Y-131356244D01*
X155571288Y-131441332D01*
X155654831Y-131498415D01*
X155754000Y-131518497D01*
X157786000Y-131518497D01*
X157878644Y-131501065D01*
X157963732Y-131446312D01*
X158020815Y-131362769D01*
X158040897Y-131263600D01*
X158040897Y-129536400D01*
X158023465Y-129443756D01*
X157968712Y-129358668D01*
X157885169Y-129301585D01*
X157786000Y-129281503D01*
X155754000Y-129281503D01*
X155661356Y-129298935D01*
X155576268Y-129353688D01*
X155519185Y-129437231D01*
X155499103Y-129536400D01*
X152047134Y-129536400D01*
X152033465Y-129463756D01*
X151978712Y-129378668D01*
X151895169Y-129321585D01*
X151796000Y-129301503D01*
X149764000Y-129301503D01*
X149671356Y-129318935D01*
X149586268Y-129373688D01*
X149529185Y-129457231D01*
X149509103Y-129556400D01*
X129050000Y-129556400D01*
X129050000Y-128800000D01*
X142250000Y-128800000D01*
X142269453Y-128796061D01*
X142285840Y-128784864D01*
X142296581Y-128768173D01*
X142300000Y-128750000D01*
X142300000Y-87050000D01*
X147538474Y-87050000D01*
X147354000Y-87126223D01*
X147156915Y-87322964D01*
X147050122Y-87580150D01*
X147049879Y-87858628D01*
X147150000Y-88100939D01*
X147150000Y-100151472D01*
X143594707Y-103706765D01*
X143354000Y-103806223D01*
X143156915Y-104002964D01*
X143050122Y-104260150D01*
X143049879Y-104538628D01*
X143156223Y-104796000D01*
X143352964Y-104993085D01*
X143610150Y-105099878D01*
X143888628Y-105100121D01*
X144146000Y-104993777D01*
X144343085Y-104797036D01*
X144443629Y-104554899D01*
X148174264Y-100824264D01*
X148304328Y-100629610D01*
X148350000Y-100400000D01*
X148350000Y-88100383D01*
X148449878Y-87859850D01*
X148450121Y-87581372D01*
X148343777Y-87324000D01*
X148147036Y-87126915D01*
X147961804Y-87050000D01*
X150750000Y-87050000D01*
X150769453Y-87046061D01*
X150785840Y-87034864D01*
X150796581Y-87018173D01*
X150800000Y-87000000D01*
X150800000Y-82550000D01*
X159250000Y-82550000D01*
X159269453Y-82546061D01*
X159285840Y-82534864D01*
X159296581Y-82518173D01*
X159300000Y-82500000D01*
X159300000Y-76370000D01*
X175981472Y-76370000D01*
X177780000Y-78168528D01*
X177780000Y-80619617D01*
X177680122Y-80860150D01*
X177679879Y-81138628D01*
X177780000Y-81380939D01*
X177780000Y-87439617D01*
X177680122Y-87680150D01*
X177679879Y-87958628D01*
X177780000Y-88200939D01*
X177780000Y-92439617D01*
X177680122Y-92680150D01*
X177679879Y-92958628D01*
X177780000Y-93200939D01*
X177780000Y-98739617D01*
X177680122Y-98980150D01*
X177679879Y-99258628D01*
X177780000Y-99500939D01*
X177780000Y-105670000D01*
X177140000Y-105670000D01*
X176948658Y-105708060D01*
X176786447Y-105816447D01*
X176678060Y-105978658D01*
X176640000Y-106170000D01*
X176678060Y-106361342D01*
X176786447Y-106523553D01*
X176948658Y-106631940D01*
X177140000Y-106670000D01*
X177780000Y-106670000D01*
X177780000Y-112439617D01*
X177680122Y-112680150D01*
X177679879Y-112958628D01*
X177780000Y-113200939D01*
X177780000Y-119639617D01*
X177680122Y-119880150D01*
X177679879Y-120158628D01*
X177780000Y-120400939D01*
X177780000Y-126439617D01*
X177680122Y-126680150D01*
X177679879Y-126958628D01*
X177780000Y-127200939D01*
X177780000Y-133239617D01*
X177680122Y-133480150D01*
X177679879Y-133758628D01*
X177780000Y-134000939D01*
X177780000Y-140139617D01*
X177680122Y-140380150D01*
X177679879Y-140658628D01*
X177786223Y-140916000D01*
X177982964Y-141113085D01*
X178240150Y-141219878D01*
X178518628Y-141220121D01*
X178776000Y-141113777D01*
X178973085Y-140917036D01*
X179079878Y-140659850D01*
X179080121Y-140381372D01*
X178980000Y-140139061D01*
X178980000Y-134000383D01*
X179079878Y-133759850D01*
X179080121Y-133481372D01*
X178980000Y-133239061D01*
X178980000Y-132880000D01*
X181389198Y-132880000D01*
X181473966Y-133306156D01*
X181715364Y-133667434D01*
X182076642Y-133908832D01*
X182502798Y-133993600D01*
X182857202Y-133993600D01*
X183283358Y-133908832D01*
X183644636Y-133667434D01*
X183886034Y-133306156D01*
X183970802Y-132880000D01*
X183886034Y-132453844D01*
X183644636Y-132092566D01*
X183283358Y-131851168D01*
X182857202Y-131766400D01*
X182502798Y-131766400D01*
X182076642Y-131851168D01*
X181715364Y-132092566D01*
X181473966Y-132453844D01*
X181389198Y-132880000D01*
X178980000Y-132880000D01*
X178980000Y-130340000D01*
X181389198Y-130340000D01*
X181473966Y-130766156D01*
X181715364Y-131127434D01*
X182076642Y-131368832D01*
X182502798Y-131453600D01*
X182857202Y-131453600D01*
X183283358Y-131368832D01*
X183644636Y-131127434D01*
X183886034Y-130766156D01*
X183970802Y-130340000D01*
X183886034Y-129913844D01*
X183644636Y-129552566D01*
X183283358Y-129311168D01*
X182857202Y-129226400D01*
X182502798Y-129226400D01*
X182076642Y-129311168D01*
X181715364Y-129552566D01*
X181473966Y-129913844D01*
X181389198Y-130340000D01*
X178980000Y-130340000D01*
X178980000Y-127800000D01*
X181389198Y-127800000D01*
X181473966Y-128226156D01*
X181715364Y-128587434D01*
X182076642Y-128828832D01*
X182502798Y-128913600D01*
X182857202Y-128913600D01*
X183283358Y-128828832D01*
X183644636Y-128587434D01*
X183886034Y-128226156D01*
X183970802Y-127800000D01*
X183886034Y-127373844D01*
X183644636Y-127012566D01*
X183283358Y-126771168D01*
X182857202Y-126686400D01*
X182502798Y-126686400D01*
X182076642Y-126771168D01*
X181715364Y-127012566D01*
X181473966Y-127373844D01*
X181389198Y-127800000D01*
X178980000Y-127800000D01*
X178980000Y-127200383D01*
X179079878Y-126959850D01*
X179080121Y-126681372D01*
X178980000Y-126439061D01*
X178980000Y-125260000D01*
X181389198Y-125260000D01*
X181473966Y-125686156D01*
X181715364Y-126047434D01*
X182076642Y-126288832D01*
X182502798Y-126373600D01*
X182857202Y-126373600D01*
X183283358Y-126288832D01*
X183644636Y-126047434D01*
X183886034Y-125686156D01*
X183970802Y-125260000D01*
X183886034Y-124833844D01*
X183644636Y-124472566D01*
X183283358Y-124231168D01*
X182857202Y-124146400D01*
X182502798Y-124146400D01*
X182076642Y-124231168D01*
X181715364Y-124472566D01*
X181473966Y-124833844D01*
X181389198Y-125260000D01*
X178980000Y-125260000D01*
X178980000Y-122720000D01*
X181389198Y-122720000D01*
X181473966Y-123146156D01*
X181715364Y-123507434D01*
X182076642Y-123748832D01*
X182502798Y-123833600D01*
X182857202Y-123833600D01*
X183283358Y-123748832D01*
X183644636Y-123507434D01*
X183886034Y-123146156D01*
X183970802Y-122720000D01*
X183886034Y-122293844D01*
X183644636Y-121932566D01*
X183283358Y-121691168D01*
X182857202Y-121606400D01*
X182502798Y-121606400D01*
X182076642Y-121691168D01*
X181715364Y-121932566D01*
X181473966Y-122293844D01*
X181389198Y-122720000D01*
X178980000Y-122720000D01*
X178980000Y-120400383D01*
X179071510Y-120180000D01*
X181389198Y-120180000D01*
X181473966Y-120606156D01*
X181715364Y-120967434D01*
X182076642Y-121208832D01*
X182502798Y-121293600D01*
X182857202Y-121293600D01*
X183283358Y-121208832D01*
X183644636Y-120967434D01*
X183886034Y-120606156D01*
X183970802Y-120180000D01*
X183886034Y-119753844D01*
X183644636Y-119392566D01*
X183283358Y-119151168D01*
X182857202Y-119066400D01*
X182502798Y-119066400D01*
X182076642Y-119151168D01*
X181715364Y-119392566D01*
X181473966Y-119753844D01*
X181389198Y-120180000D01*
X179071510Y-120180000D01*
X179079878Y-120159850D01*
X179080121Y-119881372D01*
X178980000Y-119639061D01*
X178980000Y-117640000D01*
X181389198Y-117640000D01*
X181473966Y-118066156D01*
X181715364Y-118427434D01*
X182076642Y-118668832D01*
X182502798Y-118753600D01*
X182857202Y-118753600D01*
X183283358Y-118668832D01*
X183644636Y-118427434D01*
X183886034Y-118066156D01*
X183970802Y-117640000D01*
X183886034Y-117213844D01*
X183644636Y-116852566D01*
X183283358Y-116611168D01*
X182857202Y-116526400D01*
X182502798Y-116526400D01*
X182076642Y-116611168D01*
X181715364Y-116852566D01*
X181473966Y-117213844D01*
X181389198Y-117640000D01*
X178980000Y-117640000D01*
X178980000Y-115100000D01*
X181389198Y-115100000D01*
X181473966Y-115526156D01*
X181715364Y-115887434D01*
X182076642Y-116128832D01*
X182502798Y-116213600D01*
X182857202Y-116213600D01*
X183283358Y-116128832D01*
X183644636Y-115887434D01*
X183886034Y-115526156D01*
X183970802Y-115100000D01*
X183886034Y-114673844D01*
X183644636Y-114312566D01*
X183283358Y-114071168D01*
X182857202Y-113986400D01*
X182502798Y-113986400D01*
X182076642Y-114071168D01*
X181715364Y-114312566D01*
X181473966Y-114673844D01*
X181389198Y-115100000D01*
X178980000Y-115100000D01*
X178980000Y-113200383D01*
X179079878Y-112959850D01*
X179080121Y-112681372D01*
X179029972Y-112560000D01*
X181389198Y-112560000D01*
X181473966Y-112986156D01*
X181715364Y-113347434D01*
X182076642Y-113588832D01*
X182502798Y-113673600D01*
X182857202Y-113673600D01*
X183283358Y-113588832D01*
X183644636Y-113347434D01*
X183886034Y-112986156D01*
X183970802Y-112560000D01*
X183886034Y-112133844D01*
X183644636Y-111772566D01*
X183283358Y-111531168D01*
X182857202Y-111446400D01*
X182502798Y-111446400D01*
X182076642Y-111531168D01*
X181715364Y-111772566D01*
X181473966Y-112133844D01*
X181389198Y-112560000D01*
X179029972Y-112560000D01*
X178980000Y-112439061D01*
X178980000Y-110020000D01*
X181389198Y-110020000D01*
X181473966Y-110446156D01*
X181715364Y-110807434D01*
X182076642Y-111048832D01*
X182502798Y-111133600D01*
X182857202Y-111133600D01*
X183283358Y-111048832D01*
X183644636Y-110807434D01*
X183886034Y-110446156D01*
X183970802Y-110020000D01*
X183886034Y-109593844D01*
X183644636Y-109232566D01*
X183283358Y-108991168D01*
X182857202Y-108906400D01*
X182502798Y-108906400D01*
X182076642Y-108991168D01*
X181715364Y-109232566D01*
X181473966Y-109593844D01*
X181389198Y-110020000D01*
X178980000Y-110020000D01*
X178980000Y-107480000D01*
X181389198Y-107480000D01*
X181473966Y-107906156D01*
X181715364Y-108267434D01*
X182076642Y-108508832D01*
X182502798Y-108593600D01*
X182857202Y-108593600D01*
X183283358Y-108508832D01*
X183644636Y-108267434D01*
X183886034Y-107906156D01*
X183970802Y-107480000D01*
X183886034Y-107053844D01*
X183644636Y-106692566D01*
X183283358Y-106451168D01*
X182857202Y-106366400D01*
X182502798Y-106366400D01*
X182076642Y-106451168D01*
X181715364Y-106692566D01*
X181473966Y-107053844D01*
X181389198Y-107480000D01*
X178980000Y-107480000D01*
X178980000Y-106570116D01*
X178983085Y-106567036D01*
X179089878Y-106309850D01*
X179090121Y-106031372D01*
X178983777Y-105774000D01*
X178980000Y-105770216D01*
X178980000Y-104940000D01*
X181389198Y-104940000D01*
X181473966Y-105366156D01*
X181715364Y-105727434D01*
X182076642Y-105968832D01*
X182502798Y-106053600D01*
X182857202Y-106053600D01*
X183283358Y-105968832D01*
X183644636Y-105727434D01*
X183886034Y-105366156D01*
X183970802Y-104940000D01*
X183886034Y-104513844D01*
X183644636Y-104152566D01*
X183283358Y-103911168D01*
X182857202Y-103826400D01*
X182502798Y-103826400D01*
X182076642Y-103911168D01*
X181715364Y-104152566D01*
X181473966Y-104513844D01*
X181389198Y-104940000D01*
X178980000Y-104940000D01*
X178980000Y-102400000D01*
X181389198Y-102400000D01*
X181473966Y-102826156D01*
X181715364Y-103187434D01*
X182076642Y-103428832D01*
X182502798Y-103513600D01*
X182857202Y-103513600D01*
X183283358Y-103428832D01*
X183644636Y-103187434D01*
X183886034Y-102826156D01*
X183970802Y-102400000D01*
X183886034Y-101973844D01*
X183644636Y-101612566D01*
X183283358Y-101371168D01*
X182857202Y-101286400D01*
X182502798Y-101286400D01*
X182076642Y-101371168D01*
X181715364Y-101612566D01*
X181473966Y-101973844D01*
X181389198Y-102400000D01*
X178980000Y-102400000D01*
X178980000Y-99860000D01*
X181389198Y-99860000D01*
X181473966Y-100286156D01*
X181715364Y-100647434D01*
X182076642Y-100888832D01*
X182502798Y-100973600D01*
X182857202Y-100973600D01*
X183283358Y-100888832D01*
X183644636Y-100647434D01*
X183886034Y-100286156D01*
X183970802Y-99860000D01*
X183886034Y-99433844D01*
X183644636Y-99072566D01*
X183283358Y-98831168D01*
X182857202Y-98746400D01*
X182502798Y-98746400D01*
X182076642Y-98831168D01*
X181715364Y-99072566D01*
X181473966Y-99433844D01*
X181389198Y-99860000D01*
X178980000Y-99860000D01*
X178980000Y-99500383D01*
X179079878Y-99259850D01*
X179080121Y-98981372D01*
X178980000Y-98739061D01*
X178980000Y-97320000D01*
X181389198Y-97320000D01*
X181473966Y-97746156D01*
X181715364Y-98107434D01*
X182076642Y-98348832D01*
X182502798Y-98433600D01*
X182857202Y-98433600D01*
X183283358Y-98348832D01*
X183644636Y-98107434D01*
X183886034Y-97746156D01*
X183970802Y-97320000D01*
X183886034Y-96893844D01*
X183644636Y-96532566D01*
X183283358Y-96291168D01*
X182857202Y-96206400D01*
X182502798Y-96206400D01*
X182076642Y-96291168D01*
X181715364Y-96532566D01*
X181473966Y-96893844D01*
X181389198Y-97320000D01*
X178980000Y-97320000D01*
X178980000Y-94780000D01*
X181389198Y-94780000D01*
X181473966Y-95206156D01*
X181715364Y-95567434D01*
X182076642Y-95808832D01*
X182502798Y-95893600D01*
X182857202Y-95893600D01*
X183283358Y-95808832D01*
X183644636Y-95567434D01*
X183886034Y-95206156D01*
X183970802Y-94780000D01*
X183886034Y-94353844D01*
X183644636Y-93992566D01*
X183283358Y-93751168D01*
X182857202Y-93666400D01*
X182502798Y-93666400D01*
X182076642Y-93751168D01*
X181715364Y-93992566D01*
X181473966Y-94353844D01*
X181389198Y-94780000D01*
X178980000Y-94780000D01*
X178980000Y-93200383D01*
X179079878Y-92959850D01*
X179080121Y-92681372D01*
X178980000Y-92439061D01*
X178980000Y-92240000D01*
X181389198Y-92240000D01*
X181473966Y-92666156D01*
X181715364Y-93027434D01*
X182076642Y-93268832D01*
X182502798Y-93353600D01*
X182857202Y-93353600D01*
X183283358Y-93268832D01*
X183644636Y-93027434D01*
X183886034Y-92666156D01*
X183970802Y-92240000D01*
X183886034Y-91813844D01*
X183644636Y-91452566D01*
X183283358Y-91211168D01*
X182857202Y-91126400D01*
X182502798Y-91126400D01*
X182076642Y-91211168D01*
X181715364Y-91452566D01*
X181473966Y-91813844D01*
X181389198Y-92240000D01*
X178980000Y-92240000D01*
X178980000Y-89700000D01*
X181389198Y-89700000D01*
X181473966Y-90126156D01*
X181715364Y-90487434D01*
X182076642Y-90728832D01*
X182502798Y-90813600D01*
X182857202Y-90813600D01*
X183283358Y-90728832D01*
X183644636Y-90487434D01*
X183886034Y-90126156D01*
X183970802Y-89700000D01*
X183886034Y-89273844D01*
X183644636Y-88912566D01*
X183283358Y-88671168D01*
X182857202Y-88586400D01*
X182502798Y-88586400D01*
X182076642Y-88671168D01*
X181715364Y-88912566D01*
X181473966Y-89273844D01*
X181389198Y-89700000D01*
X178980000Y-89700000D01*
X178980000Y-88200383D01*
X179079878Y-87959850D01*
X179080121Y-87681372D01*
X178980000Y-87439061D01*
X178980000Y-87160000D01*
X181389198Y-87160000D01*
X181473966Y-87586156D01*
X181715364Y-87947434D01*
X182076642Y-88188832D01*
X182502798Y-88273600D01*
X182857202Y-88273600D01*
X183283358Y-88188832D01*
X183644636Y-87947434D01*
X183886034Y-87586156D01*
X183970802Y-87160000D01*
X183886034Y-86733844D01*
X183644636Y-86372566D01*
X183283358Y-86131168D01*
X182857202Y-86046400D01*
X182502798Y-86046400D01*
X182076642Y-86131168D01*
X181715364Y-86372566D01*
X181473966Y-86733844D01*
X181389198Y-87160000D01*
X178980000Y-87160000D01*
X178980000Y-83756400D01*
X181409103Y-83756400D01*
X181409103Y-85483600D01*
X181426535Y-85576244D01*
X181481288Y-85661332D01*
X181564831Y-85718415D01*
X181664000Y-85738497D01*
X183696000Y-85738497D01*
X183788644Y-85721065D01*
X183873732Y-85666312D01*
X183930815Y-85582769D01*
X183950897Y-85483600D01*
X183950897Y-83756400D01*
X183933465Y-83663756D01*
X183878712Y-83578668D01*
X183795169Y-83521585D01*
X183696000Y-83501503D01*
X181664000Y-83501503D01*
X181571356Y-83518935D01*
X181486268Y-83573688D01*
X181429185Y-83657231D01*
X181409103Y-83756400D01*
X178980000Y-83756400D01*
X178980000Y-81380383D01*
X179079878Y-81139850D01*
X179080121Y-80861372D01*
X178980000Y-80619061D01*
X178980000Y-77920000D01*
X178934328Y-77690390D01*
X178804264Y-77495736D01*
X176654264Y-75345736D01*
X176459610Y-75215672D01*
X176230000Y-75170000D01*
X159300000Y-75170000D01*
X159300000Y-73750000D01*
X159296061Y-73730547D01*
X159284864Y-73714160D01*
X159268173Y-73703419D01*
X159250000Y-73700000D01*
X129050000Y-73700000D01*
X129050000Y-73261412D01*
X169679772Y-73261412D01*
X169880306Y-73746743D01*
X170251304Y-74118389D01*
X170736284Y-74319770D01*
X171261412Y-74320228D01*
X171746743Y-74119694D01*
X172118389Y-73748696D01*
X172165183Y-73636001D01*
X180234710Y-73636001D01*
X180473163Y-73911300D01*
X181305585Y-74273570D01*
X182213278Y-74289709D01*
X183058053Y-73957260D01*
X183126837Y-73911300D01*
X183365290Y-73636001D01*
X181800000Y-72070711D01*
X180234710Y-73636001D01*
X172165183Y-73636001D01*
X172319770Y-73263716D01*
X172320228Y-72738588D01*
X172185814Y-72413278D01*
X179510291Y-72413278D01*
X179842740Y-73258053D01*
X179888700Y-73326837D01*
X180163999Y-73565290D01*
X181729289Y-72000000D01*
X181870711Y-72000000D01*
X183436001Y-73565290D01*
X183711300Y-73326837D01*
X184073570Y-72494415D01*
X184089709Y-71586722D01*
X183757260Y-70741947D01*
X183711300Y-70673163D01*
X183436001Y-70434710D01*
X181870711Y-72000000D01*
X181729289Y-72000000D01*
X180163999Y-70434710D01*
X179888700Y-70673163D01*
X179526430Y-71505585D01*
X179510291Y-72413278D01*
X172185814Y-72413278D01*
X172119694Y-72253257D01*
X171748696Y-71881611D01*
X171263716Y-71680230D01*
X170738588Y-71679772D01*
X170253257Y-71880306D01*
X169881611Y-72251304D01*
X169680230Y-72736284D01*
X169679772Y-73261412D01*
X129050000Y-73261412D01*
X129050000Y-70363999D01*
X180234710Y-70363999D01*
X181800000Y-71929289D01*
X183365290Y-70363999D01*
X183126837Y-70088700D01*
X182294415Y-69726430D01*
X181386722Y-69710291D01*
X180541947Y-70042740D01*
X180473163Y-70088700D01*
X180234710Y-70363999D01*
X129050000Y-70363999D01*
X129050000Y-68550000D01*
X185200000Y-68550000D01*
X185200000Y-147450000D01*
X185200000Y-147450000D01*
G37*
X185200000Y-147450000D02*
X129050000Y-147450000D01*
X129050000Y-144302200D01*
X144987191Y-144302200D01*
X144987191Y-147443800D01*
X166012810Y-147443800D01*
X166012810Y-146136001D01*
X180434710Y-146136001D01*
X180673163Y-146411300D01*
X181505585Y-146773570D01*
X182413278Y-146789709D01*
X183258053Y-146457260D01*
X183326837Y-146411300D01*
X183565290Y-146136001D01*
X182000000Y-144570711D01*
X180434710Y-146136001D01*
X166012810Y-146136001D01*
X166012810Y-144302200D01*
X144987191Y-144302200D01*
X129050000Y-144302200D01*
X129050000Y-144261412D01*
X170679772Y-144261412D01*
X170880306Y-144746743D01*
X171251304Y-145118389D01*
X171736284Y-145319770D01*
X172261412Y-145320228D01*
X172746743Y-145119694D01*
X172953519Y-144913278D01*
X179710291Y-144913278D01*
X180042740Y-145758053D01*
X180088700Y-145826837D01*
X180363999Y-146065290D01*
X181929289Y-144500000D01*
X182070711Y-144500000D01*
X183636001Y-146065290D01*
X183911300Y-145826837D01*
X184273570Y-144994415D01*
X184289709Y-144086722D01*
X183957260Y-143241947D01*
X183911300Y-143173163D01*
X183636001Y-142934710D01*
X182070711Y-144500000D01*
X181929289Y-144500000D01*
X180363999Y-142934710D01*
X180088700Y-143173163D01*
X179726430Y-144005585D01*
X179710291Y-144913278D01*
X172953519Y-144913278D01*
X173118389Y-144748696D01*
X173319770Y-144263716D01*
X173320228Y-143738588D01*
X173119694Y-143253257D01*
X172748696Y-142881611D01*
X172706282Y-142863999D01*
X180434710Y-142863999D01*
X182000000Y-144429289D01*
X183565290Y-142863999D01*
X183326837Y-142588700D01*
X182494415Y-142226430D01*
X181586722Y-142210291D01*
X180741947Y-142542740D01*
X180673163Y-142588700D01*
X180434710Y-142863999D01*
X172706282Y-142863999D01*
X172263716Y-142680230D01*
X171738588Y-142679772D01*
X171253257Y-142880306D01*
X170881611Y-143251304D01*
X170680230Y-143736284D01*
X170679772Y-144261412D01*
X129050000Y-144261412D01*
X129050000Y-141734000D01*
X140239103Y-141734000D01*
X140239103Y-143766000D01*
X140256535Y-143858644D01*
X140311288Y-143943732D01*
X140394831Y-144000815D01*
X140494000Y-144020897D01*
X142526000Y-144020897D01*
X142618644Y-144003465D01*
X142703732Y-143948712D01*
X142760815Y-143865169D01*
X142780897Y-143766000D01*
X142780897Y-142725198D01*
X142784000Y-142725198D01*
X142784000Y-142774802D01*
X142880369Y-143259279D01*
X143154803Y-143669999D01*
X143565523Y-143944433D01*
X144050000Y-144040802D01*
X144534477Y-143944433D01*
X144945197Y-143669999D01*
X145219631Y-143259279D01*
X145316000Y-142774802D01*
X145316000Y-142725198D01*
X145279719Y-142542798D01*
X150586400Y-142542798D01*
X150586400Y-142897202D01*
X150671168Y-143323358D01*
X150912566Y-143684636D01*
X151273844Y-143926034D01*
X151700000Y-144010802D01*
X152126156Y-143926034D01*
X152487434Y-143684636D01*
X152728832Y-143323358D01*
X152813600Y-142897202D01*
X152813600Y-142542798D01*
X152728832Y-142116642D01*
X152487434Y-141755364D01*
X152126156Y-141513966D01*
X151700000Y-141429198D01*
X151273844Y-141513966D01*
X150912566Y-141755364D01*
X150671168Y-142116642D01*
X150586400Y-142542798D01*
X145279719Y-142542798D01*
X145219631Y-142240721D01*
X144945197Y-141830001D01*
X144627777Y-141617908D01*
X144975685Y-141270000D01*
X153274314Y-141270000D01*
X153636666Y-141632352D01*
X153452566Y-141755364D01*
X153211168Y-142116642D01*
X153126400Y-142542798D01*
X153126400Y-142897202D01*
X153211168Y-143323358D01*
X153452566Y-143684636D01*
X153813844Y-143926034D01*
X154240000Y-144010802D01*
X154666156Y-143926034D01*
X155027434Y-143684636D01*
X155268832Y-143323358D01*
X155353600Y-142897202D01*
X155353600Y-142542798D01*
X155268832Y-142116642D01*
X155027434Y-141755364D01*
X154950563Y-141704000D01*
X155661503Y-141704000D01*
X155661503Y-143736000D01*
X155678935Y-143828644D01*
X155733688Y-143913732D01*
X155817231Y-143970815D01*
X155916400Y-143990897D01*
X157643600Y-143990897D01*
X157736244Y-143973465D01*
X157821332Y-143918712D01*
X157878415Y-143835169D01*
X157898497Y-143736000D01*
X157898497Y-141704000D01*
X157881065Y-141611356D01*
X157826312Y-141526268D01*
X157742769Y-141469185D01*
X157643600Y-141449103D01*
X155916400Y-141449103D01*
X155823756Y-141466535D01*
X155738668Y-141521288D01*
X155681585Y-141604831D01*
X155661503Y-141704000D01*
X154950563Y-141704000D01*
X154666156Y-141513966D01*
X154598595Y-141500527D01*
X154522843Y-141387157D01*
X153722843Y-140587157D01*
X153593074Y-140500448D01*
X153440000Y-140470000D01*
X144810000Y-140470000D01*
X144656927Y-140500448D01*
X144527157Y-140587157D01*
X144527155Y-140587160D01*
X143767157Y-141347157D01*
X143680448Y-141476926D01*
X143668896Y-141535005D01*
X143565523Y-141555567D01*
X143154803Y-141830001D01*
X142880369Y-142240721D01*
X142784000Y-142725198D01*
X142780897Y-142725198D01*
X142780897Y-141734000D01*
X142763465Y-141641356D01*
X142708712Y-141556268D01*
X142625169Y-141499185D01*
X142526000Y-141479103D01*
X140494000Y-141479103D01*
X140401356Y-141496535D01*
X140316268Y-141551288D01*
X140259185Y-141634831D01*
X140239103Y-141734000D01*
X129050000Y-141734000D01*
X129050000Y-135500000D01*
X149489198Y-135500000D01*
X149573966Y-135926156D01*
X149815364Y-136287434D01*
X150176642Y-136528832D01*
X150602798Y-136613600D01*
X150957202Y-136613600D01*
X151383358Y-136528832D01*
X151744636Y-136287434D01*
X151986034Y-135926156D01*
X151991237Y-135900000D01*
X155562741Y-135900000D01*
X155563966Y-135906156D01*
X155805364Y-136267434D01*
X156166642Y-136508832D01*
X156592798Y-136593600D01*
X156947202Y-136593600D01*
X157373358Y-136508832D01*
X157734636Y-136267434D01*
X157976034Y-135906156D01*
X158060802Y-135480000D01*
X157976034Y-135053844D01*
X157734636Y-134692566D01*
X157373358Y-134451168D01*
X156947202Y-134366400D01*
X156592798Y-134366400D01*
X156166642Y-134451168D01*
X155805364Y-134692566D01*
X155563966Y-135053844D01*
X155554785Y-135100000D01*
X151991237Y-135100000D01*
X151986034Y-135073844D01*
X151744636Y-134712566D01*
X151383358Y-134471168D01*
X150957202Y-134386400D01*
X150602798Y-134386400D01*
X150176642Y-134471168D01*
X149815364Y-134712566D01*
X149573966Y-135073844D01*
X149489198Y-135500000D01*
X129050000Y-135500000D01*
X129050000Y-132960000D01*
X149489198Y-132960000D01*
X149573966Y-133386156D01*
X149815364Y-133747434D01*
X150176642Y-133988832D01*
X150602798Y-134073600D01*
X150957202Y-134073600D01*
X151383358Y-133988832D01*
X151744636Y-133747434D01*
X151986034Y-133386156D01*
X152070802Y-132960000D01*
X152066824Y-132940000D01*
X155479198Y-132940000D01*
X155563966Y-133366156D01*
X155805364Y-133727434D01*
X156166642Y-133968832D01*
X156592798Y-134053600D01*
X156947202Y-134053600D01*
X157373358Y-133968832D01*
X157734636Y-133727434D01*
X157976034Y-133366156D01*
X158060802Y-132940000D01*
X157976034Y-132513844D01*
X157734636Y-132152566D01*
X157373358Y-131911168D01*
X156947202Y-131826400D01*
X156592798Y-131826400D01*
X156166642Y-131911168D01*
X155805364Y-132152566D01*
X155563966Y-132513844D01*
X155479198Y-132940000D01*
X152066824Y-132940000D01*
X151986034Y-132533844D01*
X151744636Y-132172566D01*
X151383358Y-131931168D01*
X150957202Y-131846400D01*
X150602798Y-131846400D01*
X150176642Y-131931168D01*
X149815364Y-132172566D01*
X149573966Y-132533844D01*
X149489198Y-132960000D01*
X129050000Y-132960000D01*
X129050000Y-129556400D01*
X149509103Y-129556400D01*
X149509103Y-131283600D01*
X149526535Y-131376244D01*
X149581288Y-131461332D01*
X149664831Y-131518415D01*
X149764000Y-131538497D01*
X151796000Y-131538497D01*
X151888644Y-131521065D01*
X151973732Y-131466312D01*
X152030815Y-131382769D01*
X152050897Y-131283600D01*
X152050897Y-129556400D01*
X152047134Y-129536400D01*
X155499103Y-129536400D01*
X155499103Y-131263600D01*
X155516535Y-131356244D01*
X155571288Y-131441332D01*
X155654831Y-131498415D01*
X155754000Y-131518497D01*
X157786000Y-131518497D01*
X157878644Y-131501065D01*
X157963732Y-131446312D01*
X158020815Y-131362769D01*
X158040897Y-131263600D01*
X158040897Y-129536400D01*
X158023465Y-129443756D01*
X157968712Y-129358668D01*
X157885169Y-129301585D01*
X157786000Y-129281503D01*
X155754000Y-129281503D01*
X155661356Y-129298935D01*
X155576268Y-129353688D01*
X155519185Y-129437231D01*
X155499103Y-129536400D01*
X152047134Y-129536400D01*
X152033465Y-129463756D01*
X151978712Y-129378668D01*
X151895169Y-129321585D01*
X151796000Y-129301503D01*
X149764000Y-129301503D01*
X149671356Y-129318935D01*
X149586268Y-129373688D01*
X149529185Y-129457231D01*
X149509103Y-129556400D01*
X129050000Y-129556400D01*
X129050000Y-128800000D01*
X142250000Y-128800000D01*
X142269453Y-128796061D01*
X142285840Y-128784864D01*
X142296581Y-128768173D01*
X142300000Y-128750000D01*
X142300000Y-87050000D01*
X147538474Y-87050000D01*
X147354000Y-87126223D01*
X147156915Y-87322964D01*
X147050122Y-87580150D01*
X147049879Y-87858628D01*
X147150000Y-88100939D01*
X147150000Y-100151472D01*
X143594707Y-103706765D01*
X143354000Y-103806223D01*
X143156915Y-104002964D01*
X143050122Y-104260150D01*
X143049879Y-104538628D01*
X143156223Y-104796000D01*
X143352964Y-104993085D01*
X143610150Y-105099878D01*
X143888628Y-105100121D01*
X144146000Y-104993777D01*
X144343085Y-104797036D01*
X144443629Y-104554899D01*
X148174264Y-100824264D01*
X148304328Y-100629610D01*
X148350000Y-100400000D01*
X148350000Y-88100383D01*
X148449878Y-87859850D01*
X148450121Y-87581372D01*
X148343777Y-87324000D01*
X148147036Y-87126915D01*
X147961804Y-87050000D01*
X150750000Y-87050000D01*
X150769453Y-87046061D01*
X150785840Y-87034864D01*
X150796581Y-87018173D01*
X150800000Y-87000000D01*
X150800000Y-82550000D01*
X159250000Y-82550000D01*
X159269453Y-82546061D01*
X159285840Y-82534864D01*
X159296581Y-82518173D01*
X159300000Y-82500000D01*
X159300000Y-76370000D01*
X175981472Y-76370000D01*
X177780000Y-78168528D01*
X177780000Y-80619617D01*
X177680122Y-80860150D01*
X177679879Y-81138628D01*
X177780000Y-81380939D01*
X177780000Y-87439617D01*
X177680122Y-87680150D01*
X177679879Y-87958628D01*
X177780000Y-88200939D01*
X177780000Y-92439617D01*
X177680122Y-92680150D01*
X177679879Y-92958628D01*
X177780000Y-93200939D01*
X177780000Y-98739617D01*
X177680122Y-98980150D01*
X177679879Y-99258628D01*
X177780000Y-99500939D01*
X177780000Y-105670000D01*
X177140000Y-105670000D01*
X176948658Y-105708060D01*
X176786447Y-105816447D01*
X176678060Y-105978658D01*
X176640000Y-106170000D01*
X176678060Y-106361342D01*
X176786447Y-106523553D01*
X176948658Y-106631940D01*
X177140000Y-106670000D01*
X177780000Y-106670000D01*
X177780000Y-112439617D01*
X177680122Y-112680150D01*
X177679879Y-112958628D01*
X177780000Y-113200939D01*
X177780000Y-119639617D01*
X177680122Y-119880150D01*
X177679879Y-120158628D01*
X177780000Y-120400939D01*
X177780000Y-126439617D01*
X177680122Y-126680150D01*
X177679879Y-126958628D01*
X177780000Y-127200939D01*
X177780000Y-133239617D01*
X177680122Y-133480150D01*
X177679879Y-133758628D01*
X177780000Y-134000939D01*
X177780000Y-140139617D01*
X177680122Y-140380150D01*
X177679879Y-140658628D01*
X177786223Y-140916000D01*
X177982964Y-141113085D01*
X178240150Y-141219878D01*
X178518628Y-141220121D01*
X178776000Y-141113777D01*
X178973085Y-140917036D01*
X179079878Y-140659850D01*
X179080121Y-140381372D01*
X178980000Y-140139061D01*
X178980000Y-134000383D01*
X179079878Y-133759850D01*
X179080121Y-133481372D01*
X178980000Y-133239061D01*
X178980000Y-132880000D01*
X181389198Y-132880000D01*
X181473966Y-133306156D01*
X181715364Y-133667434D01*
X182076642Y-133908832D01*
X182502798Y-133993600D01*
X182857202Y-133993600D01*
X183283358Y-133908832D01*
X183644636Y-133667434D01*
X183886034Y-133306156D01*
X183970802Y-132880000D01*
X183886034Y-132453844D01*
X183644636Y-132092566D01*
X183283358Y-131851168D01*
X182857202Y-131766400D01*
X182502798Y-131766400D01*
X182076642Y-131851168D01*
X181715364Y-132092566D01*
X181473966Y-132453844D01*
X181389198Y-132880000D01*
X178980000Y-132880000D01*
X178980000Y-130340000D01*
X181389198Y-130340000D01*
X181473966Y-130766156D01*
X181715364Y-131127434D01*
X182076642Y-131368832D01*
X182502798Y-131453600D01*
X182857202Y-131453600D01*
X183283358Y-131368832D01*
X183644636Y-131127434D01*
X183886034Y-130766156D01*
X183970802Y-130340000D01*
X183886034Y-129913844D01*
X183644636Y-129552566D01*
X183283358Y-129311168D01*
X182857202Y-129226400D01*
X182502798Y-129226400D01*
X182076642Y-129311168D01*
X181715364Y-129552566D01*
X181473966Y-129913844D01*
X181389198Y-130340000D01*
X178980000Y-130340000D01*
X178980000Y-127800000D01*
X181389198Y-127800000D01*
X181473966Y-128226156D01*
X181715364Y-128587434D01*
X182076642Y-128828832D01*
X182502798Y-128913600D01*
X182857202Y-128913600D01*
X183283358Y-128828832D01*
X183644636Y-128587434D01*
X183886034Y-128226156D01*
X183970802Y-127800000D01*
X183886034Y-127373844D01*
X183644636Y-127012566D01*
X183283358Y-126771168D01*
X182857202Y-126686400D01*
X182502798Y-126686400D01*
X182076642Y-126771168D01*
X181715364Y-127012566D01*
X181473966Y-127373844D01*
X181389198Y-127800000D01*
X178980000Y-127800000D01*
X178980000Y-127200383D01*
X179079878Y-126959850D01*
X179080121Y-126681372D01*
X178980000Y-126439061D01*
X178980000Y-125260000D01*
X181389198Y-125260000D01*
X181473966Y-125686156D01*
X181715364Y-126047434D01*
X182076642Y-126288832D01*
X182502798Y-126373600D01*
X182857202Y-126373600D01*
X183283358Y-126288832D01*
X183644636Y-126047434D01*
X183886034Y-125686156D01*
X183970802Y-125260000D01*
X183886034Y-124833844D01*
X183644636Y-124472566D01*
X183283358Y-124231168D01*
X182857202Y-124146400D01*
X182502798Y-124146400D01*
X182076642Y-124231168D01*
X181715364Y-124472566D01*
X181473966Y-124833844D01*
X181389198Y-125260000D01*
X178980000Y-125260000D01*
X178980000Y-122720000D01*
X181389198Y-122720000D01*
X181473966Y-123146156D01*
X181715364Y-123507434D01*
X182076642Y-123748832D01*
X182502798Y-123833600D01*
X182857202Y-123833600D01*
X183283358Y-123748832D01*
X183644636Y-123507434D01*
X183886034Y-123146156D01*
X183970802Y-122720000D01*
X183886034Y-122293844D01*
X183644636Y-121932566D01*
X183283358Y-121691168D01*
X182857202Y-121606400D01*
X182502798Y-121606400D01*
X182076642Y-121691168D01*
X181715364Y-121932566D01*
X181473966Y-122293844D01*
X181389198Y-122720000D01*
X178980000Y-122720000D01*
X178980000Y-120400383D01*
X179071510Y-120180000D01*
X181389198Y-120180000D01*
X181473966Y-120606156D01*
X181715364Y-120967434D01*
X182076642Y-121208832D01*
X182502798Y-121293600D01*
X182857202Y-121293600D01*
X183283358Y-121208832D01*
X183644636Y-120967434D01*
X183886034Y-120606156D01*
X183970802Y-120180000D01*
X183886034Y-119753844D01*
X183644636Y-119392566D01*
X183283358Y-119151168D01*
X182857202Y-119066400D01*
X182502798Y-119066400D01*
X182076642Y-119151168D01*
X181715364Y-119392566D01*
X181473966Y-119753844D01*
X181389198Y-120180000D01*
X179071510Y-120180000D01*
X179079878Y-120159850D01*
X179080121Y-119881372D01*
X178980000Y-119639061D01*
X178980000Y-117640000D01*
X181389198Y-117640000D01*
X181473966Y-118066156D01*
X181715364Y-118427434D01*
X182076642Y-118668832D01*
X182502798Y-118753600D01*
X182857202Y-118753600D01*
X183283358Y-118668832D01*
X183644636Y-118427434D01*
X183886034Y-118066156D01*
X183970802Y-117640000D01*
X183886034Y-117213844D01*
X183644636Y-116852566D01*
X183283358Y-116611168D01*
X182857202Y-116526400D01*
X182502798Y-116526400D01*
X182076642Y-116611168D01*
X181715364Y-116852566D01*
X181473966Y-117213844D01*
X181389198Y-117640000D01*
X178980000Y-117640000D01*
X178980000Y-115100000D01*
X181389198Y-115100000D01*
X181473966Y-115526156D01*
X181715364Y-115887434D01*
X182076642Y-116128832D01*
X182502798Y-116213600D01*
X182857202Y-116213600D01*
X183283358Y-116128832D01*
X183644636Y-115887434D01*
X183886034Y-115526156D01*
X183970802Y-115100000D01*
X183886034Y-114673844D01*
X183644636Y-114312566D01*
X183283358Y-114071168D01*
X182857202Y-113986400D01*
X182502798Y-113986400D01*
X182076642Y-114071168D01*
X181715364Y-114312566D01*
X181473966Y-114673844D01*
X181389198Y-115100000D01*
X178980000Y-115100000D01*
X178980000Y-113200383D01*
X179079878Y-112959850D01*
X179080121Y-112681372D01*
X179029972Y-112560000D01*
X181389198Y-112560000D01*
X181473966Y-112986156D01*
X181715364Y-113347434D01*
X182076642Y-113588832D01*
X182502798Y-113673600D01*
X182857202Y-113673600D01*
X183283358Y-113588832D01*
X183644636Y-113347434D01*
X183886034Y-112986156D01*
X183970802Y-112560000D01*
X183886034Y-112133844D01*
X183644636Y-111772566D01*
X183283358Y-111531168D01*
X182857202Y-111446400D01*
X182502798Y-111446400D01*
X182076642Y-111531168D01*
X181715364Y-111772566D01*
X181473966Y-112133844D01*
X181389198Y-112560000D01*
X179029972Y-112560000D01*
X178980000Y-112439061D01*
X178980000Y-110020000D01*
X181389198Y-110020000D01*
X181473966Y-110446156D01*
X181715364Y-110807434D01*
X182076642Y-111048832D01*
X182502798Y-111133600D01*
X182857202Y-111133600D01*
X183283358Y-111048832D01*
X183644636Y-110807434D01*
X183886034Y-110446156D01*
X183970802Y-110020000D01*
X183886034Y-109593844D01*
X183644636Y-109232566D01*
X183283358Y-108991168D01*
X182857202Y-108906400D01*
X182502798Y-108906400D01*
X182076642Y-108991168D01*
X181715364Y-109232566D01*
X181473966Y-109593844D01*
X181389198Y-110020000D01*
X178980000Y-110020000D01*
X178980000Y-107480000D01*
X181389198Y-107480000D01*
X181473966Y-107906156D01*
X181715364Y-108267434D01*
X182076642Y-108508832D01*
X182502798Y-108593600D01*
X182857202Y-108593600D01*
X183283358Y-108508832D01*
X183644636Y-108267434D01*
X183886034Y-107906156D01*
X183970802Y-107480000D01*
X183886034Y-107053844D01*
X183644636Y-106692566D01*
X183283358Y-106451168D01*
X182857202Y-106366400D01*
X182502798Y-106366400D01*
X182076642Y-106451168D01*
X181715364Y-106692566D01*
X181473966Y-107053844D01*
X181389198Y-107480000D01*
X178980000Y-107480000D01*
X178980000Y-106570116D01*
X178983085Y-106567036D01*
X179089878Y-106309850D01*
X179090121Y-106031372D01*
X178983777Y-105774000D01*
X178980000Y-105770216D01*
X178980000Y-104940000D01*
X181389198Y-104940000D01*
X181473966Y-105366156D01*
X181715364Y-105727434D01*
X182076642Y-105968832D01*
X182502798Y-106053600D01*
X182857202Y-106053600D01*
X183283358Y-105968832D01*
X183644636Y-105727434D01*
X183886034Y-105366156D01*
X183970802Y-104940000D01*
X183886034Y-104513844D01*
X183644636Y-104152566D01*
X183283358Y-103911168D01*
X182857202Y-103826400D01*
X182502798Y-103826400D01*
X182076642Y-103911168D01*
X181715364Y-104152566D01*
X181473966Y-104513844D01*
X181389198Y-104940000D01*
X178980000Y-104940000D01*
X178980000Y-102400000D01*
X181389198Y-102400000D01*
X181473966Y-102826156D01*
X181715364Y-103187434D01*
X182076642Y-103428832D01*
X182502798Y-103513600D01*
X182857202Y-103513600D01*
X183283358Y-103428832D01*
X183644636Y-103187434D01*
X183886034Y-102826156D01*
X183970802Y-102400000D01*
X183886034Y-101973844D01*
X183644636Y-101612566D01*
X183283358Y-101371168D01*
X182857202Y-101286400D01*
X182502798Y-101286400D01*
X182076642Y-101371168D01*
X181715364Y-101612566D01*
X181473966Y-101973844D01*
X181389198Y-102400000D01*
X178980000Y-102400000D01*
X178980000Y-99860000D01*
X181389198Y-99860000D01*
X181473966Y-100286156D01*
X181715364Y-100647434D01*
X182076642Y-100888832D01*
X182502798Y-100973600D01*
X182857202Y-100973600D01*
X183283358Y-100888832D01*
X183644636Y-100647434D01*
X183886034Y-100286156D01*
X183970802Y-99860000D01*
X183886034Y-99433844D01*
X183644636Y-99072566D01*
X183283358Y-98831168D01*
X182857202Y-98746400D01*
X182502798Y-98746400D01*
X182076642Y-98831168D01*
X181715364Y-99072566D01*
X181473966Y-99433844D01*
X181389198Y-99860000D01*
X178980000Y-99860000D01*
X178980000Y-99500383D01*
X179079878Y-99259850D01*
X179080121Y-98981372D01*
X178980000Y-98739061D01*
X178980000Y-97320000D01*
X181389198Y-97320000D01*
X181473966Y-97746156D01*
X181715364Y-98107434D01*
X182076642Y-98348832D01*
X182502798Y-98433600D01*
X182857202Y-98433600D01*
X183283358Y-98348832D01*
X183644636Y-98107434D01*
X183886034Y-97746156D01*
X183970802Y-97320000D01*
X183886034Y-96893844D01*
X183644636Y-96532566D01*
X183283358Y-96291168D01*
X182857202Y-96206400D01*
X182502798Y-96206400D01*
X182076642Y-96291168D01*
X181715364Y-96532566D01*
X181473966Y-96893844D01*
X181389198Y-97320000D01*
X178980000Y-97320000D01*
X178980000Y-94780000D01*
X181389198Y-94780000D01*
X181473966Y-95206156D01*
X181715364Y-95567434D01*
X182076642Y-95808832D01*
X182502798Y-95893600D01*
X182857202Y-95893600D01*
X183283358Y-95808832D01*
X183644636Y-95567434D01*
X183886034Y-95206156D01*
X183970802Y-94780000D01*
X183886034Y-94353844D01*
X183644636Y-93992566D01*
X183283358Y-93751168D01*
X182857202Y-93666400D01*
X182502798Y-93666400D01*
X182076642Y-93751168D01*
X181715364Y-93992566D01*
X181473966Y-94353844D01*
X181389198Y-94780000D01*
X178980000Y-94780000D01*
X178980000Y-93200383D01*
X179079878Y-92959850D01*
X179080121Y-92681372D01*
X178980000Y-92439061D01*
X178980000Y-92240000D01*
X181389198Y-92240000D01*
X181473966Y-92666156D01*
X181715364Y-93027434D01*
X182076642Y-93268832D01*
X182502798Y-93353600D01*
X182857202Y-93353600D01*
X183283358Y-93268832D01*
X183644636Y-93027434D01*
X183886034Y-92666156D01*
X183970802Y-92240000D01*
X183886034Y-91813844D01*
X183644636Y-91452566D01*
X183283358Y-91211168D01*
X182857202Y-91126400D01*
X182502798Y-91126400D01*
X182076642Y-91211168D01*
X181715364Y-91452566D01*
X181473966Y-91813844D01*
X181389198Y-92240000D01*
X178980000Y-92240000D01*
X178980000Y-89700000D01*
X181389198Y-89700000D01*
X181473966Y-90126156D01*
X181715364Y-90487434D01*
X182076642Y-90728832D01*
X182502798Y-90813600D01*
X182857202Y-90813600D01*
X183283358Y-90728832D01*
X183644636Y-90487434D01*
X183886034Y-90126156D01*
X183970802Y-89700000D01*
X183886034Y-89273844D01*
X183644636Y-88912566D01*
X183283358Y-88671168D01*
X182857202Y-88586400D01*
X182502798Y-88586400D01*
X182076642Y-88671168D01*
X181715364Y-88912566D01*
X181473966Y-89273844D01*
X181389198Y-89700000D01*
X178980000Y-89700000D01*
X178980000Y-88200383D01*
X179079878Y-87959850D01*
X179080121Y-87681372D01*
X178980000Y-87439061D01*
X178980000Y-87160000D01*
X181389198Y-87160000D01*
X181473966Y-87586156D01*
X181715364Y-87947434D01*
X182076642Y-88188832D01*
X182502798Y-88273600D01*
X182857202Y-88273600D01*
X183283358Y-88188832D01*
X183644636Y-87947434D01*
X183886034Y-87586156D01*
X183970802Y-87160000D01*
X183886034Y-86733844D01*
X183644636Y-86372566D01*
X183283358Y-86131168D01*
X182857202Y-86046400D01*
X182502798Y-86046400D01*
X182076642Y-86131168D01*
X181715364Y-86372566D01*
X181473966Y-86733844D01*
X181389198Y-87160000D01*
X178980000Y-87160000D01*
X178980000Y-83756400D01*
X181409103Y-83756400D01*
X181409103Y-85483600D01*
X181426535Y-85576244D01*
X181481288Y-85661332D01*
X181564831Y-85718415D01*
X181664000Y-85738497D01*
X183696000Y-85738497D01*
X183788644Y-85721065D01*
X183873732Y-85666312D01*
X183930815Y-85582769D01*
X183950897Y-85483600D01*
X183950897Y-83756400D01*
X183933465Y-83663756D01*
X183878712Y-83578668D01*
X183795169Y-83521585D01*
X183696000Y-83501503D01*
X181664000Y-83501503D01*
X181571356Y-83518935D01*
X181486268Y-83573688D01*
X181429185Y-83657231D01*
X181409103Y-83756400D01*
X178980000Y-83756400D01*
X178980000Y-81380383D01*
X179079878Y-81139850D01*
X179080121Y-80861372D01*
X178980000Y-80619061D01*
X178980000Y-77920000D01*
X178934328Y-77690390D01*
X178804264Y-77495736D01*
X176654264Y-75345736D01*
X176459610Y-75215672D01*
X176230000Y-75170000D01*
X159300000Y-75170000D01*
X159300000Y-73750000D01*
X159296061Y-73730547D01*
X159284864Y-73714160D01*
X159268173Y-73703419D01*
X159250000Y-73700000D01*
X129050000Y-73700000D01*
X129050000Y-73261412D01*
X169679772Y-73261412D01*
X169880306Y-73746743D01*
X170251304Y-74118389D01*
X170736284Y-74319770D01*
X171261412Y-74320228D01*
X171746743Y-74119694D01*
X172118389Y-73748696D01*
X172165183Y-73636001D01*
X180234710Y-73636001D01*
X180473163Y-73911300D01*
X181305585Y-74273570D01*
X182213278Y-74289709D01*
X183058053Y-73957260D01*
X183126837Y-73911300D01*
X183365290Y-73636001D01*
X181800000Y-72070711D01*
X180234710Y-73636001D01*
X172165183Y-73636001D01*
X172319770Y-73263716D01*
X172320228Y-72738588D01*
X172185814Y-72413278D01*
X179510291Y-72413278D01*
X179842740Y-73258053D01*
X179888700Y-73326837D01*
X180163999Y-73565290D01*
X181729289Y-72000000D01*
X181870711Y-72000000D01*
X183436001Y-73565290D01*
X183711300Y-73326837D01*
X184073570Y-72494415D01*
X184089709Y-71586722D01*
X183757260Y-70741947D01*
X183711300Y-70673163D01*
X183436001Y-70434710D01*
X181870711Y-72000000D01*
X181729289Y-72000000D01*
X180163999Y-70434710D01*
X179888700Y-70673163D01*
X179526430Y-71505585D01*
X179510291Y-72413278D01*
X172185814Y-72413278D01*
X172119694Y-72253257D01*
X171748696Y-71881611D01*
X171263716Y-71680230D01*
X170738588Y-71679772D01*
X170253257Y-71880306D01*
X169881611Y-72251304D01*
X169680230Y-72736284D01*
X169679772Y-73261412D01*
X129050000Y-73261412D01*
X129050000Y-70363999D01*
X180234710Y-70363999D01*
X181800000Y-71929289D01*
X183365290Y-70363999D01*
X183126837Y-70088700D01*
X182294415Y-69726430D01*
X181386722Y-69710291D01*
X180541947Y-70042740D01*
X180473163Y-70088700D01*
X180234710Y-70363999D01*
X129050000Y-70363999D01*
X129050000Y-68550000D01*
X185200000Y-68550000D01*
X185200000Y-147450000D01*
M02*
