M48
;DRILL file {KiCad 4.0.2-stable} date 21/01/2018 10:23:29
;FORMAT={-:-/ absolute / inch / decimal}
FMAT,2
INCH,TZ
T1C0.008
T2C0.012
T3C0.020
T4C0.040
T5C0.120
%
G90
G05
M72
T1
X4.6142Y-4.5118
T2
X5.2236Y-4.4469
X5.2236Y-4.7724
X5.6319Y-3.9508
T3
X4.0551Y-3.0709
X4.0945Y-5.3937
X4.0945Y-5.5512
X4.1339Y-2.9921
X4.1732Y-5.315
X4.1732Y-5.4724
X4.2126Y-2.7559
X4.2126Y-2.9134
X4.2126Y-3.0709
X4.252Y-5.3937
X4.252Y-5.5512
X4.252Y-5.7087
X4.2913Y-2.8346
X4.2913Y-2.9921
X4.3307Y-5.315
X4.3307Y-5.4724
X4.3307Y-5.6299
X4.3701Y-2.7559
X4.3701Y-2.9134
X4.3701Y-3.0709
X4.378Y-3.6614
X4.389Y-4.7843
X4.4094Y-5.3937
X4.4094Y-5.5512
X4.4094Y-5.7087
X4.4244Y-4.8315
X4.4291Y-3.6528
X4.4488Y-2.8346
X4.4488Y-2.9921
X4.4685Y-3.6811
X4.4756Y-4.7213
X4.4882Y-5.315
X4.4882Y-5.4724
X4.4882Y-5.6299
X4.511Y-3.3236
X4.511Y-3.8315
X4.5228Y-4.7291
X4.5276Y-2.7559
X4.5276Y-2.9134
X4.5276Y-3.0709
X4.5661Y-3.8177
X4.5669Y-4.9331
X4.5669Y-5.3937
X4.5669Y-5.5512
X4.5669Y-5.7087
X4.5827Y-3.2047
X4.6102Y-4.8819
X5.1134Y-3.7685
X5.1142Y-3.8189
X5.1213Y-4.5835
X5.1222Y-4.8817
X5.1238Y-3.4675
X5.1358Y-4.9315
X5.1528Y-5.3315
X5.1528Y-5.489
X5.1528Y-5.6465
X5.1772Y-2.874
X5.1791Y-4.6315
X5.2008Y-3.2953
X5.2008Y-3.374
X5.2224Y-3.8898
X5.2315Y-5.4102
X5.2315Y-5.5677
X5.2323Y-5.7244
X5.2713Y-4.3961
X5.2854Y-3.378
X5.2874Y-3.2953
X5.2906Y-3.5323
X5.2953Y-2.874
X5.2953Y-4.7047
X5.2953Y-4.7638
X5.3102Y-5.3315
X5.3102Y-5.489
X5.311Y-5.6457
X5.3189Y-4.0315
X5.3307Y-4.9803
X5.3339Y-4.9102
X5.3543Y-4.7638
X5.3575Y-3.985
X5.3583Y-3.8303
X5.3701Y-3.2953
X5.372Y-3.378
X5.385Y-4.5126
X5.389Y-5.4102
X5.389Y-5.5677
X5.3898Y-5.7244
X5.4075Y-4.2126
X5.4134Y-2.874
X5.4134Y-4.7638
X5.4598Y-4.8315
X5.472Y-4.6831
X5.502Y-4.2126
X5.5079Y-3.3228
X5.5098Y-3.1476
X5.5118Y-5.7244
X5.5315Y-2.874
X5.5858Y-4.9102
X5.622Y-5.748
X5.6398Y-3.5323
X5.6496Y-2.874
X5.6496Y-3.315
X5.6594Y-4.1102
X5.7677Y-2.874
X5.7827Y-4.9181
X5.8024Y-4.7409
X5.8169Y-3.4535
X5.8614Y-4.5827
X5.8614Y-4.6819
X5.8614Y-4.8
X5.8732Y-4.4713
X5.8858Y-2.874
X5.9008Y-3.8157
X5.9008Y-4.9181
X5.9205Y-4.7409
X5.9598Y-3.678
X5.9598Y-3.7567
X5.9598Y-3.8748
X6.0039Y-2.874
X6.0189Y-3.8157
X6.0236Y-4.7047
X6.024Y-3.4024
X6.1024Y-4.7047
X6.122Y-2.874
X6.1567Y-3.4024
X6.1614Y-4.3504
X6.2205Y-3.3465
X6.2205Y-4.2913
X6.2205Y-4.4094
X6.2354Y-3.5795
X6.2402Y-2.874
X6.2492Y-3.1059
X6.2795Y-3.2874
X6.2795Y-4.1339
X6.2795Y-4.3504
X6.2795Y-4.5669
X6.2945Y-3.5205
X6.2945Y-3.6386
X6.2945Y-4.8394
X6.2945Y-4.8984
X6.3346Y-3.7874
X6.3346Y-3.878
X6.3346Y-4.0827
X6.3386Y-3.3465
X6.3386Y-4.2913
X6.3386Y-4.4094
X6.3535Y-3.5795
X6.3535Y-4.8394
X6.3535Y-4.8984
X6.3535Y-4.9575
X6.3583Y-2.874
X6.3583Y-4.5669
X6.4961Y-2.874
X6.5748Y-2.7953
X6.5906Y-5.748
X6.6016Y-4.6047
X6.6535Y-2.874
X6.6969Y-5.748
X6.7323Y-2.7953
X6.8299Y-3.0264
X6.8299Y-3.3591
X6.8299Y-3.55
X6.8299Y-3.8433
X6.8299Y-4.0516
X6.8299Y-4.3866
X6.8299Y-4.6039
X6.8299Y-5.1441
X6.8299Y-5.4291
X6.8303Y-4.8705
X6.8307Y-2.874
X6.8465Y-5.748
X6.8996Y-5.689
X6.9094Y-2.7953
X6.9567Y-5.748
X6.9882Y-2.874
X7.0177Y-5.689
X7.0228Y-3.189
X7.0228Y-3.4575
X7.0228Y-3.6543
X7.0228Y-3.9024
X7.0228Y-4.4417
X7.0228Y-4.7252
X7.0228Y-4.9929
X7.0228Y-5.2606
X7.0228Y-5.5323
X7.0232Y-4.1799
X7.0669Y-2.9528
X7.0669Y-3.1102
X7.1457Y-3.0315
X7.1457Y-3.189
X7.2244Y-2.9528
X7.2244Y-3.1102
T4
X4.2Y-3.2803
X4.2Y-3.3803
X4.2Y-3.4803
X4.2Y-3.5803
X4.2Y-3.6803
X4.2Y-3.7803
X4.2Y-3.8803
X4.2Y-3.9803
X4.2Y-4.0803
X4.2Y-4.1803
X4.2Y-4.2803
X4.2Y-4.3803
X4.2Y-4.4803
X4.2Y-4.5803
X4.2Y-4.6803
X4.2Y-4.7803
X4.2Y-4.8803
X4.2Y-4.9803
X4.2Y-5.0803
X4.2Y-5.1803
X4.3Y-3.2803
X4.3Y-3.3803
X4.3Y-3.4803
X4.3Y-3.5803
X4.3Y-3.6803
X4.3Y-3.7803
X4.3Y-3.8803
X4.3Y-3.9803
X4.3Y-4.0803
X4.3Y-4.1803
X4.3Y-4.2803
X4.3Y-4.3803
X4.3Y-4.4803
X4.3Y-4.5803
X4.3Y-4.6803
X4.3Y-4.7803
X4.3Y-4.8803
X4.3Y-4.9803
X4.3Y-5.0803
X4.3Y-5.1803
X5.1504Y-4.0594
X5.1504Y-4.1594
X5.1504Y-4.2594
X5.1504Y-4.3594
X5.1504Y-4.4594
X5.5713Y-5.6201
X5.6713Y-5.6201
X5.9362Y-5.1346
X5.9362Y-5.2346
X5.9362Y-5.3346
X5.9724Y-5.6189
X6.0724Y-5.6189
X6.172Y-5.1339
X6.172Y-5.2339
X6.172Y-5.3339
X6.1724Y-5.6189
X7.1921Y-3.3315
X7.1921Y-3.4315
X7.1921Y-3.5315
X7.1921Y-3.6315
X7.1921Y-3.7315
X7.1921Y-3.8315
X7.1921Y-3.9315
X7.1921Y-4.0315
X7.1921Y-4.1315
X7.1921Y-4.2315
X7.1921Y-4.3315
X7.1921Y-4.4315
X7.1921Y-4.5315
X7.1921Y-4.6315
X7.1921Y-4.7315
X7.1921Y-4.8315
X7.1921Y-4.9315
X7.1921Y-5.0315
X7.1921Y-5.1315
X7.1921Y-5.2315
T5
X4.0945Y-2.8346
X4.0945Y-5.689
X7.1575Y-2.8346
X7.1654Y-5.689
T0
M30
