G04 #@! TF.GenerationSoftware,KiCad,Pcbnew,(5.1.5)-3*
G04 #@! TF.CreationDate,2021-04-17T16:45:16-03:00*
G04 #@! TF.ProjectId,PonchoBiopotenciales,506f6e63-686f-4426-996f-706f74656e63,1.0*
G04 #@! TF.SameCoordinates,Original*
G04 #@! TF.FileFunction,OtherDrawing,Comment*
%FSLAX46Y46*%
G04 Gerber Fmt 4.6, Leading zero omitted, Abs format (unit mm)*
G04 Created by KiCad (PCBNEW (5.1.5)-3) date 2021-04-17 16:45:16*
%MOMM*%
%LPD*%
G04 APERTURE LIST*
%ADD10C,0.150000*%
%ADD11C,0.300000*%
%ADD12C,0.200000*%
G04 APERTURE END LIST*
D10*
X125095000Y-84455000D02*
X121920000Y-84455000D01*
X125095000Y-100965000D02*
X125095000Y-84455000D01*
X121920000Y-100965000D02*
X125095000Y-100965000D01*
X121920000Y-98425000D02*
X121920000Y-100965000D01*
X121920000Y-84455000D02*
X121920000Y-98425000D01*
X125095000Y-113030000D02*
X121920000Y-113030000D01*
X125095000Y-128905000D02*
X125095000Y-113030000D01*
X124460000Y-128905000D02*
X125095000Y-128905000D01*
X121920000Y-128905000D02*
X124460000Y-128905000D01*
X121920000Y-113030000D02*
X121920000Y-128905000D01*
X105666666Y-144500000D02*
G75*
G03X105666666Y-144500000I-1666666J0D01*
G01*
X101500000Y-144500000D02*
X106500000Y-144500000D01*
X104000000Y-142000000D02*
X104000000Y-147000000D01*
D11*
X93621428Y-142285714D02*
X92621428Y-142285714D01*
X94192857Y-141928571D02*
X93121428Y-141571428D01*
X93121428Y-142500000D01*
X92692857Y-143142857D02*
X92621428Y-143142857D01*
X92478571Y-143071428D01*
X92407142Y-143000000D01*
X94121428Y-144071428D02*
X94121428Y-144214285D01*
X94050000Y-144357142D01*
X93978571Y-144428571D01*
X93835714Y-144500000D01*
X93550000Y-144571428D01*
X93192857Y-144571428D01*
X92907142Y-144500000D01*
X92764285Y-144428571D01*
X92692857Y-144357142D01*
X92621428Y-144214285D01*
X92621428Y-144071428D01*
X92692857Y-143928571D01*
X92764285Y-143857142D01*
X92907142Y-143785714D01*
X93192857Y-143714285D01*
X93550000Y-143714285D01*
X93835714Y-143785714D01*
X93978571Y-143857142D01*
X94050000Y-143928571D01*
X94121428Y-144071428D01*
X94121428Y-145500000D02*
X94121428Y-145642857D01*
X94050000Y-145785714D01*
X93978571Y-145857142D01*
X93835714Y-145928571D01*
X93550000Y-146000000D01*
X93192857Y-146000000D01*
X92907142Y-145928571D01*
X92764285Y-145857142D01*
X92692857Y-145785714D01*
X92621428Y-145642857D01*
X92621428Y-145500000D01*
X92692857Y-145357142D01*
X92764285Y-145285714D01*
X92907142Y-145214285D01*
X93192857Y-145142857D01*
X93550000Y-145142857D01*
X93835714Y-145214285D01*
X93978571Y-145285714D01*
X94050000Y-145357142D01*
X94121428Y-145500000D01*
X94121428Y-146928571D02*
X94121428Y-147071428D01*
X94050000Y-147214285D01*
X93978571Y-147285714D01*
X93835714Y-147357142D01*
X93550000Y-147428571D01*
X93192857Y-147428571D01*
X92907142Y-147357142D01*
X92764285Y-147285714D01*
X92692857Y-147214285D01*
X92621428Y-147071428D01*
X92621428Y-146928571D01*
X92692857Y-146785714D01*
X92764285Y-146714285D01*
X92907142Y-146642857D01*
X93192857Y-146571428D01*
X93550000Y-146571428D01*
X93835714Y-146642857D01*
X93978571Y-146714285D01*
X94050000Y-146785714D01*
X94121428Y-146928571D01*
X92621428Y-148071428D02*
X93621428Y-148071428D01*
X93478571Y-148071428D02*
X93550000Y-148142857D01*
X93621428Y-148285714D01*
X93621428Y-148500000D01*
X93550000Y-148642857D01*
X93407142Y-148714285D01*
X92621428Y-148714285D01*
X93407142Y-148714285D02*
X93550000Y-148785714D01*
X93621428Y-148928571D01*
X93621428Y-149142857D01*
X93550000Y-149285714D01*
X93407142Y-149357142D01*
X92621428Y-149357142D01*
X92621428Y-150071428D02*
X93621428Y-150071428D01*
X93478571Y-150071428D02*
X93550000Y-150142857D01*
X93621428Y-150285714D01*
X93621428Y-150500000D01*
X93550000Y-150642857D01*
X93407142Y-150714285D01*
X92621428Y-150714285D01*
X93407142Y-150714285D02*
X93550000Y-150785714D01*
X93621428Y-150928571D01*
X93621428Y-151142857D01*
X93550000Y-151285714D01*
X93407142Y-151357142D01*
X92621428Y-151357142D01*
X97300000Y-144500000D02*
X97300000Y-148500000D01*
X100000000Y-144500000D02*
X94600000Y-144500000D01*
X100000000Y-148500000D02*
X94600000Y-148500000D01*
X97300000Y-148500000D02*
X96713579Y-147373496D01*
X97300000Y-148500000D02*
X97886421Y-147373496D01*
X97300000Y-144500000D02*
X96713579Y-145626504D01*
X97300000Y-144500000D02*
X97886421Y-145626504D01*
D12*
X104800000Y-155600000D02*
X115100000Y-155600000D01*
X102000000Y-152800000D02*
X104800000Y-155600000D01*
D11*
X105685714Y-153978571D02*
X105685714Y-154978571D01*
X105328571Y-153407142D02*
X104971428Y-154478571D01*
X105900000Y-154478571D01*
X106542857Y-154907142D02*
X106542857Y-154978571D01*
X106471428Y-155121428D01*
X106400000Y-155192857D01*
X107471428Y-153478571D02*
X107614285Y-153478571D01*
X107757142Y-153550000D01*
X107828571Y-153621428D01*
X107900000Y-153764285D01*
X107971428Y-154050000D01*
X107971428Y-154407142D01*
X107900000Y-154692857D01*
X107828571Y-154835714D01*
X107757142Y-154907142D01*
X107614285Y-154978571D01*
X107471428Y-154978571D01*
X107328571Y-154907142D01*
X107257142Y-154835714D01*
X107185714Y-154692857D01*
X107114285Y-154407142D01*
X107114285Y-154050000D01*
X107185714Y-153764285D01*
X107257142Y-153621428D01*
X107328571Y-153550000D01*
X107471428Y-153478571D01*
X108900000Y-153478571D02*
X109042857Y-153478571D01*
X109185714Y-153550000D01*
X109257142Y-153621428D01*
X109328571Y-153764285D01*
X109400000Y-154050000D01*
X109400000Y-154407142D01*
X109328571Y-154692857D01*
X109257142Y-154835714D01*
X109185714Y-154907142D01*
X109042857Y-154978571D01*
X108900000Y-154978571D01*
X108757142Y-154907142D01*
X108685714Y-154835714D01*
X108614285Y-154692857D01*
X108542857Y-154407142D01*
X108542857Y-154050000D01*
X108614285Y-153764285D01*
X108685714Y-153621428D01*
X108757142Y-153550000D01*
X108900000Y-153478571D01*
X110328571Y-153478571D02*
X110471428Y-153478571D01*
X110614285Y-153550000D01*
X110685714Y-153621428D01*
X110757142Y-153764285D01*
X110828571Y-154050000D01*
X110828571Y-154407142D01*
X110757142Y-154692857D01*
X110685714Y-154835714D01*
X110614285Y-154907142D01*
X110471428Y-154978571D01*
X110328571Y-154978571D01*
X110185714Y-154907142D01*
X110114285Y-154835714D01*
X110042857Y-154692857D01*
X109971428Y-154407142D01*
X109971428Y-154050000D01*
X110042857Y-153764285D01*
X110114285Y-153621428D01*
X110185714Y-153550000D01*
X110328571Y-153478571D01*
X111471428Y-154978571D02*
X111471428Y-153978571D01*
X111471428Y-154121428D02*
X111542857Y-154050000D01*
X111685714Y-153978571D01*
X111900000Y-153978571D01*
X112042857Y-154050000D01*
X112114285Y-154192857D01*
X112114285Y-154978571D01*
X112114285Y-154192857D02*
X112185714Y-154050000D01*
X112328571Y-153978571D01*
X112542857Y-153978571D01*
X112685714Y-154050000D01*
X112757142Y-154192857D01*
X112757142Y-154978571D01*
X113471428Y-154978571D02*
X113471428Y-153978571D01*
X113471428Y-154121428D02*
X113542857Y-154050000D01*
X113685714Y-153978571D01*
X113900000Y-153978571D01*
X114042857Y-154050000D01*
X114114285Y-154192857D01*
X114114285Y-154978571D01*
X114114285Y-154192857D02*
X114185714Y-154050000D01*
X114328571Y-153978571D01*
X114542857Y-153978571D01*
X114685714Y-154050000D01*
X114757142Y-154192857D01*
X114757142Y-154978571D01*
X104000000Y-151400000D02*
X100000000Y-151400000D01*
X104000000Y-148400000D02*
X104000000Y-154100000D01*
X100000000Y-148400000D02*
X100000000Y-154100000D01*
X100000000Y-151400000D02*
X101126504Y-150813579D01*
X100000000Y-151400000D02*
X101126504Y-151986421D01*
X104000000Y-151400000D02*
X102873496Y-150813579D01*
X104000000Y-151400000D02*
X102873496Y-151986421D01*
D12*
X93600000Y-67500000D02*
X93600000Y-56700000D01*
X96200000Y-70100000D02*
X93600000Y-67500000D01*
D11*
X97785714Y-60978571D02*
X97785714Y-61978571D01*
X97428571Y-60407142D02*
X97071428Y-61478571D01*
X98000000Y-61478571D01*
X98642857Y-61907142D02*
X98642857Y-61978571D01*
X98571428Y-62121428D01*
X98500000Y-62192857D01*
X99571428Y-60478571D02*
X99714285Y-60478571D01*
X99857142Y-60550000D01*
X99928571Y-60621428D01*
X100000000Y-60764285D01*
X100071428Y-61050000D01*
X100071428Y-61407142D01*
X100000000Y-61692857D01*
X99928571Y-61835714D01*
X99857142Y-61907142D01*
X99714285Y-61978571D01*
X99571428Y-61978571D01*
X99428571Y-61907142D01*
X99357142Y-61835714D01*
X99285714Y-61692857D01*
X99214285Y-61407142D01*
X99214285Y-61050000D01*
X99285714Y-60764285D01*
X99357142Y-60621428D01*
X99428571Y-60550000D01*
X99571428Y-60478571D01*
X101000000Y-60478571D02*
X101142857Y-60478571D01*
X101285714Y-60550000D01*
X101357142Y-60621428D01*
X101428571Y-60764285D01*
X101500000Y-61050000D01*
X101500000Y-61407142D01*
X101428571Y-61692857D01*
X101357142Y-61835714D01*
X101285714Y-61907142D01*
X101142857Y-61978571D01*
X101000000Y-61978571D01*
X100857142Y-61907142D01*
X100785714Y-61835714D01*
X100714285Y-61692857D01*
X100642857Y-61407142D01*
X100642857Y-61050000D01*
X100714285Y-60764285D01*
X100785714Y-60621428D01*
X100857142Y-60550000D01*
X101000000Y-60478571D01*
X102428571Y-60478571D02*
X102571428Y-60478571D01*
X102714285Y-60550000D01*
X102785714Y-60621428D01*
X102857142Y-60764285D01*
X102928571Y-61050000D01*
X102928571Y-61407142D01*
X102857142Y-61692857D01*
X102785714Y-61835714D01*
X102714285Y-61907142D01*
X102571428Y-61978571D01*
X102428571Y-61978571D01*
X102285714Y-61907142D01*
X102214285Y-61835714D01*
X102142857Y-61692857D01*
X102071428Y-61407142D01*
X102071428Y-61050000D01*
X102142857Y-60764285D01*
X102214285Y-60621428D01*
X102285714Y-60550000D01*
X102428571Y-60478571D01*
X103571428Y-61978571D02*
X103571428Y-60978571D01*
X103571428Y-61121428D02*
X103642857Y-61050000D01*
X103785714Y-60978571D01*
X104000000Y-60978571D01*
X104142857Y-61050000D01*
X104214285Y-61192857D01*
X104214285Y-61978571D01*
X104214285Y-61192857D02*
X104285714Y-61050000D01*
X104428571Y-60978571D01*
X104642857Y-60978571D01*
X104785714Y-61050000D01*
X104857142Y-61192857D01*
X104857142Y-61978571D01*
X105571428Y-61978571D02*
X105571428Y-60978571D01*
X105571428Y-61121428D02*
X105642857Y-61050000D01*
X105785714Y-60978571D01*
X106000000Y-60978571D01*
X106142857Y-61050000D01*
X106214285Y-61192857D01*
X106214285Y-61978571D01*
X106214285Y-61192857D02*
X106285714Y-61050000D01*
X106428571Y-60978571D01*
X106642857Y-60978571D01*
X106785714Y-61050000D01*
X106857142Y-61192857D01*
X106857142Y-61978571D01*
X104000000Y-65300000D02*
X100000000Y-65300000D01*
X104000000Y-68000000D02*
X104000000Y-62600000D01*
X100000000Y-68000000D02*
X100000000Y-62600000D01*
X100000000Y-65300000D02*
X101126504Y-64713579D01*
X100000000Y-65300000D02*
X101126504Y-65886421D01*
X104000000Y-65300000D02*
X102873496Y-64713579D01*
X104000000Y-65300000D02*
X102873496Y-65886421D01*
D12*
X181800000Y-62400000D02*
X172000000Y-62400000D01*
X183800000Y-64400000D02*
X181800000Y-62400000D01*
D11*
X172485714Y-60878571D02*
X172485714Y-61878571D01*
X172128571Y-60307142D02*
X171771428Y-61378571D01*
X172700000Y-61378571D01*
X173342857Y-61807142D02*
X173342857Y-61878571D01*
X173271428Y-62021428D01*
X173200000Y-62092857D01*
X174271428Y-60378571D02*
X174414285Y-60378571D01*
X174557142Y-60450000D01*
X174628571Y-60521428D01*
X174700000Y-60664285D01*
X174771428Y-60950000D01*
X174771428Y-61307142D01*
X174700000Y-61592857D01*
X174628571Y-61735714D01*
X174557142Y-61807142D01*
X174414285Y-61878571D01*
X174271428Y-61878571D01*
X174128571Y-61807142D01*
X174057142Y-61735714D01*
X173985714Y-61592857D01*
X173914285Y-61307142D01*
X173914285Y-60950000D01*
X173985714Y-60664285D01*
X174057142Y-60521428D01*
X174128571Y-60450000D01*
X174271428Y-60378571D01*
X175700000Y-60378571D02*
X175842857Y-60378571D01*
X175985714Y-60450000D01*
X176057142Y-60521428D01*
X176128571Y-60664285D01*
X176200000Y-60950000D01*
X176200000Y-61307142D01*
X176128571Y-61592857D01*
X176057142Y-61735714D01*
X175985714Y-61807142D01*
X175842857Y-61878571D01*
X175700000Y-61878571D01*
X175557142Y-61807142D01*
X175485714Y-61735714D01*
X175414285Y-61592857D01*
X175342857Y-61307142D01*
X175342857Y-60950000D01*
X175414285Y-60664285D01*
X175485714Y-60521428D01*
X175557142Y-60450000D01*
X175700000Y-60378571D01*
X177128571Y-60378571D02*
X177271428Y-60378571D01*
X177414285Y-60450000D01*
X177485714Y-60521428D01*
X177557142Y-60664285D01*
X177628571Y-60950000D01*
X177628571Y-61307142D01*
X177557142Y-61592857D01*
X177485714Y-61735714D01*
X177414285Y-61807142D01*
X177271428Y-61878571D01*
X177128571Y-61878571D01*
X176985714Y-61807142D01*
X176914285Y-61735714D01*
X176842857Y-61592857D01*
X176771428Y-61307142D01*
X176771428Y-60950000D01*
X176842857Y-60664285D01*
X176914285Y-60521428D01*
X176985714Y-60450000D01*
X177128571Y-60378571D01*
X178271428Y-61878571D02*
X178271428Y-60878571D01*
X178271428Y-61021428D02*
X178342857Y-60950000D01*
X178485714Y-60878571D01*
X178700000Y-60878571D01*
X178842857Y-60950000D01*
X178914285Y-61092857D01*
X178914285Y-61878571D01*
X178914285Y-61092857D02*
X178985714Y-60950000D01*
X179128571Y-60878571D01*
X179342857Y-60878571D01*
X179485714Y-60950000D01*
X179557142Y-61092857D01*
X179557142Y-61878571D01*
X180271428Y-61878571D02*
X180271428Y-60878571D01*
X180271428Y-61021428D02*
X180342857Y-60950000D01*
X180485714Y-60878571D01*
X180700000Y-60878571D01*
X180842857Y-60950000D01*
X180914285Y-61092857D01*
X180914285Y-61878571D01*
X180914285Y-61092857D02*
X180985714Y-60950000D01*
X181128571Y-60878571D01*
X181342857Y-60878571D01*
X181485714Y-60950000D01*
X181557142Y-61092857D01*
X181557142Y-61878571D01*
X181800000Y-65400000D02*
X185800000Y-65400000D01*
X181800000Y-68000000D02*
X181800000Y-62700000D01*
X185800000Y-68000000D02*
X185800000Y-62700000D01*
X185800000Y-65400000D02*
X184673496Y-65986421D01*
X185800000Y-65400000D02*
X184673496Y-64813579D01*
X181800000Y-65400000D02*
X182926504Y-65986421D01*
X181800000Y-65400000D02*
X182926504Y-64813579D01*
X91628571Y-80435714D02*
X91628571Y-81292857D01*
X91628571Y-80864285D02*
X90128571Y-80864285D01*
X90342857Y-81007142D01*
X90485714Y-81150000D01*
X90557142Y-81292857D01*
X90128571Y-79078571D02*
X90128571Y-79792857D01*
X90842857Y-79864285D01*
X90771428Y-79792857D01*
X90700000Y-79650000D01*
X90700000Y-79292857D01*
X90771428Y-79150000D01*
X90842857Y-79078571D01*
X90985714Y-79007142D01*
X91342857Y-79007142D01*
X91485714Y-79078571D01*
X91557142Y-79150000D01*
X91628571Y-79292857D01*
X91628571Y-79650000D01*
X91557142Y-79792857D01*
X91485714Y-79864285D01*
X91557142Y-78292857D02*
X91628571Y-78292857D01*
X91771428Y-78364285D01*
X91842857Y-78435714D01*
X90128571Y-77792857D02*
X90128571Y-76864285D01*
X90700000Y-77364285D01*
X90700000Y-77150000D01*
X90771428Y-77007142D01*
X90842857Y-76935714D01*
X90985714Y-76864285D01*
X91342857Y-76864285D01*
X91485714Y-76935714D01*
X91557142Y-77007142D01*
X91628571Y-77150000D01*
X91628571Y-77578571D01*
X91557142Y-77721428D01*
X91485714Y-77792857D01*
X90128571Y-75935714D02*
X90128571Y-75792857D01*
X90200000Y-75650000D01*
X90271428Y-75578571D01*
X90414285Y-75507142D01*
X90700000Y-75435714D01*
X91057142Y-75435714D01*
X91342857Y-75507142D01*
X91485714Y-75578571D01*
X91557142Y-75650000D01*
X91628571Y-75792857D01*
X91628571Y-75935714D01*
X91557142Y-76078571D01*
X91485714Y-76150000D01*
X91342857Y-76221428D01*
X91057142Y-76292857D01*
X90700000Y-76292857D01*
X90414285Y-76221428D01*
X90271428Y-76150000D01*
X90200000Y-76078571D01*
X90128571Y-75935714D01*
X90128571Y-74507142D02*
X90128571Y-74364285D01*
X90200000Y-74221428D01*
X90271428Y-74150000D01*
X90414285Y-74078571D01*
X90700000Y-74007142D01*
X91057142Y-74007142D01*
X91342857Y-74078571D01*
X91485714Y-74150000D01*
X91557142Y-74221428D01*
X91628571Y-74364285D01*
X91628571Y-74507142D01*
X91557142Y-74650000D01*
X91485714Y-74721428D01*
X91342857Y-74792857D01*
X91057142Y-74864285D01*
X90700000Y-74864285D01*
X90414285Y-74792857D01*
X90271428Y-74721428D01*
X90200000Y-74650000D01*
X90128571Y-74507142D01*
X91628571Y-73364285D02*
X90628571Y-73364285D01*
X90771428Y-73364285D02*
X90700000Y-73292857D01*
X90628571Y-73150000D01*
X90628571Y-72935714D01*
X90700000Y-72792857D01*
X90842857Y-72721428D01*
X91628571Y-72721428D01*
X90842857Y-72721428D02*
X90700000Y-72650000D01*
X90628571Y-72507142D01*
X90628571Y-72292857D01*
X90700000Y-72150000D01*
X90842857Y-72078571D01*
X91628571Y-72078571D01*
X91628571Y-71364285D02*
X90628571Y-71364285D01*
X90771428Y-71364285D02*
X90700000Y-71292857D01*
X90628571Y-71150000D01*
X90628571Y-70935714D01*
X90700000Y-70792857D01*
X90842857Y-70721428D01*
X91628571Y-70721428D01*
X90842857Y-70721428D02*
X90700000Y-70650000D01*
X90628571Y-70507142D01*
X90628571Y-70292857D01*
X90700000Y-70150000D01*
X90842857Y-70078571D01*
X91628571Y-70078571D01*
X92300000Y-83300000D02*
X92300000Y-68000000D01*
X106700000Y-83300000D02*
X89600000Y-83300000D01*
X106700000Y-68000000D02*
X89600000Y-68000000D01*
X92300000Y-68000000D02*
X92886421Y-69126504D01*
X92300000Y-68000000D02*
X91713579Y-69126504D01*
X92300000Y-83300000D02*
X92886421Y-82173496D01*
X92300000Y-83300000D02*
X91713579Y-82173496D01*
X92278571Y-66214285D02*
X93278571Y-66214285D01*
X91707142Y-66571428D02*
X92778571Y-66928571D01*
X92778571Y-66000000D01*
X93207142Y-65357142D02*
X93278571Y-65357142D01*
X93421428Y-65428571D01*
X93492857Y-65500000D01*
X91778571Y-64428571D02*
X91778571Y-64285714D01*
X91850000Y-64142857D01*
X91921428Y-64071428D01*
X92064285Y-64000000D01*
X92350000Y-63928571D01*
X92707142Y-63928571D01*
X92992857Y-64000000D01*
X93135714Y-64071428D01*
X93207142Y-64142857D01*
X93278571Y-64285714D01*
X93278571Y-64428571D01*
X93207142Y-64571428D01*
X93135714Y-64642857D01*
X92992857Y-64714285D01*
X92707142Y-64785714D01*
X92350000Y-64785714D01*
X92064285Y-64714285D01*
X91921428Y-64642857D01*
X91850000Y-64571428D01*
X91778571Y-64428571D01*
X91778571Y-63000000D02*
X91778571Y-62857142D01*
X91850000Y-62714285D01*
X91921428Y-62642857D01*
X92064285Y-62571428D01*
X92350000Y-62500000D01*
X92707142Y-62500000D01*
X92992857Y-62571428D01*
X93135714Y-62642857D01*
X93207142Y-62714285D01*
X93278571Y-62857142D01*
X93278571Y-63000000D01*
X93207142Y-63142857D01*
X93135714Y-63214285D01*
X92992857Y-63285714D01*
X92707142Y-63357142D01*
X92350000Y-63357142D01*
X92064285Y-63285714D01*
X91921428Y-63214285D01*
X91850000Y-63142857D01*
X91778571Y-63000000D01*
X91778571Y-61571428D02*
X91778571Y-61428571D01*
X91850000Y-61285714D01*
X91921428Y-61214285D01*
X92064285Y-61142857D01*
X92350000Y-61071428D01*
X92707142Y-61071428D01*
X92992857Y-61142857D01*
X93135714Y-61214285D01*
X93207142Y-61285714D01*
X93278571Y-61428571D01*
X93278571Y-61571428D01*
X93207142Y-61714285D01*
X93135714Y-61785714D01*
X92992857Y-61857142D01*
X92707142Y-61928571D01*
X92350000Y-61928571D01*
X92064285Y-61857142D01*
X91921428Y-61785714D01*
X91850000Y-61714285D01*
X91778571Y-61571428D01*
X93278571Y-60428571D02*
X92278571Y-60428571D01*
X92421428Y-60428571D02*
X92350000Y-60357142D01*
X92278571Y-60214285D01*
X92278571Y-60000000D01*
X92350000Y-59857142D01*
X92492857Y-59785714D01*
X93278571Y-59785714D01*
X92492857Y-59785714D02*
X92350000Y-59714285D01*
X92278571Y-59571428D01*
X92278571Y-59357142D01*
X92350000Y-59214285D01*
X92492857Y-59142857D01*
X93278571Y-59142857D01*
X93278571Y-58428571D02*
X92278571Y-58428571D01*
X92421428Y-58428571D02*
X92350000Y-58357142D01*
X92278571Y-58214285D01*
X92278571Y-58000000D01*
X92350000Y-57857142D01*
X92492857Y-57785714D01*
X93278571Y-57785714D01*
X92492857Y-57785714D02*
X92350000Y-57714285D01*
X92278571Y-57571428D01*
X92278571Y-57357142D01*
X92350000Y-57214285D01*
X92492857Y-57142857D01*
X93278571Y-57142857D01*
X97000000Y-72000000D02*
X97000000Y-68000000D01*
X104000000Y-72000000D02*
X94300000Y-72000000D01*
X104000000Y-68000000D02*
X94300000Y-68000000D01*
X97000000Y-68000000D02*
X97586421Y-69126504D01*
X97000000Y-68000000D02*
X96413579Y-69126504D01*
X97000000Y-72000000D02*
X97586421Y-70873496D01*
X97000000Y-72000000D02*
X96413579Y-70873496D01*
X195627193Y-83107313D02*
X195625155Y-83964454D01*
X195626174Y-83535884D02*
X194126178Y-83532318D01*
X194340124Y-83675684D01*
X194482641Y-83818880D01*
X194553729Y-83961907D01*
X194271412Y-82532660D02*
X194200153Y-82461062D01*
X194129065Y-82318036D01*
X194129914Y-81960894D01*
X194201682Y-81818207D01*
X194273280Y-81746948D01*
X194416306Y-81675859D01*
X194559163Y-81676199D01*
X194773278Y-81748137D01*
X195628381Y-82607315D01*
X195630589Y-81678746D01*
X195560858Y-80964292D02*
X195632286Y-80964462D01*
X195774973Y-81036230D01*
X195846232Y-81107828D01*
X194135347Y-79675186D02*
X194134668Y-79960899D01*
X194205757Y-80103926D01*
X194277015Y-80175524D01*
X194490961Y-80318890D01*
X194776504Y-80390998D01*
X195347931Y-80392356D01*
X195490958Y-80321267D01*
X195562556Y-80250009D01*
X195634324Y-80107322D01*
X195635003Y-79821608D01*
X195563914Y-79678582D01*
X195492656Y-79606984D01*
X195349969Y-79535216D01*
X194992827Y-79534367D01*
X194849801Y-79605455D01*
X194778202Y-79676714D01*
X194706434Y-79819401D01*
X194705755Y-80105114D01*
X194776844Y-80248141D01*
X194848103Y-80319739D01*
X194990790Y-80391507D01*
X194279902Y-78961242D02*
X194208643Y-78889644D01*
X194137554Y-78746617D01*
X194138403Y-78389475D01*
X194210171Y-78246788D01*
X194281770Y-78175530D01*
X194424796Y-78104441D01*
X194567653Y-78104781D01*
X194781768Y-78176718D01*
X195636871Y-79035896D01*
X195639078Y-78107327D01*
X194141290Y-77175193D02*
X194141630Y-77032336D01*
X194213398Y-76889649D01*
X194284996Y-76818391D01*
X194428022Y-76747302D01*
X194713906Y-76676553D01*
X195071047Y-76677402D01*
X195356591Y-76749509D01*
X195499278Y-76821277D01*
X195570537Y-76892875D01*
X195641625Y-77035902D01*
X195641286Y-77178759D01*
X195569518Y-77321446D01*
X195497920Y-77392704D01*
X195354893Y-77463793D01*
X195069010Y-77534542D01*
X194711868Y-77533693D01*
X194426324Y-77461586D01*
X194283637Y-77389818D01*
X194212379Y-77318219D01*
X194141290Y-77175193D01*
X195644003Y-76035905D02*
X194644005Y-76033528D01*
X194786862Y-76033867D02*
X194715604Y-75962269D01*
X194644515Y-75819242D01*
X194645024Y-75604957D01*
X194716792Y-75462270D01*
X194859819Y-75391182D01*
X195645531Y-75393049D01*
X194859819Y-75391182D02*
X194717132Y-75319414D01*
X194646043Y-75176387D01*
X194646552Y-74962102D01*
X194718320Y-74819415D01*
X194861347Y-74748326D01*
X195647059Y-74750194D01*
X195648757Y-74035910D02*
X194648760Y-74033533D01*
X194791616Y-74033873D02*
X194720358Y-73962275D01*
X194649269Y-73819248D01*
X194649779Y-73604963D01*
X194721546Y-73462276D01*
X194864573Y-73391187D01*
X195650285Y-73393055D01*
X194864573Y-73391187D02*
X194721886Y-73319419D01*
X194650797Y-73176393D01*
X194651307Y-72962108D01*
X194723075Y-72819421D01*
X194866101Y-72748332D01*
X195651813Y-72750200D01*
X193008487Y-72026169D02*
X192978487Y-84646169D01*
X182000000Y-72000000D02*
X195708479Y-72032587D01*
X181970000Y-84620000D02*
X195678479Y-84652587D01*
X192978487Y-84646169D02*
X192394746Y-83518274D01*
X192978487Y-84646169D02*
X193567584Y-83521062D01*
X193008487Y-72026169D02*
X192419390Y-73151276D01*
X193008487Y-72026169D02*
X193592228Y-73154064D01*
D12*
X191000000Y-69000000D02*
X191000000Y-57000000D01*
X192000000Y-70000000D02*
X191000000Y-69000000D01*
D11*
X189678571Y-66214285D02*
X190678571Y-66214285D01*
X189107142Y-66571428D02*
X190178571Y-66928571D01*
X190178571Y-66000000D01*
X190607142Y-65357142D02*
X190678571Y-65357142D01*
X190821428Y-65428571D01*
X190892857Y-65500000D01*
X189178571Y-64428571D02*
X189178571Y-64285714D01*
X189250000Y-64142857D01*
X189321428Y-64071428D01*
X189464285Y-64000000D01*
X189750000Y-63928571D01*
X190107142Y-63928571D01*
X190392857Y-64000000D01*
X190535714Y-64071428D01*
X190607142Y-64142857D01*
X190678571Y-64285714D01*
X190678571Y-64428571D01*
X190607142Y-64571428D01*
X190535714Y-64642857D01*
X190392857Y-64714285D01*
X190107142Y-64785714D01*
X189750000Y-64785714D01*
X189464285Y-64714285D01*
X189321428Y-64642857D01*
X189250000Y-64571428D01*
X189178571Y-64428571D01*
X189178571Y-63000000D02*
X189178571Y-62857142D01*
X189250000Y-62714285D01*
X189321428Y-62642857D01*
X189464285Y-62571428D01*
X189750000Y-62500000D01*
X190107142Y-62500000D01*
X190392857Y-62571428D01*
X190535714Y-62642857D01*
X190607142Y-62714285D01*
X190678571Y-62857142D01*
X190678571Y-63000000D01*
X190607142Y-63142857D01*
X190535714Y-63214285D01*
X190392857Y-63285714D01*
X190107142Y-63357142D01*
X189750000Y-63357142D01*
X189464285Y-63285714D01*
X189321428Y-63214285D01*
X189250000Y-63142857D01*
X189178571Y-63000000D01*
X189178571Y-61571428D02*
X189178571Y-61428571D01*
X189250000Y-61285714D01*
X189321428Y-61214285D01*
X189464285Y-61142857D01*
X189750000Y-61071428D01*
X190107142Y-61071428D01*
X190392857Y-61142857D01*
X190535714Y-61214285D01*
X190607142Y-61285714D01*
X190678571Y-61428571D01*
X190678571Y-61571428D01*
X190607142Y-61714285D01*
X190535714Y-61785714D01*
X190392857Y-61857142D01*
X190107142Y-61928571D01*
X189750000Y-61928571D01*
X189464285Y-61857142D01*
X189321428Y-61785714D01*
X189250000Y-61714285D01*
X189178571Y-61571428D01*
X190678571Y-60428571D02*
X189678571Y-60428571D01*
X189821428Y-60428571D02*
X189750000Y-60357142D01*
X189678571Y-60214285D01*
X189678571Y-60000000D01*
X189750000Y-59857142D01*
X189892857Y-59785714D01*
X190678571Y-59785714D01*
X189892857Y-59785714D02*
X189750000Y-59714285D01*
X189678571Y-59571428D01*
X189678571Y-59357142D01*
X189750000Y-59214285D01*
X189892857Y-59142857D01*
X190678571Y-59142857D01*
X190678571Y-58428571D02*
X189678571Y-58428571D01*
X189821428Y-58428571D02*
X189750000Y-58357142D01*
X189678571Y-58214285D01*
X189678571Y-58000000D01*
X189750000Y-57857142D01*
X189892857Y-57785714D01*
X190678571Y-57785714D01*
X189892857Y-57785714D02*
X189750000Y-57714285D01*
X189678571Y-57571428D01*
X189678571Y-57357142D01*
X189750000Y-57214285D01*
X189892857Y-57142857D01*
X190678571Y-57142857D01*
X193000000Y-72000000D02*
X193000000Y-68000000D01*
X182000000Y-72000000D02*
X195700000Y-72000000D01*
X182000000Y-68000000D02*
X195700000Y-68000000D01*
X193000000Y-68000000D02*
X193586421Y-69126504D01*
X193000000Y-68000000D02*
X192413579Y-69126504D01*
X193000000Y-72000000D02*
X193586421Y-70873496D01*
X193000000Y-72000000D02*
X192413579Y-70873496D01*
X203564776Y-102798463D02*
X203636169Y-102655589D01*
X203707580Y-102584142D01*
X203850419Y-102512678D01*
X203921847Y-102512660D01*
X204064722Y-102584053D01*
X204136169Y-102655464D01*
X204207633Y-102798304D01*
X204207704Y-103084018D01*
X204136311Y-103226893D01*
X204064900Y-103298339D01*
X203922060Y-103369803D01*
X203850632Y-103369821D01*
X203707757Y-103298428D01*
X203636311Y-103227017D01*
X203564847Y-103084178D01*
X203564776Y-102798463D01*
X203493312Y-102655624D01*
X203421865Y-102584213D01*
X203278990Y-102512820D01*
X202993276Y-102512891D01*
X202850437Y-102584355D01*
X202779026Y-102655802D01*
X202707633Y-102798676D01*
X202707704Y-103084391D01*
X202779168Y-103227230D01*
X202850614Y-103298641D01*
X202993489Y-103370034D01*
X203279203Y-103369963D01*
X203422043Y-103298499D01*
X203493454Y-103227053D01*
X203564847Y-103084178D01*
X204208006Y-104298304D02*
X204208041Y-104441161D01*
X204136648Y-104584036D01*
X204065237Y-104655482D01*
X203922398Y-104726946D01*
X203636701Y-104798446D01*
X203279558Y-104798534D01*
X202993826Y-104727177D01*
X202850951Y-104655784D01*
X202779505Y-104584373D01*
X202708041Y-104441534D01*
X202708006Y-104298676D01*
X202779399Y-104155802D01*
X202850809Y-104084355D01*
X202993649Y-104012891D01*
X203279345Y-103941392D01*
X203636488Y-103941303D01*
X203922220Y-104012660D01*
X204065095Y-104084053D01*
X204136541Y-104155464D01*
X204208006Y-104298304D01*
X202779736Y-105512944D02*
X202708307Y-105512962D01*
X202565432Y-105441569D01*
X202493986Y-105370158D01*
X203708627Y-106798428D02*
X202708627Y-106798676D01*
X204279967Y-106441143D02*
X203208449Y-106084266D01*
X203208680Y-107012838D01*
X203566018Y-107798463D02*
X203637411Y-107655588D01*
X203708822Y-107584142D01*
X203851661Y-107512678D01*
X203923090Y-107512660D01*
X204065965Y-107584053D01*
X204137411Y-107655464D01*
X204208875Y-107798304D01*
X204208946Y-108084018D01*
X204137553Y-108226893D01*
X204066142Y-108298339D01*
X203923303Y-108369803D01*
X203851874Y-108369821D01*
X203709000Y-108298428D01*
X203637553Y-108227017D01*
X203566089Y-108084178D01*
X203566018Y-107798463D01*
X203494554Y-107655624D01*
X203423108Y-107584213D01*
X203280233Y-107512820D01*
X202994519Y-107512891D01*
X202851679Y-107584355D01*
X202780268Y-107655801D01*
X202708875Y-107798676D01*
X202708946Y-108084391D01*
X202780410Y-108227230D01*
X202851857Y-108298641D01*
X202994732Y-108370034D01*
X203280446Y-108369963D01*
X203423285Y-108298499D01*
X203494696Y-108227052D01*
X203566089Y-108084178D01*
X204209248Y-109298303D02*
X204209284Y-109441161D01*
X204137890Y-109584036D01*
X204066480Y-109655482D01*
X203923640Y-109726946D01*
X203637944Y-109798445D01*
X203280801Y-109798534D01*
X202995069Y-109727177D01*
X202852194Y-109655784D01*
X202780748Y-109584373D01*
X202709284Y-109441533D01*
X202709248Y-109298676D01*
X202780641Y-109155801D01*
X202852052Y-109084355D01*
X202994891Y-109012891D01*
X203280588Y-108941391D01*
X203637731Y-108941303D01*
X203923463Y-109012660D01*
X204066338Y-109084053D01*
X204137784Y-109155464D01*
X204209248Y-109298303D01*
X202709532Y-110441533D02*
X203709532Y-110441285D01*
X203566675Y-110441320D02*
X203638121Y-110512731D01*
X203709585Y-110655571D01*
X203709639Y-110869856D01*
X203638246Y-111012731D01*
X203495406Y-111084195D01*
X202709692Y-111084390D01*
X203495406Y-111084195D02*
X203638281Y-111155588D01*
X203709745Y-111298428D01*
X203709798Y-111512713D01*
X203638405Y-111655588D01*
X203495566Y-111727052D01*
X202709852Y-111727248D01*
X202710029Y-112441533D02*
X203710029Y-112441285D01*
X203567172Y-112441320D02*
X203638618Y-112512731D01*
X203710082Y-112655570D01*
X203710136Y-112869856D01*
X203638743Y-113012731D01*
X203495903Y-113084195D01*
X202710189Y-113084390D01*
X203495903Y-113084195D02*
X203638778Y-113155588D01*
X203710242Y-113298428D01*
X203710295Y-113512713D01*
X203638902Y-113655588D01*
X203496063Y-113727052D01*
X202710349Y-113727248D01*
X202047536Y-148395987D02*
X202027536Y-67915987D01*
X185900000Y-148400000D02*
X204747536Y-148395316D01*
X185880000Y-67920000D02*
X204727536Y-67915316D01*
X202027536Y-67915987D02*
X202614237Y-69042345D01*
X202027536Y-67915987D02*
X201441395Y-69042636D01*
X202047536Y-148395987D02*
X202633677Y-147269338D01*
X202047536Y-148395987D02*
X201460835Y-147269629D01*
X137592857Y-162611428D02*
X137450000Y-162540000D01*
X137378571Y-162468571D01*
X137307142Y-162325714D01*
X137307142Y-162254285D01*
X137378571Y-162111428D01*
X137450000Y-162040000D01*
X137592857Y-161968571D01*
X137878571Y-161968571D01*
X138021428Y-162040000D01*
X138092857Y-162111428D01*
X138164285Y-162254285D01*
X138164285Y-162325714D01*
X138092857Y-162468571D01*
X138021428Y-162540000D01*
X137878571Y-162611428D01*
X137592857Y-162611428D01*
X137450000Y-162682857D01*
X137378571Y-162754285D01*
X137307142Y-162897142D01*
X137307142Y-163182857D01*
X137378571Y-163325714D01*
X137450000Y-163397142D01*
X137592857Y-163468571D01*
X137878571Y-163468571D01*
X138021428Y-163397142D01*
X138092857Y-163325714D01*
X138164285Y-163182857D01*
X138164285Y-162897142D01*
X138092857Y-162754285D01*
X138021428Y-162682857D01*
X137878571Y-162611428D01*
X139521428Y-161968571D02*
X138807142Y-161968571D01*
X138735714Y-162682857D01*
X138807142Y-162611428D01*
X138950000Y-162540000D01*
X139307142Y-162540000D01*
X139450000Y-162611428D01*
X139521428Y-162682857D01*
X139592857Y-162825714D01*
X139592857Y-163182857D01*
X139521428Y-163325714D01*
X139450000Y-163397142D01*
X139307142Y-163468571D01*
X138950000Y-163468571D01*
X138807142Y-163397142D01*
X138735714Y-163325714D01*
X140307142Y-163397142D02*
X140307142Y-163468571D01*
X140235714Y-163611428D01*
X140164285Y-163682857D01*
X141164285Y-162611428D02*
X141021428Y-162540000D01*
X140950000Y-162468571D01*
X140878571Y-162325714D01*
X140878571Y-162254285D01*
X140950000Y-162111428D01*
X141021428Y-162040000D01*
X141164285Y-161968571D01*
X141450000Y-161968571D01*
X141592857Y-162040000D01*
X141664285Y-162111428D01*
X141735714Y-162254285D01*
X141735714Y-162325714D01*
X141664285Y-162468571D01*
X141592857Y-162540000D01*
X141450000Y-162611428D01*
X141164285Y-162611428D01*
X141021428Y-162682857D01*
X140950000Y-162754285D01*
X140878571Y-162897142D01*
X140878571Y-163182857D01*
X140950000Y-163325714D01*
X141021428Y-163397142D01*
X141164285Y-163468571D01*
X141450000Y-163468571D01*
X141592857Y-163397142D01*
X141664285Y-163325714D01*
X141735714Y-163182857D01*
X141735714Y-162897142D01*
X141664285Y-162754285D01*
X141592857Y-162682857D01*
X141450000Y-162611428D01*
X143021428Y-161968571D02*
X142735714Y-161968571D01*
X142592857Y-162040000D01*
X142521428Y-162111428D01*
X142378571Y-162325714D01*
X142307142Y-162611428D01*
X142307142Y-163182857D01*
X142378571Y-163325714D01*
X142450000Y-163397142D01*
X142592857Y-163468571D01*
X142878571Y-163468571D01*
X143021428Y-163397142D01*
X143092857Y-163325714D01*
X143164285Y-163182857D01*
X143164285Y-162825714D01*
X143092857Y-162682857D01*
X143021428Y-162611428D01*
X142878571Y-162540000D01*
X142592857Y-162540000D01*
X142450000Y-162611428D01*
X142378571Y-162682857D01*
X142307142Y-162825714D01*
X144092857Y-161968571D02*
X144235714Y-161968571D01*
X144378571Y-162040000D01*
X144450000Y-162111428D01*
X144521428Y-162254285D01*
X144592857Y-162540000D01*
X144592857Y-162897142D01*
X144521428Y-163182857D01*
X144450000Y-163325714D01*
X144378571Y-163397142D01*
X144235714Y-163468571D01*
X144092857Y-163468571D01*
X143950000Y-163397142D01*
X143878571Y-163325714D01*
X143807142Y-163182857D01*
X143735714Y-162897142D01*
X143735714Y-162540000D01*
X143807142Y-162254285D01*
X143878571Y-162111428D01*
X143950000Y-162040000D01*
X144092857Y-161968571D01*
X145235714Y-163468571D02*
X145235714Y-162468571D01*
X145235714Y-162611428D02*
X145307142Y-162540000D01*
X145450000Y-162468571D01*
X145664285Y-162468571D01*
X145807142Y-162540000D01*
X145878571Y-162682857D01*
X145878571Y-163468571D01*
X145878571Y-162682857D02*
X145950000Y-162540000D01*
X146092857Y-162468571D01*
X146307142Y-162468571D01*
X146450000Y-162540000D01*
X146521428Y-162682857D01*
X146521428Y-163468571D01*
X147235714Y-163468571D02*
X147235714Y-162468571D01*
X147235714Y-162611428D02*
X147307142Y-162540000D01*
X147450000Y-162468571D01*
X147664285Y-162468571D01*
X147807142Y-162540000D01*
X147878571Y-162682857D01*
X147878571Y-163468571D01*
X147878571Y-162682857D02*
X147950000Y-162540000D01*
X148092857Y-162468571D01*
X148307142Y-162468571D01*
X148450000Y-162540000D01*
X148521428Y-162682857D01*
X148521428Y-163468571D01*
X100020000Y-161440000D02*
X185880000Y-161440000D01*
X100020000Y-148420000D02*
X100020000Y-164140000D01*
X185880000Y-148420000D02*
X185880000Y-164140000D01*
X185880000Y-161440000D02*
X184753496Y-162026421D01*
X185880000Y-161440000D02*
X184753496Y-160853579D01*
X100020000Y-161440000D02*
X101146504Y-162026421D01*
X100020000Y-161440000D02*
X101146504Y-160853579D01*
D12*
X119361948Y-115260000D02*
G75*
G03X119361948Y-115260000I-231948J0D01*
G01*
X119053452Y-87000000D02*
G75*
G03X119053452Y-87000000I-233452J0D01*
G01*
X147830000Y-112240000D02*
G75*
G03X147830000Y-112240000I-230000J0D01*
G01*
X139380227Y-126990000D02*
G75*
G03X139380227Y-126990000I-220227J0D01*
G01*
D10*
X100015000Y-67920000D02*
X185880000Y-67920000D01*
X100015000Y-67920000D02*
X100015000Y-148420000D01*
X185875000Y-148420000D02*
X185875000Y-67920000D01*
X100010000Y-148420000D02*
X185875000Y-148420000D01*
X141605000Y-76970000D02*
X99695000Y-76970000D01*
X141605000Y-137930000D02*
X99695000Y-137930000D01*
X141605000Y-76970000D02*
X141605000Y-137930000D01*
X99695000Y-137930000D02*
X99695000Y-76970000D01*
M02*
